<svg width="360" height="640" viewBox="0 0 360 640" fill="none" xmlns="http://www.w3.org/2000/svg">
<rect width="360" height="640" fill="white"/>
<g filter="url(#filter0_d)">
<rect x="49" y="394" width="263" height="38" rx="10" fill="url(#paint0_linear)"/>
</g>
<path d="M166.931 412.563C165.805 412.24 164.985 411.843 164.47 411.374C163.959 410.9 163.704 410.317 163.704 409.624C163.704 408.84 164.016 408.193 164.641 407.683C165.27 407.168 166.085 406.91 167.088 406.91C167.771 406.91 168.38 407.042 168.913 407.307C169.451 407.571 169.866 407.936 170.157 408.4C170.453 408.865 170.602 409.373 170.602 409.925H169.282C169.282 409.323 169.091 408.852 168.708 408.51C168.325 408.163 167.785 407.99 167.088 407.99C166.441 407.99 165.935 408.134 165.57 408.421C165.21 408.703 165.03 409.098 165.03 409.604C165.03 410.009 165.201 410.353 165.543 410.636C165.889 410.914 166.475 411.169 167.3 411.401C168.129 411.634 168.776 411.891 169.241 412.174C169.711 412.452 170.057 412.778 170.28 413.151C170.508 413.525 170.622 413.965 170.622 414.471C170.622 415.277 170.308 415.924 169.679 416.412C169.05 416.895 168.209 417.137 167.156 417.137C166.473 417.137 165.835 417.007 165.242 416.747C164.65 416.483 164.192 416.123 163.868 415.667C163.549 415.211 163.39 414.694 163.39 414.115H164.709C164.709 414.717 164.93 415.193 165.372 415.544C165.819 415.89 166.413 416.063 167.156 416.063C167.849 416.063 168.38 415.922 168.749 415.64C169.118 415.357 169.303 414.972 169.303 414.484C169.303 413.997 169.132 413.621 168.79 413.356C168.448 413.088 167.828 412.823 166.931 412.563ZM173.486 417H172.222V409.604H173.486V417ZM172.119 407.642C172.119 407.437 172.181 407.263 172.304 407.122C172.431 406.981 172.618 406.91 172.864 406.91C173.11 406.91 173.297 406.981 173.425 407.122C173.552 407.263 173.616 407.437 173.616 407.642C173.616 407.847 173.552 408.018 173.425 408.154C173.297 408.291 173.11 408.359 172.864 408.359C172.618 408.359 172.431 408.291 172.304 408.154C172.181 408.018 172.119 407.847 172.119 407.642ZM175.216 413.24C175.216 412.087 175.482 411.171 176.016 410.492C176.549 409.809 177.255 409.467 178.135 409.467C179.037 409.467 179.741 409.786 180.247 410.424L180.309 409.604H181.464V416.822C181.464 417.779 181.179 418.534 180.609 419.085C180.044 419.636 179.283 419.912 178.326 419.912C177.793 419.912 177.271 419.798 176.761 419.57C176.25 419.342 175.861 419.03 175.592 418.634L176.248 417.875C176.79 418.545 177.453 418.88 178.237 418.88C178.853 418.88 179.331 418.707 179.673 418.36C180.019 418.014 180.192 417.526 180.192 416.897V416.262C179.687 416.845 178.996 417.137 178.121 417.137C177.255 417.137 176.553 416.788 176.016 416.091C175.482 415.394 175.216 414.443 175.216 413.24ZM176.487 413.384C176.487 414.218 176.658 414.874 177 415.353C177.342 415.826 177.82 416.063 178.436 416.063C179.233 416.063 179.819 415.701 180.192 414.977V411.6C179.805 410.893 179.224 410.54 178.449 410.54C177.834 410.54 177.353 410.779 177.007 411.258C176.66 411.736 176.487 412.445 176.487 413.384ZM184.574 409.604L184.615 410.533C185.18 409.822 185.919 409.467 186.83 409.467C188.393 409.467 189.182 410.349 189.195 412.112V417H187.931V412.105C187.926 411.572 187.803 411.178 187.562 410.923C187.325 410.668 186.953 410.54 186.447 410.54C186.037 410.54 185.677 410.649 185.367 410.868C185.057 411.087 184.816 411.374 184.643 411.729V417H183.378V409.604H184.574ZM196.182 417H194.869V407.047H196.182V417ZM199.586 409.604L199.627 410.533C200.192 409.822 200.93 409.467 201.842 409.467C203.405 409.467 204.193 410.349 204.207 412.112V417H202.942V412.105C202.938 411.572 202.815 411.178 202.573 410.923C202.336 410.668 201.965 410.54 201.459 410.54C201.049 410.54 200.689 410.649 200.379 410.868C200.069 411.087 199.827 411.374 199.654 411.729V417H198.39V409.604H199.586Z" fill="white"/>
<g filter="url(#filter1_d)">
<rect x="49" y="447" width="263" height="38" rx="10" fill="url(#paint1_linear)"/>
</g>
<path d="M163.164 465.974H160.826V470H159.507V460.047H162.802C163.923 460.047 164.784 460.302 165.386 460.812C165.992 461.323 166.295 462.066 166.295 463.041C166.295 463.661 166.126 464.201 165.789 464.661C165.456 465.121 164.992 465.465 164.395 465.693L166.732 469.918V470H165.324L163.164 465.974ZM160.826 464.9H162.843C163.494 464.9 164.012 464.732 164.395 464.395C164.782 464.057 164.976 463.606 164.976 463.041C164.976 462.426 164.791 461.954 164.422 461.626C164.057 461.298 163.529 461.132 162.836 461.127H160.826V464.9ZM171.012 470.137C170.009 470.137 169.193 469.809 168.564 469.152C167.936 468.492 167.621 467.61 167.621 466.507V466.274C167.621 465.541 167.76 464.887 168.038 464.312C168.321 463.734 168.713 463.283 169.214 462.959C169.72 462.631 170.267 462.467 170.854 462.467C171.816 462.467 172.563 462.784 173.097 463.417C173.63 464.05 173.896 464.957 173.896 466.138V466.664H168.886C168.904 467.393 169.116 467.983 169.521 468.435C169.932 468.881 170.451 469.104 171.08 469.104C171.527 469.104 171.905 469.013 172.215 468.831C172.525 468.649 172.796 468.407 173.028 468.106L173.801 468.708C173.181 469.66 172.251 470.137 171.012 470.137ZM170.854 463.506C170.344 463.506 169.916 463.693 169.569 464.066C169.223 464.436 169.009 464.955 168.927 465.625H172.632V465.529C172.595 464.887 172.422 464.39 172.112 464.039C171.802 463.684 171.383 463.506 170.854 463.506ZM175.065 466.24C175.065 465.087 175.332 464.171 175.865 463.492C176.398 462.809 177.105 462.467 177.984 462.467C178.887 462.467 179.591 462.786 180.097 463.424L180.158 462.604H181.313V469.822C181.313 470.779 181.029 471.534 180.459 472.085C179.894 472.636 179.133 472.912 178.176 472.912C177.643 472.912 177.121 472.798 176.61 472.57C176.1 472.342 175.71 472.03 175.441 471.634L176.098 470.875C176.64 471.545 177.303 471.88 178.087 471.88C178.702 471.88 179.181 471.707 179.522 471.36C179.869 471.014 180.042 470.526 180.042 469.897V469.262C179.536 469.845 178.846 470.137 177.971 470.137C177.105 470.137 176.403 469.788 175.865 469.091C175.332 468.394 175.065 467.443 175.065 466.24ZM176.337 466.384C176.337 467.218 176.508 467.874 176.85 468.353C177.191 468.826 177.67 469.063 178.285 469.063C179.083 469.063 179.668 468.701 180.042 467.977V464.6C179.655 463.893 179.074 463.54 178.299 463.54C177.684 463.54 177.203 463.779 176.856 464.258C176.51 464.736 176.337 465.445 176.337 466.384ZM184.602 470H183.337V462.604H184.602V470ZM183.234 460.642C183.234 460.437 183.296 460.263 183.419 460.122C183.547 459.981 183.733 459.91 183.979 459.91C184.226 459.91 184.412 459.981 184.54 460.122C184.668 460.263 184.731 460.437 184.731 460.642C184.731 460.847 184.668 461.018 184.54 461.154C184.412 461.291 184.226 461.359 183.979 461.359C183.733 461.359 183.547 461.291 183.419 461.154C183.296 461.018 183.234 460.847 183.234 460.642ZM190.938 468.038C190.938 467.696 190.809 467.432 190.549 467.245C190.294 467.054 189.845 466.89 189.202 466.753C188.564 466.616 188.056 466.452 187.678 466.261C187.304 466.069 187.026 465.841 186.844 465.577C186.666 465.313 186.577 464.998 186.577 464.634C186.577 464.028 186.832 463.515 187.343 463.096C187.858 462.676 188.514 462.467 189.312 462.467C190.15 462.467 190.829 462.683 191.349 463.116C191.873 463.549 192.135 464.103 192.135 464.777H190.863C190.863 464.431 190.715 464.132 190.419 463.882C190.127 463.631 189.758 463.506 189.312 463.506C188.851 463.506 188.491 463.606 188.231 463.807C187.972 464.007 187.842 464.269 187.842 464.593C187.842 464.898 187.963 465.128 188.204 465.283C188.446 465.438 188.881 465.586 189.51 465.728C190.143 465.869 190.656 466.037 191.048 466.233C191.44 466.429 191.729 466.666 191.916 466.944C192.107 467.218 192.203 467.553 192.203 467.949C192.203 468.61 191.939 469.141 191.41 469.542C190.882 469.938 190.196 470.137 189.353 470.137C188.76 470.137 188.236 470.032 187.78 469.822C187.325 469.613 186.967 469.321 186.707 468.947C186.452 468.569 186.324 468.161 186.324 467.724H187.589C187.612 468.147 187.78 468.485 188.095 468.735C188.414 468.981 188.833 469.104 189.353 469.104C189.831 469.104 190.214 469.009 190.501 468.817C190.793 468.621 190.938 468.362 190.938 468.038ZM195.566 460.812V462.604H196.947V463.581H195.566V468.168C195.566 468.464 195.628 468.688 195.751 468.838C195.874 468.984 196.084 469.057 196.38 469.057C196.526 469.057 196.726 469.029 196.981 468.975V470C196.649 470.091 196.325 470.137 196.011 470.137C195.446 470.137 195.02 469.966 194.732 469.624C194.445 469.282 194.302 468.797 194.302 468.168V463.581H192.955V462.604H194.302V460.812H195.566ZM201.5 470.137C200.497 470.137 199.682 469.809 199.053 469.152C198.424 468.492 198.109 467.61 198.109 466.507V466.274C198.109 465.541 198.248 464.887 198.526 464.312C198.809 463.734 199.201 463.283 199.702 462.959C200.208 462.631 200.755 462.467 201.343 462.467C202.304 462.467 203.052 462.784 203.585 463.417C204.118 464.05 204.385 464.957 204.385 466.138V466.664H199.374C199.392 467.393 199.604 467.983 200.01 468.435C200.42 468.881 200.939 469.104 201.568 469.104C202.015 469.104 202.393 469.013 202.703 468.831C203.013 468.649 203.284 468.407 203.517 468.106L204.289 468.708C203.669 469.66 202.74 470.137 201.5 470.137ZM201.343 463.506C200.832 463.506 200.404 463.693 200.058 464.066C199.711 464.436 199.497 464.955 199.415 465.625H203.12V465.529C203.084 464.887 202.91 464.39 202.601 464.039C202.291 463.684 201.871 463.506 201.343 463.506ZM209.43 463.738C209.238 463.706 209.031 463.69 208.808 463.69C207.978 463.69 207.415 464.044 207.119 464.75V470H205.854V462.604H207.085L207.105 463.458C207.52 462.797 208.108 462.467 208.869 462.467C209.115 462.467 209.302 462.499 209.43 462.562V463.738Z" fill="#88B337"/>
<g clip-path="url(#clip0)">
<path d="M256.637 233.592L251.311 224.673H243.808C240.372 224.672 237.187 226.553 235.419 229.626L230.448 238.052L248.086 249.759L256.637 233.592Z" fill="#6A9923"/>
<path d="M284.723 240.749L278.552 229.69C276.981 226.593 273.893 224.661 270.534 224.673H251.311L265.724 253.104L257.707 258.121L281.569 260.952L292.983 236.379L284.723 240.749Z" fill="#88B337"/>
<path d="M294.586 259.793L275.345 271.5L283.362 286.552H296.189L299.541 280.907C301.402 277.765 301.489 273.819 299.768 270.59L294.586 259.793Z" fill="#6A9923"/>
<path d="M264.121 286.552V278.19L248.086 296.586L264.121 318.328V311.638H276.948C280.326 311.724 283.448 309.77 284.965 306.621L296.189 286.552H264.121Z" fill="#88B337"/>
<path d="M224.034 288.224L220.13 297.61L225.009 306.425C226.819 309.62 230.097 311.597 233.655 311.638H240.069V288.224H224.034Z" fill="#6A9923"/>
<path d="M243.276 273.172L233.655 251.431L208 253.104L217.17 259.034L211.207 271.5C209.548 274.621 209.548 278.413 211.207 281.535L220.128 297.61L223.467 291.569L235.384 269.995L243.276 273.172Z" fill="#88B337"/>
</g>
<path d="M63.5156 251V225.336L65.3789 224.457H74.0625C77.5781 224.457 79.3359 226.215 79.3359 229.73V232.613C79.3359 233.902 78.9961 234.928 78.3164 235.689C80.0508 236.674 80.918 238.402 80.918 240.875V244.848C80.918 248.949 78.8672 251 74.7656 251H63.5156ZM67.0312 247.836H74.7656C76.5234 247.836 77.4023 246.84 77.4023 244.848V240.875C77.4023 238.883 76.5234 237.887 74.7656 237.887H67.0312V247.836ZM67.0312 234.723H74.0625C75.2344 234.723 75.8203 234.02 75.8203 232.613V229.73C75.8203 228.324 75.2344 227.621 74.0625 227.621H67.0312V234.723ZM91.1133 247.836H94.8047C95.9766 247.836 96.5625 247.133 96.5625 245.727V243.318C96.5625 241.912 95.9766 241.209 94.8047 241.209H91.1133C89.9414 241.209 89.3555 241.912 89.3555 243.318V245.727C89.3555 247.133 89.9414 247.836 91.1133 247.836ZM91.1133 251C87.5977 251 85.8398 249.242 85.8398 245.727V243.318C85.8398 239.803 87.5977 238.045 91.1133 238.045H94.8047C95.4141 238.045 96 238.221 96.5625 238.572V236.938C96.5625 235.531 95.9766 234.828 94.8047 234.828H88.5117V234.652L89.918 231.664H94.8047C98.3203 231.664 100.078 233.422 100.078 236.938V250.121L96.7383 251.703H96.5625V250.473C96.1172 250.824 95.5312 251 94.8047 251H91.1133ZM105.352 251.703V236.938C105.352 233.422 107.109 231.664 110.625 231.664H114.668C118.184 231.664 119.941 233.422 119.941 236.938V250.121L116.602 251.703H116.426V236.938C116.426 235.531 115.84 234.828 114.668 234.828H110.625C109.453 234.828 108.867 235.531 108.867 236.938V250.121L105.527 251.703H105.352ZM126.094 251.703V225.336L129.434 223.754H129.609V237.992C129.762 237.957 129.926 237.928 130.102 237.904L136.957 230.961H137.133L140.227 232.42L134.355 237.816H135.41C138.926 237.816 140.684 239.574 140.684 243.09V250.121L137.344 251.703H137.168V243.09C137.168 241.684 136.582 240.98 135.41 240.98H131.367C130.195 240.98 129.609 241.684 129.609 243.09V250.121L126.27 251.703H126.094ZM68.9648 282C64.8633 282 62.8125 279.949 62.8125 275.848V273.914L66.1523 272.332H66.3281V275.848C66.3281 277.84 67.207 278.836 68.9648 278.836H74.4141C76.1719 278.836 77.0508 277.84 77.0508 275.848V272.156C77.0508 270.164 76.1719 269.168 74.4141 269.168H69.668C66.1523 269.168 64.3945 267.41 64.3945 263.895V260.73C64.3945 257.215 66.1523 255.457 69.668 255.457H73.7109C77.2266 255.457 78.9844 257.215 78.9844 260.73V261.662L75.6445 263.244H75.4688V260.73C75.4688 259.324 74.8828 258.621 73.7109 258.621H69.668C68.4961 258.621 67.9102 259.324 67.9102 260.73V263.895C67.9102 265.301 68.4961 266.004 69.668 266.004H74.4141C78.5156 266.004 80.5664 268.055 80.5664 272.156V275.848C80.5664 279.949 78.5156 282 74.4141 282H68.9648ZM90.4102 278.836H94.1016C95.2734 278.836 95.8594 278.133 95.8594 276.727V274.318C95.8594 272.912 95.2734 272.209 94.1016 272.209H90.4102C89.2383 272.209 88.6523 272.912 88.6523 274.318V276.727C88.6523 278.133 89.2383 278.836 90.4102 278.836ZM90.4102 282C86.8945 282 85.1367 280.242 85.1367 276.727V274.318C85.1367 270.803 86.8945 269.045 90.4102 269.045H94.1016C94.7109 269.045 95.2969 269.221 95.8594 269.572V267.938C95.8594 266.531 95.2734 265.828 94.1016 265.828H87.8086V265.652L89.2148 262.664H94.1016C97.6172 262.664 99.375 264.422 99.375 267.938V281.121L96.0352 282.703H95.8594V281.473C95.4141 281.824 94.8281 282 94.1016 282H90.4102ZM104.648 282.703V267.938C104.648 264.422 106.406 262.664 109.922 262.664H113.965C115.582 262.664 116.754 263.098 117.48 263.965C118.254 263.098 119.426 262.664 120.996 262.664H125.039C128.555 262.664 130.312 264.422 130.312 267.938V281.121L126.973 282.703H126.797V267.938C126.797 266.531 126.211 265.828 125.039 265.828H120.996C119.824 265.828 119.238 266.531 119.238 267.938V281.121L115.898 282.703H115.723V267.938C115.723 266.531 115.137 265.828 113.965 265.828H109.922C108.75 265.828 108.164 266.531 108.164 267.938V281.121L104.824 282.703H104.648ZM141.738 282C140.941 282 140.355 281.818 139.98 281.455V288.328L136.641 289.91H136.465V267.938C136.465 264.422 138.223 262.664 141.738 262.664H145.781C149.297 262.664 151.055 264.422 151.055 267.938V276.727C151.055 280.242 149.297 282 145.781 282H141.738ZM141.738 278.836H145.781C146.953 278.836 147.539 278.133 147.539 276.727V267.938C147.539 266.531 146.953 265.828 145.781 265.828H141.738C140.566 265.828 139.98 266.531 139.98 267.938V276.727C139.98 278.133 140.566 278.836 141.738 278.836ZM160.723 278.836H164.414C165.586 278.836 166.172 278.133 166.172 276.727V274.318C166.172 272.912 165.586 272.209 164.414 272.209H160.723C159.551 272.209 158.965 272.912 158.965 274.318V276.727C158.965 278.133 159.551 278.836 160.723 278.836ZM160.723 282C157.207 282 155.449 280.242 155.449 276.727V274.318C155.449 270.803 157.207 269.045 160.723 269.045H164.414C165.023 269.045 165.609 269.221 166.172 269.572V267.938C166.172 266.531 165.586 265.828 164.414 265.828H158.121V265.652L159.527 262.664H164.414C167.93 262.664 169.688 264.422 169.688 267.938V281.121L166.348 282.703H166.172V281.473C165.727 281.824 165.141 282 164.414 282H160.723ZM175.84 282.703V256.336L179.18 254.754H179.355V263.209C179.871 262.846 180.457 262.664 181.113 262.664H185.156C188.672 262.664 190.43 264.422 190.43 267.938V281.121L187.09 282.703H186.914V267.938C186.914 266.531 186.328 265.828 185.156 265.828H181.113C179.941 265.828 179.355 266.531 179.355 267.938V281.121L176.016 282.703H175.84ZM68.9648 313C64.8633 313 62.8125 310.949 62.8125 306.848V304.914L66.1523 303.332H66.3281V306.848C66.3281 308.84 67.207 309.836 68.9648 309.836H74.4141C76.1719 309.836 77.0508 308.84 77.0508 306.848V303.156C77.0508 301.164 76.1719 300.168 74.4141 300.168H69.668C66.1523 300.168 64.3945 298.41 64.3945 294.895V291.73C64.3945 288.215 66.1523 286.457 69.668 286.457H73.7109C77.2266 286.457 78.9844 288.215 78.9844 291.73V292.662L75.6445 294.244H75.4688V291.73C75.4688 290.324 74.8828 289.621 73.7109 289.621H69.668C68.4961 289.621 67.9102 290.324 67.9102 291.73V294.895C67.9102 296.301 68.4961 297.004 69.668 297.004H74.4141C78.5156 297.004 80.5664 299.055 80.5664 303.156V306.848C80.5664 310.949 78.5156 313 74.4141 313H68.9648ZM90.4102 309.836H94.1016C95.2734 309.836 95.8594 309.133 95.8594 307.727V305.318C95.8594 303.912 95.2734 303.209 94.1016 303.209H90.4102C89.2383 303.209 88.6523 303.912 88.6523 305.318V307.727C88.6523 309.133 89.2383 309.836 90.4102 309.836ZM90.4102 313C86.8945 313 85.1367 311.242 85.1367 307.727V305.318C85.1367 301.803 86.8945 300.045 90.4102 300.045H94.1016C94.7109 300.045 95.2969 300.221 95.8594 300.572V298.938C95.8594 297.531 95.2734 296.828 94.1016 296.828H87.8086V296.652L89.2148 293.664H94.1016C97.6172 293.664 99.375 295.422 99.375 298.938V312.121L96.0352 313.703H95.8594V312.473C95.4141 312.824 94.8281 313 94.1016 313H90.4102ZM105.527 313.703V287.336L108.867 285.754H109.043V294.209C109.559 293.846 110.145 293.664 110.801 293.664H114.844C118.359 293.664 120.117 295.422 120.117 298.938V312.121L116.777 313.703H116.602V298.938C116.602 297.531 116.016 296.828 114.844 296.828H110.801C109.629 296.828 109.043 297.531 109.043 298.938V312.121L105.703 313.703H105.527ZM126.533 289.779C126.123 289.357 125.918 288.854 125.918 288.268C125.918 287.67 126.123 287.16 126.533 286.738C126.943 286.316 127.441 286.105 128.027 286.105C128.613 286.105 129.111 286.316 129.521 286.738C129.932 287.16 130.137 287.67 130.137 288.268C130.137 288.854 129.932 289.357 129.521 289.779C129.111 290.201 128.613 290.412 128.027 290.412C127.441 290.412 126.943 290.201 126.533 289.779ZM126.27 313.703V294.543L129.609 292.961H129.785V312.121L126.445 313.703H126.27ZM138.258 313.703V296.863H133.74V296.688L135.164 293.664H138.258V287.336L141.598 285.754H141.773V293.664H146.291V293.84L144.867 296.863H141.773V312.121L138.434 313.703H138.258ZM154.641 313C151.125 313 149.367 311.242 149.367 307.727V294.543L152.707 292.961H152.883V307.727C152.883 309.133 153.469 309.836 154.641 309.836H158.684C159.855 309.836 160.441 309.133 160.441 307.727V294.543L163.781 292.961H163.957V314.934C163.957 318.449 162.199 320.207 158.684 320.207H151.195V320.031L152.602 317.043H158.684C159.855 317.043 160.441 316.34 160.441 314.934V312.473C159.984 312.824 159.398 313 158.684 313H154.641ZM174.504 309.836H178.195C179.367 309.836 179.953 309.133 179.953 307.727V305.318C179.953 303.912 179.367 303.209 178.195 303.209H174.504C173.332 303.209 172.746 303.912 172.746 305.318V307.727C172.746 309.133 173.332 309.836 174.504 309.836ZM174.504 313C170.988 313 169.23 311.242 169.23 307.727V305.318C169.23 301.803 170.988 300.045 174.504 300.045H178.195C178.805 300.045 179.391 300.221 179.953 300.572V298.938C179.953 297.531 179.367 296.828 178.195 296.828H171.902V296.652L173.309 293.664H178.195C181.711 293.664 183.469 295.422 183.469 298.938V312.121L180.129 313.703H179.953V312.473C179.508 312.824 178.922 313 178.195 313H174.504Z" fill="#9ADB3E"/>
<defs>
<filter id="filter0_d" x="45" y="394" width="271" height="46" filterUnits="userSpaceOnUse" color-interpolation-filters="sRGB">
<feFlood flood-opacity="0" result="BackgroundImageFix"/>
<feColorMatrix in="SourceAlpha" type="matrix" values="0 0 0 0 0 0 0 0 0 0 0 0 0 0 0 0 0 0 127 0"/>
<feOffset dy="4"/>
<feGaussianBlur stdDeviation="2"/>
<feColorMatrix type="matrix" values="0 0 0 0 0 0 0 0 0 0 0 0 0 0 0 0 0 0 0.25 0"/>
<feBlend mode="normal" in2="BackgroundImageFix" result="effect1_dropShadow"/>
<feBlend mode="normal" in="SourceGraphic" in2="effect1_dropShadow" result="shape"/>
</filter>
<filter id="filter1_d" x="45" y="447" width="271" height="46" filterUnits="userSpaceOnUse" color-interpolation-filters="sRGB">
<feFlood flood-opacity="0" result="BackgroundImageFix"/>
<feColorMatrix in="SourceAlpha" type="matrix" values="0 0 0 0 0 0 0 0 0 0 0 0 0 0 0 0 0 0 127 0"/>
<feOffset dy="4"/>
<feGaussianBlur stdDeviation="2"/>
<feColorMatrix type="matrix" values="0 0 0 0 0 0 0 0 0 0 0 0 0 0 0 0 0 0 0.25 0"/>
<feBlend mode="normal" in2="BackgroundImageFix" result="effect1_dropShadow"/>
<feBlend mode="normal" in="SourceGraphic" in2="effect1_dropShadow" result="shape"/>
</filter>
<linearGradient id="paint0_linear" x1="180.5" y1="394" x2="180.5" y2="432" gradientUnits="userSpaceOnUse">
<stop stop-color="#9ADB3E"/>
<stop offset="1" stop-color="#88B337"/>
</linearGradient>
<linearGradient id="paint1_linear" x1="180.5" y1="447" x2="180.5" y2="485" gradientUnits="userSpaceOnUse">
<stop stop-color="white"/>
<stop offset="1" stop-color="#ECECEC"/>
</linearGradient>
<clipPath id="clip0">
<rect width="93" height="97" fill="white" transform="translate(208 223)"/>
</clipPath>
</defs>
</svg>
