<svg width="360" height="640" viewBox="0 0 360 640" fill="none" xmlns="http://www.w3.org/2000/svg">
<g clip-path="url(#clip0)">
<rect width="360" height="640" fill="white"/>
<circle cx="258" cy="57" r="287" fill="url(#paint0_linear)"/>
<rect y="587" width="360" height="53" fill="#F7F7F7"/>
<path d="M21.1348 624.893H18.5215V632H16.7637V624.893H14.1855V623.469H21.1348V624.893ZM24.7207 632C24.6426 631.848 24.5859 631.658 24.5508 631.432C24.1406 631.889 23.6074 632.117 22.9512 632.117C22.3301 632.117 21.8145 631.938 21.4043 631.578C20.998 631.219 20.7949 630.766 20.7949 630.219C20.7949 629.547 21.043 629.031 21.5391 628.672C22.0391 628.312 22.7598 628.131 23.7012 628.127H24.4805V627.764C24.4805 627.471 24.4043 627.236 24.252 627.061C24.1035 626.885 23.8672 626.797 23.543 626.797C23.2578 626.797 23.0332 626.865 22.8691 627.002C22.709 627.139 22.6289 627.326 22.6289 627.564H20.9355C20.9355 627.197 21.0488 626.857 21.2754 626.545C21.502 626.232 21.8223 625.988 22.2363 625.812C22.6504 625.633 23.1152 625.543 23.6309 625.543C24.4121 625.543 25.0312 625.74 25.4883 626.135C25.9492 626.525 26.1797 627.076 26.1797 627.787V630.535C26.1836 631.137 26.2676 631.592 26.4316 631.9V632H24.7207ZM23.3203 630.822C23.5703 630.822 23.8008 630.768 24.0117 630.658C24.2227 630.545 24.3789 630.395 24.4805 630.207V629.117H23.8477C23 629.117 22.5488 629.41 22.4941 629.996L22.4883 630.096C22.4883 630.307 22.5625 630.48 22.7109 630.617C22.8594 630.754 23.0625 630.822 23.3203 630.822ZM33.1934 628.889C33.1934 629.904 32.9766 630.697 32.543 631.268C32.1094 631.834 31.5039 632.117 30.7266 632.117C30.0391 632.117 29.4902 631.854 29.0801 631.326L29.0039 632H27.4805V623H29.1738V626.229C29.5645 625.771 30.0781 625.543 30.7148 625.543C31.4883 625.543 32.0938 625.828 32.5312 626.398C32.9727 626.965 33.1934 627.764 33.1934 628.795V628.889ZM31.5 628.766C31.5 628.125 31.3984 627.658 31.1953 627.365C30.9922 627.068 30.6895 626.92 30.2871 626.92C29.748 626.92 29.377 627.141 29.1738 627.582V630.084C29.3809 630.529 29.7559 630.752 30.2988 630.752C30.8457 630.752 31.2051 630.482 31.377 629.943C31.459 629.686 31.5 629.293 31.5 628.766ZM38.0391 631.355C37.6211 631.863 37.043 632.117 36.3047 632.117C35.625 632.117 35.1055 631.922 34.7461 631.531C34.3906 631.141 34.209 630.568 34.2012 629.814V625.66H35.8945V629.756C35.8945 630.416 36.1953 630.746 36.7969 630.746C37.3711 630.746 37.7656 630.547 37.9805 630.148V625.66H39.6797V632H38.0859L38.0391 631.355ZM42.5156 625.66L42.5684 626.393C43.0215 625.826 43.6289 625.543 44.3906 625.543C45.0625 625.543 45.5625 625.74 45.8906 626.135C46.2188 626.529 46.3867 627.119 46.3945 627.904V632H44.7012V627.945C44.7012 627.586 44.623 627.326 44.4668 627.166C44.3105 627.002 44.0508 626.92 43.6875 626.92C43.2109 626.92 42.8535 627.123 42.6152 627.529V632H40.9219V625.66H42.5156ZM47.4375 628.783C47.4375 627.811 47.668 627.027 48.1289 626.434C48.5938 625.84 49.2188 625.543 50.0039 625.543C50.6992 625.543 51.2402 625.781 51.627 626.258L51.6973 625.66H53.2324V631.789C53.2324 632.344 53.1055 632.826 52.8516 633.236C52.6016 633.646 52.248 633.959 51.791 634.174C51.334 634.389 50.7988 634.496 50.1855 634.496C49.7207 634.496 49.2676 634.402 48.8262 634.215C48.3848 634.031 48.0508 633.793 47.8242 633.5L48.5742 632.469C48.9961 632.941 49.5078 633.178 50.1094 633.178C50.5586 633.178 50.9082 633.057 51.1582 632.814C51.4082 632.576 51.5332 632.236 51.5332 631.795V631.455C51.1426 631.896 50.6289 632.117 49.9922 632.117C49.2305 632.117 48.6133 631.82 48.1406 631.227C47.6719 630.629 47.4375 629.838 47.4375 628.854V628.783ZM49.1309 628.906C49.1309 629.48 49.2461 629.932 49.4766 630.26C49.707 630.584 50.0234 630.746 50.4258 630.746C50.9414 630.746 51.3105 630.553 51.5332 630.166V627.5C51.3066 627.113 50.9414 626.92 50.4375 626.92C50.0312 626.92 49.7109 627.086 49.4766 627.418C49.2461 627.75 49.1309 628.246 49.1309 628.906ZM58.2129 632C58.1348 631.848 58.0781 631.658 58.043 631.432C57.6328 631.889 57.0996 632.117 56.4434 632.117C55.8223 632.117 55.3066 631.938 54.8965 631.578C54.4902 631.219 54.2871 630.766 54.2871 630.219C54.2871 629.547 54.5352 629.031 55.0312 628.672C55.5312 628.312 56.252 628.131 57.1934 628.127H57.9727V627.764C57.9727 627.471 57.8965 627.236 57.7441 627.061C57.5957 626.885 57.3594 626.797 57.0352 626.797C56.75 626.797 56.5254 626.865 56.3613 627.002C56.2012 627.139 56.1211 627.326 56.1211 627.564H54.4277C54.4277 627.197 54.541 626.857 54.7676 626.545C54.9941 626.232 55.3145 625.988 55.7285 625.812C56.1426 625.633 56.6074 625.543 57.123 625.543C57.9043 625.543 58.5234 625.74 58.9805 626.135C59.4414 626.525 59.6719 627.076 59.6719 627.787V630.535C59.6758 631.137 59.7598 631.592 59.9238 631.9V632H58.2129ZM56.8125 630.822C57.0625 630.822 57.293 630.768 57.5039 630.658C57.7148 630.545 57.8711 630.395 57.9727 630.207V629.117H57.3398C56.4922 629.117 56.041 629.41 55.9863 629.996L55.9805 630.096C55.9805 630.307 56.0547 630.48 56.2031 630.617C56.3516 630.754 56.5547 630.822 56.8125 630.822ZM62.5312 625.66L62.584 626.393C63.0371 625.826 63.6445 625.543 64.4062 625.543C65.0781 625.543 65.5781 625.74 65.9062 626.135C66.2344 626.529 66.4023 627.119 66.4102 627.904V632H64.7168V627.945C64.7168 627.586 64.6387 627.326 64.4824 627.166C64.3262 627.002 64.0664 626.92 63.7031 626.92C63.2266 626.92 62.8691 627.123 62.6309 627.529V632H60.9375V625.66H62.5312Z" fill="black"/>
<path d="M78.918 632H77.1602V623.469H78.918V632ZM82 625.66L82.0527 626.393C82.5059 625.826 83.1133 625.543 83.875 625.543C84.5469 625.543 85.0469 625.74 85.375 626.135C85.7031 626.529 85.8711 627.119 85.8789 627.904V632H84.1855V627.945C84.1855 627.586 84.1074 627.326 83.9512 627.166C83.7949 627.002 83.5352 626.92 83.1719 626.92C82.6953 626.92 82.3379 627.123 82.0996 627.529V632H80.4062V625.66H82ZM87.6309 632V626.902H86.6875V625.66H87.6309V625.121C87.6309 624.41 87.834 623.859 88.2402 623.469C88.6504 623.074 89.2227 622.877 89.957 622.877C90.1914 622.877 90.4785 622.916 90.8184 622.994L90.8008 624.307C90.6602 624.271 90.4883 624.254 90.2852 624.254C89.6484 624.254 89.3301 624.553 89.3301 625.15V625.66H90.5898V626.902H89.3301V632H87.6309ZM91.2051 628.771C91.2051 628.143 91.3262 627.582 91.5684 627.09C91.8105 626.598 92.1582 626.217 92.6113 625.947C93.0684 625.678 93.5977 625.543 94.1992 625.543C95.0547 625.543 95.752 625.805 96.291 626.328C96.834 626.852 97.1367 627.562 97.1992 628.461L97.2109 628.895C97.2109 629.867 96.9395 630.648 96.3965 631.238C95.8535 631.824 95.125 632.117 94.2109 632.117C93.2969 632.117 92.5664 631.824 92.0195 631.238C91.4766 630.652 91.2051 629.855 91.2051 628.848V628.771ZM92.8984 628.895C92.8984 629.496 93.0117 629.957 93.2383 630.277C93.4648 630.594 93.7891 630.752 94.2109 630.752C94.6211 630.752 94.9414 630.596 95.1719 630.283C95.4023 629.967 95.5176 629.463 95.5176 628.771C95.5176 628.182 95.4023 627.725 95.1719 627.4C94.9414 627.076 94.6172 626.914 94.1992 626.914C93.7852 626.914 93.4648 627.076 93.2383 627.4C93.0117 627.721 92.8984 628.219 92.8984 628.895ZM105.777 629.762C105.777 629.43 105.66 629.176 105.426 629C105.191 628.82 104.77 628.633 104.16 628.438C103.551 628.238 103.068 628.043 102.713 627.852C101.744 627.328 101.26 626.623 101.26 625.736C101.26 625.275 101.389 624.865 101.646 624.506C101.908 624.143 102.281 623.859 102.766 623.656C103.254 623.453 103.801 623.352 104.406 623.352C105.016 623.352 105.559 623.463 106.035 623.686C106.512 623.904 106.881 624.215 107.143 624.617C107.408 625.02 107.541 625.477 107.541 625.988H105.783C105.783 625.598 105.66 625.295 105.414 625.08C105.168 624.861 104.822 624.752 104.377 624.752C103.947 624.752 103.613 624.844 103.375 625.027C103.137 625.207 103.018 625.445 103.018 625.742C103.018 626.02 103.156 626.252 103.434 626.439C103.715 626.627 104.127 626.803 104.67 626.967C105.67 627.268 106.398 627.641 106.855 628.086C107.312 628.531 107.541 629.086 107.541 629.75C107.541 630.488 107.262 631.068 106.703 631.49C106.145 631.908 105.393 632.117 104.447 632.117C103.791 632.117 103.193 631.998 102.654 631.76C102.115 631.518 101.703 631.188 101.418 630.77C101.137 630.352 100.996 629.867 100.996 629.316H102.76C102.76 630.258 103.322 630.729 104.447 630.729C104.865 630.729 105.191 630.645 105.426 630.477C105.66 630.305 105.777 630.066 105.777 629.762ZM112.299 632C112.221 631.848 112.164 631.658 112.129 631.432C111.719 631.889 111.186 632.117 110.529 632.117C109.908 632.117 109.393 631.938 108.982 631.578C108.576 631.219 108.373 630.766 108.373 630.219C108.373 629.547 108.621 629.031 109.117 628.672C109.617 628.312 110.338 628.131 111.279 628.127H112.059V627.764C112.059 627.471 111.982 627.236 111.83 627.061C111.682 626.885 111.445 626.797 111.121 626.797C110.836 626.797 110.611 626.865 110.447 627.002C110.287 627.139 110.207 627.326 110.207 627.564H108.514C108.514 627.197 108.627 626.857 108.854 626.545C109.08 626.232 109.4 625.988 109.814 625.812C110.229 625.633 110.693 625.543 111.209 625.543C111.99 625.543 112.609 625.74 113.066 626.135C113.527 626.525 113.758 627.076 113.758 627.787V630.535C113.762 631.137 113.846 631.592 114.01 631.9V632H112.299ZM110.898 630.822C111.148 630.822 111.379 630.768 111.59 630.658C111.801 630.545 111.957 630.395 112.059 630.207V629.117H111.426C110.578 629.117 110.127 629.41 110.072 629.996L110.066 630.096C110.066 630.307 110.141 630.48 110.289 630.617C110.438 630.754 110.641 630.822 110.898 630.822ZM116.646 625.66L116.699 626.369C117.148 625.818 117.756 625.543 118.521 625.543C119.338 625.543 119.898 625.865 120.203 626.51C120.648 625.865 121.283 625.543 122.107 625.543C122.795 625.543 123.307 625.744 123.643 626.146C123.979 626.545 124.146 627.146 124.146 627.951V632H122.447V627.957C122.447 627.598 122.377 627.336 122.236 627.172C122.096 627.004 121.848 626.92 121.492 626.92C120.984 626.92 120.633 627.162 120.438 627.646L120.443 632H118.75V627.963C118.75 627.596 118.678 627.33 118.533 627.166C118.389 627.002 118.143 626.92 117.795 626.92C117.314 626.92 116.967 627.119 116.752 627.518V632H115.059V625.66H116.646ZM131.16 628.889C131.16 629.865 130.938 630.648 130.492 631.238C130.051 631.824 129.453 632.117 128.699 632.117C128.059 632.117 127.541 631.895 127.146 631.449V634.438H125.453V625.66H127.023L127.082 626.281C127.492 625.789 128.027 625.543 128.688 625.543C129.469 625.543 130.076 625.832 130.51 626.41C130.943 626.988 131.16 627.785 131.16 628.801V628.889ZM129.467 628.766C129.467 628.176 129.361 627.721 129.15 627.4C128.943 627.08 128.641 626.92 128.242 626.92C127.711 626.92 127.346 627.123 127.146 627.529V630.125C127.354 630.543 127.723 630.752 128.254 630.752C129.062 630.752 129.467 630.09 129.467 628.766ZM135.889 632C135.811 631.848 135.754 631.658 135.719 631.432C135.309 631.889 134.775 632.117 134.119 632.117C133.498 632.117 132.982 631.938 132.572 631.578C132.166 631.219 131.963 630.766 131.963 630.219C131.963 629.547 132.211 629.031 132.707 628.672C133.207 628.312 133.928 628.131 134.869 628.127H135.648V627.764C135.648 627.471 135.572 627.236 135.42 627.061C135.271 626.885 135.035 626.797 134.711 626.797C134.426 626.797 134.201 626.865 134.037 627.002C133.877 627.139 133.797 627.326 133.797 627.564H132.104C132.104 627.197 132.217 626.857 132.443 626.545C132.67 626.232 132.99 625.988 133.404 625.812C133.818 625.633 134.283 625.543 134.799 625.543C135.58 625.543 136.199 625.74 136.656 626.135C137.117 626.525 137.348 627.076 137.348 627.787V630.535C137.352 631.137 137.436 631.592 137.6 631.9V632H135.889ZM134.488 630.822C134.738 630.822 134.969 630.768 135.18 630.658C135.391 630.545 135.547 630.395 135.648 630.207V629.117H135.016C134.168 629.117 133.717 629.41 133.662 629.996L133.656 630.096C133.656 630.307 133.73 630.48 133.879 630.617C134.027 630.754 134.23 630.822 134.488 630.822ZM140.301 626.352C140.75 625.812 141.314 625.543 141.994 625.543C143.369 625.543 144.066 626.342 144.086 627.939V632H142.393V627.986C142.393 627.623 142.314 627.355 142.158 627.184C142.002 627.008 141.742 626.92 141.379 626.92C140.883 626.92 140.523 627.111 140.301 627.494V632H138.607V623H140.301V626.352Z" fill="#6A9923"/>
<path d="M161.418 628.877H160.018V632H158.26V623.469H161.43C162.438 623.469 163.215 623.693 163.762 624.143C164.309 624.592 164.582 625.227 164.582 626.047C164.582 626.629 164.455 627.115 164.201 627.506C163.951 627.893 163.57 628.201 163.059 628.432L164.904 631.918V632H163.018L161.418 628.877ZM160.018 627.453H161.436C161.877 627.453 162.219 627.342 162.461 627.119C162.703 626.893 162.824 626.582 162.824 626.188C162.824 625.785 162.709 625.469 162.479 625.238C162.252 625.008 161.902 624.893 161.43 624.893H160.018V627.453ZM169.486 632C169.408 631.848 169.352 631.658 169.316 631.432C168.906 631.889 168.373 632.117 167.717 632.117C167.096 632.117 166.58 631.938 166.17 631.578C165.764 631.219 165.561 630.766 165.561 630.219C165.561 629.547 165.809 629.031 166.305 628.672C166.805 628.312 167.525 628.131 168.467 628.127H169.246V627.764C169.246 627.471 169.17 627.236 169.018 627.061C168.869 626.885 168.633 626.797 168.309 626.797C168.023 626.797 167.799 626.865 167.635 627.002C167.475 627.139 167.395 627.326 167.395 627.564H165.701C165.701 627.197 165.814 626.857 166.041 626.545C166.268 626.232 166.588 625.988 167.002 625.812C167.416 625.633 167.881 625.543 168.396 625.543C169.178 625.543 169.797 625.74 170.254 626.135C170.715 626.525 170.945 627.076 170.945 627.787V630.535C170.949 631.137 171.033 631.592 171.197 631.9V632H169.486ZM168.086 630.822C168.336 630.822 168.566 630.768 168.777 630.658C168.988 630.545 169.145 630.395 169.246 630.207V629.117H168.613C167.766 629.117 167.314 629.41 167.26 629.996L167.254 630.096C167.254 630.307 167.328 630.48 167.477 630.617C167.625 630.754 167.828 630.822 168.086 630.822ZM173.805 625.66L173.857 626.393C174.311 625.826 174.918 625.543 175.68 625.543C176.352 625.543 176.852 625.74 177.18 626.135C177.508 626.529 177.676 627.119 177.684 627.904V632H175.99V627.945C175.99 627.586 175.912 627.326 175.756 627.166C175.6 627.002 175.34 626.92 174.977 626.92C174.5 626.92 174.143 627.123 173.904 627.529V632H172.211V625.66H173.805ZM181.275 629.457L180.666 630.066V632H178.973V623H180.666V627.986L180.994 627.564L182.617 625.66H184.65L182.359 628.303L184.85 632H182.904L181.275 629.457ZM187.17 632H185.471V625.66H187.17V632ZM185.371 624.02C185.371 623.766 185.455 623.557 185.623 623.393C185.795 623.229 186.027 623.146 186.32 623.146C186.609 623.146 186.84 623.229 187.012 623.393C187.184 623.557 187.27 623.766 187.27 624.02C187.27 624.277 187.182 624.488 187.006 624.652C186.834 624.816 186.605 624.898 186.32 624.898C186.035 624.898 185.805 624.816 185.629 624.652C185.457 624.488 185.371 624.277 185.371 624.02ZM190.129 625.66L190.182 626.393C190.635 625.826 191.242 625.543 192.004 625.543C192.676 625.543 193.176 625.74 193.504 626.135C193.832 626.529 194 627.119 194.008 627.904V632H192.314V627.945C192.314 627.586 192.236 627.326 192.08 627.166C191.924 627.002 191.664 626.92 191.301 626.92C190.824 626.92 190.467 627.123 190.229 627.529V632H188.535V625.66H190.129ZM195.051 628.783C195.051 627.811 195.281 627.027 195.742 626.434C196.207 625.84 196.832 625.543 197.617 625.543C198.312 625.543 198.854 625.781 199.24 626.258L199.311 625.66H200.846V631.789C200.846 632.344 200.719 632.826 200.465 633.236C200.215 633.646 199.861 633.959 199.404 634.174C198.947 634.389 198.412 634.496 197.799 634.496C197.334 634.496 196.881 634.402 196.439 634.215C195.998 634.031 195.664 633.793 195.438 633.5L196.188 632.469C196.609 632.941 197.121 633.178 197.723 633.178C198.172 633.178 198.521 633.057 198.771 632.814C199.021 632.576 199.146 632.236 199.146 631.795V631.455C198.756 631.896 198.242 632.117 197.605 632.117C196.844 632.117 196.227 631.82 195.754 631.227C195.285 630.629 195.051 629.838 195.051 628.854V628.783ZM196.744 628.906C196.744 629.48 196.859 629.932 197.09 630.26C197.32 630.584 197.637 630.746 198.039 630.746C198.555 630.746 198.924 630.553 199.146 630.166V627.5C198.92 627.113 198.555 626.92 198.051 626.92C197.645 626.92 197.324 627.086 197.09 627.418C196.859 627.75 196.744 628.246 196.744 628.906Z" fill="black"/>
<path d="M232.094 630.588H235.826V632H230.336V623.469H232.094V630.588ZM240.402 632C240.324 631.848 240.268 631.658 240.232 631.432C239.822 631.889 239.289 632.117 238.633 632.117C238.012 632.117 237.496 631.938 237.086 631.578C236.68 631.219 236.477 630.766 236.477 630.219C236.477 629.547 236.725 629.031 237.221 628.672C237.721 628.312 238.441 628.131 239.383 628.127H240.162V627.764C240.162 627.471 240.086 627.236 239.934 627.061C239.785 626.885 239.549 626.797 239.225 626.797C238.939 626.797 238.715 626.865 238.551 627.002C238.391 627.139 238.311 627.326 238.311 627.564H236.617C236.617 627.197 236.73 626.857 236.957 626.545C237.184 626.232 237.504 625.988 237.918 625.812C238.332 625.633 238.797 625.543 239.312 625.543C240.094 625.543 240.713 625.74 241.17 626.135C241.631 626.525 241.861 627.076 241.861 627.787V630.535C241.865 631.137 241.949 631.592 242.113 631.9V632H240.402ZM239.002 630.822C239.252 630.822 239.482 630.768 239.693 630.658C239.904 630.545 240.061 630.395 240.162 630.207V629.117H239.529C238.682 629.117 238.23 629.41 238.176 629.996L238.17 630.096C238.17 630.307 238.244 630.48 238.393 630.617C238.541 630.754 238.744 630.822 239.002 630.822ZM248.869 628.889C248.869 629.865 248.646 630.648 248.201 631.238C247.76 631.824 247.162 632.117 246.408 632.117C245.768 632.117 245.25 631.895 244.855 631.449V634.438H243.162V625.66H244.732L244.791 626.281C245.201 625.789 245.736 625.543 246.396 625.543C247.178 625.543 247.785 625.832 248.219 626.41C248.652 626.988 248.869 627.785 248.869 628.801V628.889ZM247.176 628.766C247.176 628.176 247.07 627.721 246.859 627.4C246.652 627.08 246.35 626.92 245.951 626.92C245.42 626.92 245.055 627.123 244.855 627.529V630.125C245.062 630.543 245.432 630.752 245.963 630.752C246.771 630.752 247.176 630.09 247.176 628.766ZM249.66 628.771C249.66 628.143 249.781 627.582 250.023 627.09C250.266 626.598 250.613 626.217 251.066 625.947C251.523 625.678 252.053 625.543 252.654 625.543C253.51 625.543 254.207 625.805 254.746 626.328C255.289 626.852 255.592 627.562 255.654 628.461L255.666 628.895C255.666 629.867 255.395 630.648 254.852 631.238C254.309 631.824 253.58 632.117 252.666 632.117C251.752 632.117 251.021 631.824 250.475 631.238C249.932 630.652 249.66 629.855 249.66 628.848V628.771ZM251.354 628.895C251.354 629.496 251.467 629.957 251.693 630.277C251.92 630.594 252.244 630.752 252.666 630.752C253.076 630.752 253.396 630.596 253.627 630.283C253.857 629.967 253.973 629.463 253.973 628.771C253.973 628.182 253.857 627.725 253.627 627.4C253.396 627.076 253.072 626.914 252.654 626.914C252.24 626.914 251.92 627.076 251.693 627.4C251.467 627.721 251.354 628.219 251.354 628.895ZM260.271 627.248C260.041 627.217 259.838 627.201 259.662 627.201C259.021 627.201 258.602 627.418 258.402 627.852V632H256.709V625.66H258.309L258.355 626.416C258.695 625.834 259.166 625.543 259.768 625.543C259.955 625.543 260.131 625.568 260.295 625.619L260.271 627.248ZM264.59 632C264.512 631.848 264.455 631.658 264.42 631.432C264.01 631.889 263.477 632.117 262.82 632.117C262.199 632.117 261.684 631.938 261.273 631.578C260.867 631.219 260.664 630.766 260.664 630.219C260.664 629.547 260.912 629.031 261.408 628.672C261.908 628.312 262.629 628.131 263.57 628.127H264.35V627.764C264.35 627.471 264.273 627.236 264.121 627.061C263.973 626.885 263.736 626.797 263.412 626.797C263.127 626.797 262.902 626.865 262.738 627.002C262.578 627.139 262.498 627.326 262.498 627.564H260.805C260.805 627.197 260.918 626.857 261.145 626.545C261.371 626.232 261.691 625.988 262.105 625.812C262.52 625.633 262.984 625.543 263.5 625.543C264.281 625.543 264.9 625.74 265.357 626.135C265.818 626.525 266.049 627.076 266.049 627.787V630.535C266.053 631.137 266.137 631.592 266.301 631.9V632H264.59ZM263.189 630.822C263.439 630.822 263.67 630.768 263.881 630.658C264.092 630.545 264.248 630.395 264.35 630.207V629.117H263.717C262.869 629.117 262.418 629.41 262.363 629.996L262.357 630.096C262.357 630.307 262.432 630.48 262.58 630.617C262.729 630.754 262.932 630.822 263.189 630.822ZM268.908 625.66L268.961 626.393C269.414 625.826 270.021 625.543 270.783 625.543C271.455 625.543 271.955 625.74 272.283 626.135C272.611 626.529 272.779 627.119 272.787 627.904V632H271.094V627.945C271.094 627.586 271.016 627.326 270.859 627.166C270.703 627.002 270.443 626.92 270.08 626.92C269.604 626.92 269.246 627.123 269.008 627.529V632H267.314V625.66H268.908Z" fill="black"/>
<path d="M307.424 628.994V632H305.666V623.469H308.994C309.635 623.469 310.197 623.586 310.682 623.82C311.17 624.055 311.545 624.389 311.807 624.822C312.068 625.252 312.199 625.742 312.199 626.293C312.199 627.129 311.912 627.789 311.338 628.273C310.768 628.754 309.977 628.994 308.965 628.994H307.424ZM307.424 627.57H308.994C309.459 627.57 309.812 627.461 310.055 627.242C310.301 627.023 310.424 626.711 310.424 626.305C310.424 625.887 310.301 625.549 310.055 625.291C309.809 625.033 309.469 624.9 309.035 624.893H307.424V627.57ZM316.863 627.248C316.633 627.217 316.43 627.201 316.254 627.201C315.613 627.201 315.193 627.418 314.994 627.852V632H313.301V625.66H314.9L314.947 626.416C315.287 625.834 315.758 625.543 316.359 625.543C316.547 625.543 316.723 625.568 316.887 625.619L316.863 627.248ZM317.209 628.771C317.209 628.143 317.33 627.582 317.572 627.09C317.814 626.598 318.162 626.217 318.615 625.947C319.072 625.678 319.602 625.543 320.203 625.543C321.059 625.543 321.756 625.805 322.295 626.328C322.838 626.852 323.141 627.562 323.203 628.461L323.215 628.895C323.215 629.867 322.943 630.648 322.4 631.238C321.857 631.824 321.129 632.117 320.215 632.117C319.301 632.117 318.57 631.824 318.023 631.238C317.48 630.652 317.209 629.855 317.209 628.848V628.771ZM318.902 628.895C318.902 629.496 319.016 629.957 319.242 630.277C319.469 630.594 319.793 630.752 320.215 630.752C320.625 630.752 320.945 630.596 321.176 630.283C321.406 629.967 321.521 629.463 321.521 628.771C321.521 628.182 321.406 627.725 321.176 627.4C320.945 627.076 320.621 626.914 320.203 626.914C319.789 626.914 319.469 627.076 319.242 627.4C319.016 627.721 318.902 628.219 318.902 628.895ZM324.668 632V626.902H323.725V625.66H324.668V625.367C324.676 624.57 324.92 623.957 325.4 623.527C325.885 623.094 326.566 622.877 327.445 622.877C327.973 622.877 328.613 622.992 329.367 623.223L329.121 624.623C328.738 624.51 328.441 624.438 328.23 624.406C328.02 624.371 327.793 624.354 327.551 624.354C326.762 624.354 326.367 624.703 326.367 625.402V625.66H327.615V626.902H326.367V632H324.668ZM330.158 632H328.459V625.66H330.158V632ZM333.346 632H331.646V623H333.346V632Z" fill="black"/>
<g filter="url(#filter0_d)">
<rect x="33" y="31" width="287" height="457" rx="10" fill="url(#paint1_linear)"/>
</g>
<path d="M51.0693 54H49.0186V44.0469H51.0693V54ZM54.665 46.6035L54.7266 47.458C55.2552 46.7972 55.9639 46.4668 56.8525 46.4668C57.6364 46.4668 58.2197 46.6969 58.6025 47.1572C58.9854 47.6175 59.1813 48.3057 59.1904 49.2217V54H57.2148V49.2695C57.2148 48.8503 57.1237 48.5472 56.9414 48.3604C56.7591 48.1689 56.4561 48.0732 56.0322 48.0732C55.4762 48.0732 55.0592 48.3102 54.7812 48.7842V54H52.8057V46.6035H54.665ZM61.2344 54V48.0527H60.1338V46.6035H61.2344V45.9746C61.2344 45.1452 61.4714 44.5026 61.9453 44.0469C62.4238 43.5866 63.0915 43.3564 63.9482 43.3564C64.2217 43.3564 64.5566 43.402 64.9531 43.4932L64.9326 45.0244C64.7686 44.9834 64.568 44.9629 64.3311 44.9629C63.5882 44.9629 63.2168 45.3115 63.2168 46.0088V46.6035H64.6865V48.0527H63.2168V54H61.2344ZM65.4043 50.2334C65.4043 49.4997 65.5456 48.8457 65.8281 48.2715C66.1107 47.6973 66.5163 47.2529 67.0449 46.9385C67.5781 46.624 68.1956 46.4668 68.8975 46.4668C69.8955 46.4668 70.709 46.7721 71.3379 47.3828C71.9714 47.9935 72.3245 48.8229 72.3975 49.8711L72.4111 50.377C72.4111 51.5117 72.0944 52.4232 71.4609 53.1113C70.8275 53.7949 69.9775 54.1367 68.9111 54.1367C67.8447 54.1367 66.9925 53.7949 66.3545 53.1113C65.721 52.4277 65.4043 51.498 65.4043 50.3223V50.2334ZM67.3799 50.377C67.3799 51.0788 67.512 51.6165 67.7764 51.9902C68.0407 52.3594 68.4189 52.5439 68.9111 52.5439C69.3896 52.5439 69.7633 52.3617 70.0322 51.9971C70.3011 51.6279 70.4355 51.04 70.4355 50.2334C70.4355 49.5452 70.3011 49.012 70.0322 48.6338C69.7633 48.2555 69.3851 48.0664 68.8975 48.0664C68.4144 48.0664 68.0407 48.2555 67.7764 48.6338C67.512 49.0075 67.3799 49.5885 67.3799 50.377ZM82.4053 51.3887C82.4053 51.0013 82.2686 50.7051 81.9951 50.5C81.7217 50.2904 81.2295 50.0716 80.5186 49.8438C79.8076 49.6113 79.2448 49.3835 78.8301 49.1602C77.6999 48.5495 77.1348 47.7269 77.1348 46.6924C77.1348 46.1546 77.2852 45.6761 77.5859 45.2568C77.8913 44.833 78.3265 44.5026 78.8916 44.2656C79.4613 44.0286 80.0993 43.9102 80.8057 43.9102C81.5166 43.9102 82.1501 44.04 82.7061 44.2998C83.262 44.555 83.6927 44.9173 83.998 45.3867C84.3079 45.8561 84.4629 46.3893 84.4629 46.9863H82.4121C82.4121 46.5306 82.2686 46.1774 81.9814 45.9268C81.6943 45.6715 81.291 45.5439 80.7715 45.5439C80.2702 45.5439 79.8805 45.651 79.6025 45.8652C79.3245 46.0749 79.1855 46.3529 79.1855 46.6992C79.1855 47.0228 79.3473 47.2939 79.6709 47.5127C79.999 47.7314 80.4798 47.9365 81.1133 48.1279C82.2799 48.4788 83.1299 48.9141 83.6631 49.4336C84.1963 49.9531 84.4629 50.6003 84.4629 51.375C84.4629 52.2363 84.137 52.9131 83.4854 53.4053C82.8337 53.8929 81.9564 54.1367 80.8535 54.1367C80.0879 54.1367 79.3906 53.9977 78.7617 53.7197C78.1328 53.4372 77.652 53.0521 77.3193 52.5645C76.9912 52.0768 76.8271 51.5117 76.8271 50.8691H78.8848C78.8848 51.9674 79.541 52.5166 80.8535 52.5166C81.3411 52.5166 81.7217 52.4186 81.9951 52.2227C82.2686 52.0221 82.4053 51.7441 82.4053 51.3887ZM90.0137 54C89.9225 53.8223 89.8564 53.6012 89.8154 53.3369C89.3369 53.8701 88.7148 54.1367 87.9492 54.1367C87.2246 54.1367 86.623 53.9271 86.1445 53.5078C85.6706 53.0885 85.4336 52.5599 85.4336 51.9219C85.4336 51.138 85.723 50.5365 86.3018 50.1172C86.8851 49.6979 87.7259 49.486 88.8242 49.4814H89.7334V49.0576C89.7334 48.7158 89.6445 48.4424 89.4668 48.2373C89.2936 48.0322 89.0179 47.9297 88.6396 47.9297C88.307 47.9297 88.0449 48.0094 87.8535 48.1689C87.6667 48.3285 87.5732 48.5472 87.5732 48.8252H85.5977C85.5977 48.3968 85.7298 48.0003 85.9941 47.6357C86.2585 47.2712 86.6322 46.9863 87.1152 46.7812C87.5983 46.5716 88.1406 46.4668 88.7422 46.4668C89.6536 46.4668 90.376 46.6969 90.9092 47.1572C91.4469 47.613 91.7158 48.2555 91.7158 49.085V52.291C91.7204 52.9928 91.8184 53.5238 92.0098 53.8838V54H90.0137ZM88.3799 52.626C88.6715 52.626 88.9404 52.5622 89.1865 52.4346C89.4326 52.3024 89.6149 52.127 89.7334 51.9082V50.6367H88.9951C88.0062 50.6367 87.4798 50.9785 87.416 51.6621L87.4092 51.7783C87.4092 52.0244 87.4958 52.2272 87.6689 52.3867C87.8421 52.5462 88.0791 52.626 88.3799 52.626ZM95.0859 46.6035L95.1475 47.4307C95.6715 46.7881 96.3802 46.4668 97.2734 46.4668C98.2259 46.4668 98.8799 46.8428 99.2354 47.5947C99.7549 46.8428 100.495 46.4668 101.457 46.4668C102.259 46.4668 102.856 46.7015 103.248 47.1709C103.64 47.6357 103.836 48.3376 103.836 49.2764V54H101.854V49.2832C101.854 48.8639 101.771 48.5586 101.607 48.3672C101.443 48.1712 101.154 48.0732 100.739 48.0732C100.147 48.0732 99.7367 48.3558 99.5088 48.9209L99.5156 54H97.54V49.29C97.54 48.8617 97.4557 48.5518 97.2871 48.3604C97.1185 48.1689 96.8314 48.0732 96.4258 48.0732C95.8652 48.0732 95.4596 48.3057 95.209 48.7705V54H93.2334V46.6035H95.0859ZM112.019 50.3701C112.019 51.5094 111.759 52.4232 111.239 53.1113C110.724 53.7949 110.027 54.1367 109.147 54.1367C108.4 54.1367 107.796 53.877 107.336 53.3574V56.8438H105.36V46.6035H107.192L107.261 47.3281C107.739 46.7539 108.364 46.4668 109.134 46.4668C110.045 46.4668 110.754 46.804 111.26 47.4785C111.766 48.153 112.019 49.0827 112.019 50.2676V50.3701ZM110.043 50.2266C110.043 49.5384 109.92 49.0075 109.674 48.6338C109.432 48.2601 109.079 48.0732 108.614 48.0732C107.994 48.0732 107.568 48.3102 107.336 48.7842V51.8125C107.577 52.3001 108.008 52.5439 108.628 52.5439C109.571 52.5439 110.043 51.7715 110.043 50.2266ZM117.535 54C117.444 53.8223 117.378 53.6012 117.337 53.3369C116.858 53.8701 116.236 54.1367 115.471 54.1367C114.746 54.1367 114.145 53.9271 113.666 53.5078C113.192 53.0885 112.955 52.5599 112.955 51.9219C112.955 51.138 113.244 50.5365 113.823 50.1172C114.407 49.6979 115.247 49.486 116.346 49.4814H117.255V49.0576C117.255 48.7158 117.166 48.4424 116.988 48.2373C116.815 48.0322 116.539 47.9297 116.161 47.9297C115.828 47.9297 115.566 48.0094 115.375 48.1689C115.188 48.3285 115.095 48.5472 115.095 48.8252H113.119C113.119 48.3968 113.251 48.0003 113.516 47.6357C113.78 47.2712 114.154 46.9863 114.637 46.7812C115.12 46.5716 115.662 46.4668 116.264 46.4668C117.175 46.4668 117.897 46.6969 118.431 47.1572C118.968 47.613 119.237 48.2555 119.237 49.085V52.291C119.242 52.9928 119.34 53.5238 119.531 53.8838V54H117.535ZM115.901 52.626C116.193 52.626 116.462 52.5622 116.708 52.4346C116.954 52.3024 117.136 52.127 117.255 51.9082V50.6367H116.517C115.528 50.6367 115.001 50.9785 114.938 51.6621L114.931 51.7783C114.931 52.0244 115.017 52.2272 115.19 52.3867C115.364 52.5462 115.601 52.626 115.901 52.626ZM122.683 47.4102C123.207 46.7812 123.865 46.4668 124.658 46.4668C126.262 46.4668 127.076 47.3988 127.099 49.2627V54H125.123V49.3174C125.123 48.8936 125.032 48.5814 124.85 48.3809C124.667 48.1758 124.364 48.0732 123.94 48.0732C123.362 48.0732 122.942 48.2965 122.683 48.7432V54H120.707V43.5H122.683V47.4102Z" fill="black"/>
<path d="M55.8398 80.7539H53.0391V87H49.5234V69.9375H55.8633C57.8789 69.9375 59.4336 70.3867 60.5273 71.2852C61.6211 72.1836 62.168 73.4531 62.168 75.0938C62.168 76.2578 61.9141 77.2305 61.4062 78.0117C60.9062 78.7852 60.1445 79.4023 59.1211 79.8633L62.8125 86.8359V87H59.0391L55.8398 80.7539ZM53.0391 77.9062H55.875C56.7578 77.9062 57.4414 77.6836 57.9258 77.2383C58.4102 76.7852 58.6523 76.1641 58.6523 75.375C58.6523 74.5703 58.4219 73.9375 57.9609 73.4766C57.5078 73.0156 56.8086 72.7852 55.8633 72.7852H53.0391V77.9062ZM76.043 80.7773C76.043 82.7305 75.5977 84.2969 74.707 85.4766C73.8242 86.6484 72.6289 87.2344 71.1211 87.2344C69.8398 87.2344 68.8047 86.7891 68.0156 85.8984V91.875H64.6289V74.3203H67.7695L67.8867 75.5625C68.707 74.5781 69.7773 74.0859 71.0977 74.0859C72.6602 74.0859 73.875 74.6641 74.7422 75.8203C75.6094 76.9766 76.043 78.5703 76.043 80.6016V80.7773ZM72.6562 80.5312C72.6562 79.3516 72.4453 78.4414 72.0234 77.8008C71.6094 77.1602 71.0039 76.8398 70.207 76.8398C69.1445 76.8398 68.4141 77.2461 68.0156 78.0586V83.25C68.4297 84.0859 69.168 84.5039 70.2305 84.5039C71.8477 84.5039 72.6562 83.1797 72.6562 80.5312ZM78.3281 85.3359C78.3281 84.7969 78.5078 84.3594 78.8672 84.0234C79.2344 83.6875 79.6914 83.5195 80.2383 83.5195C80.793 83.5195 81.25 83.6875 81.6094 84.0234C81.9766 84.3594 82.1602 84.7969 82.1602 85.3359C82.1602 85.8672 81.9805 86.3008 81.6211 86.6367C81.2617 86.9648 80.8008 87.1289 80.2383 87.1289C79.6836 87.1289 79.2266 86.9648 78.8672 86.6367C78.5078 86.3008 78.3281 85.8672 78.3281 85.3359ZM102.574 71.8359L95.9766 87H92.4023L99.0117 72.6797H90.5273V69.9375H102.574V71.8359ZM105.258 78.6094L106.242 69.9375H115.805V72.7617H109.02L108.598 76.4297C109.402 76 110.258 75.7852 111.164 75.7852C112.789 75.7852 114.062 76.2891 114.984 77.2969C115.906 78.3047 116.367 79.7148 116.367 81.5273C116.367 82.6289 116.133 83.6172 115.664 84.4922C115.203 85.3594 114.539 86.0352 113.672 86.5195C112.805 86.9961 111.781 87.2344 110.602 87.2344C109.57 87.2344 108.613 87.0273 107.73 86.6133C106.848 86.1914 106.148 85.6016 105.633 84.8438C105.125 84.0859 104.855 83.2227 104.824 82.2539H108.176C108.246 82.9648 108.492 83.5195 108.914 83.918C109.344 84.3086 109.902 84.5039 110.59 84.5039C111.355 84.5039 111.945 84.2305 112.359 83.6836C112.773 83.1289 112.98 82.3477 112.98 81.3398C112.98 80.3711 112.742 79.6289 112.266 79.1133C111.789 78.5977 111.113 78.3398 110.238 78.3398C109.434 78.3398 108.781 78.5508 108.281 78.9727L107.953 79.2773L105.258 78.6094ZM119.555 91.2773L117.785 90.3516L118.207 89.5898C118.73 88.6367 119 87.6875 119.016 86.7422V84.1172H121.875L121.863 86.4609C121.855 87.3281 121.637 88.2031 121.207 89.0859C120.777 89.9688 120.227 90.6992 119.555 91.2773ZM135.879 79.9453C135.879 82.3047 135.391 84.1094 134.414 85.3594C133.438 86.6094 132.008 87.2344 130.125 87.2344C128.266 87.2344 126.844 86.6211 125.859 85.3945C124.875 84.168 124.371 82.4102 124.348 80.1211V76.9805C124.348 74.5977 124.84 72.7891 125.824 71.5547C126.816 70.3203 128.242 69.7031 130.102 69.7031C131.961 69.7031 133.383 70.3164 134.367 71.543C135.352 72.7617 135.855 74.5156 135.879 76.8047V79.9453ZM132.492 76.5C132.492 75.0859 132.297 74.0586 131.906 73.418C131.523 72.7695 130.922 72.4453 130.102 72.4453C129.305 72.4453 128.715 72.7539 128.332 73.3711C127.957 73.9805 127.758 74.9375 127.734 76.2422V80.3906C127.734 81.7812 127.922 82.8164 128.297 83.4961C128.68 84.168 129.289 84.5039 130.125 84.5039C130.953 84.5039 131.551 84.1797 131.918 83.5312C132.285 82.8828 132.477 81.8906 132.492 80.5547V76.5ZM149.66 79.9453C149.66 82.3047 149.172 84.1094 148.195 85.3594C147.219 86.6094 145.789 87.2344 143.906 87.2344C142.047 87.2344 140.625 86.6211 139.641 85.3945C138.656 84.168 138.152 82.4102 138.129 80.1211V76.9805C138.129 74.5977 138.621 72.7891 139.605 71.5547C140.598 70.3203 142.023 69.7031 143.883 69.7031C145.742 69.7031 147.164 70.3164 148.148 71.543C149.133 72.7617 149.637 74.5156 149.66 76.8047V79.9453ZM146.273 76.5C146.273 75.0859 146.078 74.0586 145.688 73.418C145.305 72.7695 144.703 72.4453 143.883 72.4453C143.086 72.4453 142.496 72.7539 142.113 73.3711C141.738 73.9805 141.539 74.9375 141.516 76.2422V80.3906C141.516 81.7812 141.703 82.8164 142.078 83.4961C142.461 84.168 143.07 84.5039 143.906 84.5039C144.734 84.5039 145.332 84.1797 145.699 83.5312C146.066 82.8828 146.258 81.8906 146.273 80.5547V76.5ZM163.441 79.9453C163.441 82.3047 162.953 84.1094 161.977 85.3594C161 86.6094 159.57 87.2344 157.688 87.2344C155.828 87.2344 154.406 86.6211 153.422 85.3945C152.438 84.168 151.934 82.4102 151.91 80.1211V76.9805C151.91 74.5977 152.402 72.7891 153.387 71.5547C154.379 70.3203 155.805 69.7031 157.664 69.7031C159.523 69.7031 160.945 70.3164 161.93 71.543C162.914 72.7617 163.418 74.5156 163.441 76.8047V79.9453ZM160.055 76.5C160.055 75.0859 159.859 74.0586 159.469 73.418C159.086 72.7695 158.484 72.4453 157.664 72.4453C156.867 72.4453 156.277 72.7539 155.895 73.3711C155.52 73.9805 155.32 74.9375 155.297 76.2422V80.3906C155.297 81.7812 155.484 82.8164 155.859 83.4961C156.242 84.168 156.852 84.5039 157.688 84.5039C158.516 84.5039 159.113 84.1797 159.48 83.5312C159.848 82.8828 160.039 81.8906 160.055 80.5547V76.5Z" fill="#6A9923"/>
<g clip-path="url(#clip1)">
<path d="M42.153 601.831C41.6009 601.831 41.0491 601.621 40.6289 601.201C40.4608 601.033 40.4608 600.76 40.6289 600.592C40.7974 600.423 41.0703 600.423 41.2384 600.592C41.7422 601.096 42.5625 601.096 43.0672 600.592C43.2358 600.423 43.5086 600.423 43.6767 600.592C43.8453 600.76 43.8453 601.033 43.6767 601.201C43.2569 601.621 42.7052 601.831 42.153 601.831Z" fill="#4C4031"/>
<path d="M44.825 611.107V611.106V609.383C44.825 609.018 45.953 608.375 47.5112 608.139C46.9681 606.97 46.1491 605.912 45.0733 605.087L41.9491 602.963C41.7858 602.838 41.6112 602.723 41.4293 602.621C41.1901 601.89 41.0254 601.137 40.9435 600.374L40.7203 598.3C40.7004 598.116 40.7004 597.931 40.7224 597.748C40.75 597.515 40.7806 597.182 40.7935 597.144C40.8207 597.066 40.8578 596.977 40.894 596.89C41.0716 596.539 41.2862 596.172 41.5069 595.9C41.5849 595.812 41.6612 595.724 41.7526 595.647C42.2534 595.223 42.1246 594.426 41.5017 594.22C41.1625 594.107 40.7944 594.025 40.4185 594.005C40.3828 594.003 40.3466 594.006 40.3108 594.005C40.225 594.003 40.1388 594 40.0526 594.005C39.5483 594.035 39.0409 594.195 38.5793 594.564C38.4246 594.688 38.2401 594.75 38.0552 594.751C37.8677 594.751 37.6797 594.688 37.5228 594.563C36.9496 594.105 36.306 593.969 35.6845 594.005C35.3086 594.025 34.9409 594.107 34.6017 594.22C33.9789 594.426 33.85 595.223 34.3509 595.647C34.4034 595.691 34.4595 595.749 34.5159 595.808C34.5336 595.825 34.5509 595.843 34.5677 595.861C34.6414 595.941 34.7164 596.032 34.7922 596.128C35.0444 596.475 35.2159 596.847 35.3185 597.144C35.3474 597.228 35.3767 597.69 35.422 597.942C35.4509 598.103 35.4698 598.264 35.4698 598.428V599.931C35.4698 600.809 35.3599 601.682 35.1522 602.534C34.9474 602.634 34.7491 602.749 34.5672 602.891L31.5293 605.105C28.5409 607.454 27.5349 611.598 29.2543 614.988C29.9711 616.403 30.9647 617.616 32.1315 617.695C32.2392 617.703 32.3474 617.707 32.4573 617.707H40.9461C40.8388 617.528 40.7513 617.318 40.6819 617.094C40.7267 617.092 40.7716 617.093 40.8159 617.089C43.6276 616.9 45.444 615.151 44.8254 612.665V611.107H44.825Z" fill="#C7B6A1"/>
<path d="M48.7043 611.928C46.5617 611.928 44.825 611.56 44.825 611.107V612.832C44.8263 613.285 46.5625 613.652 48.7043 613.652C50.8461 613.652 52.5823 613.285 52.5836 612.832V611.107C52.5836 611.56 50.8474 611.928 48.7043 611.928Z" fill="#D19D18"/>
<path d="M52.5836 609.383C52.5836 609.836 50.847 610.203 48.7043 610.203C46.5617 610.203 44.825 609.836 44.825 609.383C44.825 608.93 46.5617 608.048 48.7043 608.048C50.8474 608.048 52.5836 608.93 52.5836 609.383Z" fill="#FCC62D"/>
<path d="M48.7043 610.203C46.5617 610.203 44.825 609.836 44.825 609.383V611.107C44.8263 611.56 46.5625 611.928 48.7043 611.928C50.8461 611.928 52.5823 611.56 52.5836 611.107V609.383C52.5836 609.836 50.8474 610.203 48.7043 610.203Z" fill="#E4AF18"/>
<path d="M40.9457 601.328H35.3422C35.1043 601.328 34.9112 601.134 34.9112 600.896C34.9112 600.659 35.1043 600.465 35.3422 600.465H40.9457C41.1836 600.465 41.3767 600.659 41.3767 600.896C41.3767 601.134 41.1836 601.328 40.9457 601.328Z" fill="#6B5B46"/>
<path d="M40.9457 600.034H35.3422C35.1043 600.034 34.9112 599.841 34.9112 599.603C34.9112 599.365 35.1043 599.172 35.3422 599.172H40.9457C41.1836 599.172 41.3767 599.365 41.3767 599.603C41.3767 599.841 41.1836 600.034 40.9457 600.034Z" fill="#6B5B46"/>
<path d="M40.9457 598.741H35.3422C35.1043 598.741 34.9112 598.548 34.9112 598.31C34.9112 598.072 35.1043 597.879 35.3422 597.879H40.9457C41.1836 597.879 41.3767 598.072 41.3767 598.31C41.3767 598.548 41.1836 598.741 40.9457 598.741Z" fill="#6B5B46"/>
<path d="M48.7043 617.1C47.8366 617.1 47.0384 617.039 46.3922 616.937C46.1944 617.531 45.8168 618.041 45.3246 618.406C45.9897 618.655 47.253 618.824 48.7043 618.824C50.8461 618.824 52.5823 618.457 52.5836 618.004V616.279C52.5836 616.733 50.8474 617.1 48.7043 617.1Z" fill="#E4AF18"/>
<path d="M48.7043 613.652C46.5617 613.652 44.825 613.285 44.825 612.831V613.26C45.6207 613.638 46.2224 614.353 46.4487 615.222C47.0845 615.319 47.8621 615.376 48.7043 615.376C50.8461 615.376 52.5823 615.009 52.5836 614.556V612.831C52.5836 613.285 50.8474 613.652 48.7043 613.652Z" fill="#E4AF18"/>
<path d="M48.7043 615.376C47.8621 615.376 47.0845 615.319 46.4487 615.222C46.5121 615.466 46.5491 615.719 46.5491 615.982C46.5491 616.316 46.4927 616.637 46.3922 616.938C47.0384 617.039 47.8366 617.1 48.7043 617.1C50.8461 617.1 52.5823 616.733 52.5836 616.28V614.555C52.5836 615.009 50.8474 615.376 48.7043 615.376Z" fill="#D19D18"/>
<path d="M46.5491 615.983C46.5491 617.649 45.1983 619 43.5319 619C41.8655 619 40.5147 617.649 40.5147 615.983C40.5147 614.316 41.8655 612.965 43.5319 612.965C45.1987 612.965 46.5491 614.316 46.5491 615.983Z" fill="#FCC62D"/>
<path d="M31.4629 611.672C31.225 611.672 31.0319 611.479 31.0319 611.241C31.0319 608.281 34.303 604.776 37.0664 604.776C37.3043 604.776 37.4974 604.969 37.4974 605.207C37.4974 605.445 37.3043 605.638 37.0664 605.638C34.7944 605.638 31.894 608.78 31.894 611.241C31.894 611.479 31.7009 611.672 31.4629 611.672Z" fill="#DBCCBA"/>
</g>
<g clip-path="url(#clip2)">
<path d="M122 607.001C122 600.925 117.075 596.001 111 596.001C104.925 596.001 100 600.925 100 607.001C100 613.076 104.925 618.001 111 618.001C117.075 618.001 122 613.076 122 607.001Z" fill="#25B7D3"/>
<path d="M113.978 611.943C113.917 611.853 113.799 611.821 113.7 611.868C112.61 612.384 111.373 612.929 111.13 612.977C111.124 612.971 111.115 612.961 111.102 612.944C111.069 612.899 111.053 612.841 111.053 612.766C111.053 612.149 111.518 610.274 112.436 607.192C113.21 604.602 113.299 604.066 113.299 603.888C113.299 603.613 113.194 603.38 112.995 603.216C112.806 603.06 112.541 602.981 112.209 602.981C111.657 602.981 111.017 603.191 110.252 603.622C109.511 604.04 108.684 604.749 107.795 605.728C107.726 605.804 107.719 605.919 107.778 606.004C107.837 606.089 107.948 606.121 108.043 606.082C108.355 605.955 109.924 605.312 110.152 605.169C110.339 605.051 110.501 604.992 110.634 604.992C110.638 604.992 110.643 604.992 110.646 604.992C110.648 605.001 110.649 605.014 110.649 605.034C110.649 605.169 110.621 605.329 110.567 605.508C109.23 609.838 108.581 612.492 108.581 613.622C108.581 614.021 108.692 614.343 108.91 614.577C109.133 614.816 109.434 614.937 109.804 614.937C110.198 614.937 110.678 614.773 111.271 614.434C111.844 614.106 112.72 613.385 113.947 612.229C114.027 612.155 114.04 612.033 113.978 611.943Z" fill="white"/>
<path d="M113.935 599.4C113.717 599.176 113.438 599.063 113.105 599.063C112.691 599.063 112.33 599.227 112.033 599.549C111.741 599.867 111.592 600.256 111.592 600.707C111.592 601.063 111.702 601.359 111.917 601.584C112.135 601.814 112.411 601.93 112.736 601.93C113.133 601.93 113.492 601.757 113.802 601.416C114.107 601.081 114.262 600.688 114.262 600.246C114.262 599.907 114.152 599.622 113.935 599.4Z" fill="white"/>
</g>
<path d="M185.217 612.564L183.869 613.912V616.652L185.217 618H192V612.564H185.217Z" fill="#737EE6"/>
<path d="M169 611.217V618H175.783L177.131 616.652V612.564L175.783 611.217H169Z" fill="#F27281"/>
<path d="M175.783 608.521H185.217V618H175.783V608.521Z" fill="#FDBF00"/>
<path d="M180.5 608.521H185.217V618H180.5V608.521Z" fill="#FF9100"/>
<path d="M183.195 601.783H182.843V600.436H183.195C184.31 600.436 185.217 599.484 185.217 598.369V597.695H183.195V596.348H186.564V598.369C186.564 600.227 185.053 601.783 183.195 601.783Z" fill="#FF9100"/>
<path d="M178.157 601.783H177.805C175.947 601.783 174.436 600.227 174.436 598.369V596.348H177.805V597.695H175.783V598.369C175.783 599.484 176.69 600.436 177.805 600.436H178.157V601.783Z" fill="#FDBF00"/>
<path d="M177.131 595V599.762C177.131 600.287 177.252 600.786 177.481 601.244C177.751 601.797 178.182 602.322 178.613 602.821C179.206 603.535 179.826 604.263 179.826 604.883V606.5H181.174V604.883C181.174 604.263 181.794 603.535 182.387 602.821C182.818 602.322 183.249 601.797 183.519 601.258C183.748 600.786 183.869 600.287 183.869 599.762V595H177.131Z" fill="#FFDA2D"/>
<path d="M181.174 606.5H180.5V595H183.869V599.762C183.869 600.287 183.748 600.786 183.519 601.258C183.249 601.797 182.818 602.322 182.387 602.821C181.794 603.535 181.174 604.263 181.174 604.883V606.5Z" fill="#FDBF00"/>
<path d="M190.307 608.716L187.777 607.387L185.249 608.716L185.732 605.901L183.687 603.907L186.513 603.496L187.777 600.934L189.041 603.496L191.914 603.907L189.822 605.901L190.307 608.716Z" fill="#FF9100"/>
<path d="M175.751 608.716L173.223 607.387L170.693 608.716L171.178 605.901L169.086 603.907L171.959 603.496L173.223 600.934L174.487 603.496L177.313 603.907L175.268 605.901L175.751 608.716Z" fill="#FDBF00"/>
<path d="M182.521 613.912V615.26H178.479V613.912H179.826V612.564H178.479V611.217H181.174V613.912H182.521Z" fill="#596C76"/>
<path d="M178.479 605.826H182.521V607.174H178.479V605.826Z" fill="#FDBF00"/>
<path d="M180.5 605.826H182.521V607.174H180.5V605.826Z" fill="#FF9100"/>
<path d="M181.174 613.912H182.521V615.26H180.5V611.217H181.174V613.912Z" fill="#465A61"/>
<path d="M241.381 619C240.291 619 239.399 618.108 239.399 617.017V607.897H243.364V617.017C243.364 618.108 242.472 619 241.381 619Z" fill="#CEC9AE"/>
<path d="M261.601 596H243.364V600.362H261.601V596Z" fill="#CEC9AE"/>
<path d="M243.364 609.879V612.655V617.017C243.364 618.108 242.472 619 241.381 619H243.364H245.743H259.623C260.716 619 261.601 618.114 261.601 617.021V601.155H243.364V609.879Z" fill="#EDEADA"/>
<path d="M261.601 600.362H243.364V601.155H261.601V600.362Z" fill="#F4F3ED"/>
<path d="M250.502 602.345H245.743V607.103H250.502V602.345Z" fill="#61B872"/>
<path d="M259.226 602.741H252.881C252.662 602.741 252.485 602.564 252.485 602.345C252.485 602.126 252.662 601.948 252.881 601.948H259.226C259.445 601.948 259.623 602.126 259.623 602.345C259.623 602.564 259.445 602.741 259.226 602.741Z" fill="#CEC9AE"/>
<path d="M259.226 605.121H252.881C252.662 605.121 252.485 604.943 252.485 604.724C252.485 604.505 252.662 604.328 252.881 604.328H259.226C259.445 604.328 259.623 604.505 259.623 604.724C259.623 604.943 259.445 605.121 259.226 605.121Z" fill="#CEC9AE"/>
<path d="M259.226 607.5H252.881C252.662 607.5 252.485 607.323 252.485 607.103C252.485 606.884 252.662 606.707 252.881 606.707H259.226C259.445 606.707 259.623 606.884 259.623 607.103C259.623 607.323 259.445 607.5 259.226 607.5Z" fill="#CEC9AE"/>
<path d="M259.226 609.879H246.14C245.921 609.879 245.743 609.702 245.743 609.483C245.743 609.263 245.921 609.086 246.14 609.086H259.226C259.445 609.086 259.623 609.263 259.623 609.483C259.623 609.702 259.445 609.879 259.226 609.879Z" fill="#CEC9AE"/>
<path d="M252.088 612.259H246.14C245.921 612.259 245.743 612.081 245.743 611.862C245.743 611.643 245.921 611.466 246.14 611.466H252.088C252.307 611.466 252.485 611.643 252.485 611.862C252.485 612.081 252.307 612.259 252.088 612.259Z" fill="#CEC9AE"/>
<path d="M252.088 614.638H246.14C245.921 614.638 245.743 614.461 245.743 614.241C245.743 614.022 245.921 613.845 246.14 613.845H252.088C252.307 613.845 252.485 614.022 252.485 614.241C252.485 614.461 252.307 614.638 252.088 614.638Z" fill="#CEC9AE"/>
<path d="M252.088 617.017H246.14C245.921 617.017 245.743 616.84 245.743 616.621C245.743 616.401 245.921 616.224 246.14 616.224H252.088C252.307 616.224 252.485 616.401 252.485 616.621C252.485 616.84 252.307 617.017 252.088 617.017Z" fill="#CEC9AE"/>
<path d="M259.226 611.862H254.467V616.621H259.226V611.862Z" fill="#F7B563"/>
<path d="M256.847 597.586H248.123V599.172H256.847V597.586Z" fill="#8E8872"/>
<path d="M316.726 612.248L313.444 614.038C313.251 614.143 313.078 614.272 312.917 614.413C314.831 616.027 317.301 617 320 617C322.679 617 325.133 616.041 327.042 614.45C326.866 614.301 326.675 614.167 326.463 614.062L322.948 612.305C322.494 612.078 322.207 611.614 322.207 611.106V609.727C322.306 609.615 322.419 609.47 322.54 609.3C323.019 608.623 323.381 607.879 323.632 607.098C324.083 606.959 324.415 606.543 324.415 606.048V604.576C324.415 604.252 324.271 603.963 324.048 603.76V601.632C324.048 601.632 324.485 598.321 320 598.321C315.516 598.321 315.953 601.632 315.953 601.632V603.76C315.729 603.963 315.585 604.252 315.585 604.576V606.048C315.585 606.435 315.789 606.777 316.094 606.974C316.462 608.575 317.425 609.727 317.425 609.727V611.072C317.425 611.562 317.157 612.013 316.726 612.248Z" fill="#E7ECED"/>
<path d="M320.188 595.002C314.114 594.898 309.105 599.738 309.002 605.812C308.943 609.256 310.478 612.351 312.922 614.41C313.082 614.27 313.253 614.142 313.444 614.039L316.726 612.248C317.156 612.013 317.424 611.562 317.424 611.072V609.727C317.424 609.727 316.461 608.574 316.094 606.973C315.789 606.776 315.585 606.435 315.585 606.047V604.575C315.585 604.252 315.729 603.962 315.952 603.76V601.632C315.952 601.632 315.515 598.321 320 598.321C324.484 598.321 324.047 601.632 324.047 601.632V603.76C324.271 603.962 324.415 604.252 324.415 604.575V606.047C324.415 606.542 324.082 606.958 323.632 607.097C323.381 607.878 323.018 608.623 322.539 609.299C322.418 609.47 322.305 609.614 322.207 609.727V611.106C322.207 611.613 322.494 612.078 322.948 612.304L326.462 614.062C326.673 614.167 326.864 614.3 327.039 614.448C329.409 612.472 330.941 609.516 330.998 606.188C331.102 600.114 326.263 595.105 320.188 595.002Z" fill="#556080"/>
<g filter="url(#filter1_d)">
<rect x="33" y="499" width="287" height="38" rx="10" fill="url(#paint2_linear)"/>
</g>
<path d="M117.554 520.372L116.337 521.637V525H115.024V515.047H116.337V519.969L120.76 515.047H122.346L118.429 519.442L122.653 525H121.081L117.554 520.372ZM126.495 525.137C125.493 525.137 124.677 524.809 124.048 524.152C123.419 523.492 123.104 522.61 123.104 521.507V521.274C123.104 520.541 123.243 519.887 123.521 519.312C123.804 518.734 124.196 518.283 124.697 517.959C125.203 517.631 125.75 517.467 126.338 517.467C127.299 517.467 128.047 517.784 128.58 518.417C129.113 519.05 129.38 519.957 129.38 521.138V521.664H124.369C124.387 522.393 124.599 522.983 125.005 523.435C125.415 523.881 125.935 524.104 126.563 524.104C127.01 524.104 127.388 524.013 127.698 523.831C128.008 523.649 128.279 523.407 128.512 523.106L129.284 523.708C128.664 524.66 127.735 525.137 126.495 525.137ZM126.338 518.506C125.827 518.506 125.399 518.693 125.053 519.066C124.706 519.436 124.492 519.955 124.41 520.625H128.115V520.529C128.079 519.887 127.906 519.39 127.596 519.039C127.286 518.684 126.867 518.506 126.338 518.506ZM132.565 515.812V517.604H133.946V518.581H132.565V523.168C132.565 523.464 132.627 523.688 132.75 523.838C132.873 523.984 133.083 524.057 133.379 524.057C133.525 524.057 133.725 524.029 133.98 523.975V525C133.648 525.091 133.324 525.137 133.01 525.137C132.445 525.137 132.019 524.966 131.731 524.624C131.444 524.282 131.301 523.797 131.301 523.168V518.581H129.954V517.604H131.301V515.812H132.565ZM138.499 525.137C137.496 525.137 136.681 524.809 136.052 524.152C135.423 523.492 135.108 522.61 135.108 521.507V521.274C135.108 520.541 135.247 519.887 135.525 519.312C135.808 518.734 136.2 518.283 136.701 517.959C137.207 517.631 137.754 517.467 138.342 517.467C139.303 517.467 140.051 517.784 140.584 518.417C141.117 519.05 141.384 519.957 141.384 521.138V521.664H136.373C136.391 522.393 136.603 522.983 137.009 523.435C137.419 523.881 137.938 524.104 138.567 524.104C139.014 524.104 139.392 524.013 139.702 523.831C140.012 523.649 140.283 523.407 140.516 523.106L141.288 523.708C140.668 524.66 139.739 525.137 138.499 525.137ZM138.342 518.506C137.831 518.506 137.403 518.693 137.057 519.066C136.71 519.436 136.496 519.955 136.414 520.625H140.119V520.529C140.083 519.887 139.91 519.39 139.6 519.039C139.29 518.684 138.87 518.506 138.342 518.506ZM144.05 517.604L144.091 518.533C144.656 517.822 145.394 517.467 146.306 517.467C147.869 517.467 148.657 518.349 148.671 520.112V525H147.406V520.105C147.402 519.572 147.279 519.178 147.037 518.923C146.8 518.668 146.429 518.54 145.923 518.54C145.513 518.54 145.153 518.649 144.843 518.868C144.533 519.087 144.291 519.374 144.118 519.729V525H142.854V517.604H144.05ZM152.294 515.812V517.604H153.675V518.581H152.294V523.168C152.294 523.464 152.355 523.688 152.479 523.838C152.602 523.984 152.811 524.057 153.107 524.057C153.253 524.057 153.454 524.029 153.709 523.975V525C153.376 525.091 153.053 525.137 152.738 525.137C152.173 525.137 151.747 524.966 151.46 524.624C151.173 524.282 151.029 523.797 151.029 523.168V518.581H149.683V517.604H151.029V515.812H152.294ZM159.725 524.269C159.232 524.847 158.51 525.137 157.558 525.137C156.769 525.137 156.168 524.909 155.753 524.453C155.343 523.993 155.135 523.314 155.131 522.416V517.604H156.396V522.382C156.396 523.503 156.851 524.063 157.763 524.063C158.729 524.063 159.371 523.703 159.69 522.983V517.604H160.955V525H159.752L159.725 524.269ZM167.449 525C167.376 524.854 167.317 524.594 167.271 524.221C166.684 524.831 165.982 525.137 165.166 525.137C164.437 525.137 163.838 524.932 163.368 524.521C162.903 524.107 162.671 523.583 162.671 522.949C162.671 522.179 162.963 521.582 163.546 521.158C164.134 520.73 164.959 520.516 166.021 520.516H167.251V519.935C167.251 519.493 167.119 519.142 166.854 518.882C166.59 518.618 166.201 518.485 165.686 518.485C165.234 518.485 164.856 518.599 164.551 518.827C164.245 519.055 164.093 519.331 164.093 519.654H162.821C162.821 519.285 162.951 518.93 163.211 518.588C163.475 518.242 163.831 517.968 164.277 517.768C164.729 517.567 165.223 517.467 165.761 517.467C166.613 517.467 167.281 517.681 167.764 518.109C168.247 518.533 168.497 519.119 168.516 519.866V523.271C168.516 523.95 168.602 524.49 168.775 524.891V525H167.449ZM165.351 524.036C165.747 524.036 166.123 523.934 166.479 523.729C166.834 523.523 167.091 523.257 167.251 522.929V521.411H166.26C164.71 521.411 163.936 521.865 163.936 522.771C163.936 523.168 164.068 523.478 164.332 523.701C164.596 523.924 164.936 524.036 165.351 524.036ZM171.694 517.604L171.735 518.533C172.3 517.822 173.039 517.467 173.95 517.467C175.513 517.467 176.302 518.349 176.315 520.112V525H175.051V520.105C175.046 519.572 174.923 519.178 174.682 518.923C174.445 518.668 174.073 518.54 173.567 518.54C173.157 518.54 172.797 518.649 172.487 518.868C172.177 519.087 171.936 519.374 171.763 519.729V525H170.498V517.604H171.694ZM184.826 520.563C183.701 520.24 182.88 519.843 182.365 519.374C181.855 518.9 181.6 518.317 181.6 517.624C181.6 516.84 181.912 516.193 182.536 515.683C183.165 515.168 183.981 514.91 184.983 514.91C185.667 514.91 186.275 515.042 186.809 515.307C187.346 515.571 187.761 515.936 188.053 516.4C188.349 516.865 188.497 517.373 188.497 517.925H187.178C187.178 517.323 186.986 516.852 186.604 516.51C186.221 516.163 185.681 515.99 184.983 515.99C184.336 515.99 183.83 516.134 183.466 516.421C183.106 516.703 182.926 517.098 182.926 517.604C182.926 518.009 183.097 518.353 183.438 518.636C183.785 518.914 184.37 519.169 185.195 519.401C186.025 519.634 186.672 519.891 187.137 520.174C187.606 520.452 187.952 520.778 188.176 521.151C188.404 521.525 188.518 521.965 188.518 522.471C188.518 523.277 188.203 523.924 187.574 524.412C186.945 524.895 186.104 525.137 185.052 525.137C184.368 525.137 183.73 525.007 183.138 524.747C182.545 524.483 182.087 524.123 181.764 523.667C181.445 523.211 181.285 522.694 181.285 522.115H182.604C182.604 522.717 182.826 523.193 183.268 523.544C183.714 523.89 184.309 524.063 185.052 524.063C185.744 524.063 186.275 523.922 186.645 523.64C187.014 523.357 187.198 522.972 187.198 522.484C187.198 521.997 187.027 521.621 186.686 521.356C186.344 521.088 185.724 520.823 184.826 520.563ZM194.574 525C194.501 524.854 194.442 524.594 194.396 524.221C193.809 524.831 193.107 525.137 192.291 525.137C191.562 525.137 190.963 524.932 190.493 524.521C190.028 524.107 189.796 523.583 189.796 522.949C189.796 522.179 190.088 521.582 190.671 521.158C191.259 520.73 192.084 520.516 193.146 520.516H194.376V519.935C194.376 519.493 194.244 519.142 193.979 518.882C193.715 518.618 193.326 518.485 192.811 518.485C192.359 518.485 191.981 518.599 191.676 518.827C191.37 519.055 191.218 519.331 191.218 519.654H189.946C189.946 519.285 190.076 518.93 190.336 518.588C190.6 518.242 190.956 517.968 191.402 517.768C191.854 517.567 192.348 517.467 192.886 517.467C193.738 517.467 194.406 517.681 194.889 518.109C195.372 518.533 195.622 519.119 195.641 519.866V523.271C195.641 523.95 195.727 524.49 195.9 524.891V525H194.574ZM192.476 524.036C192.872 524.036 193.248 523.934 193.604 523.729C193.959 523.523 194.216 523.257 194.376 522.929V521.411H193.385C191.835 521.411 191.061 521.865 191.061 522.771C191.061 523.168 191.193 523.478 191.457 523.701C191.721 523.924 192.061 524.036 192.476 524.036ZM198.812 517.604L198.847 518.424C199.389 517.786 200.12 517.467 201.041 517.467C202.076 517.467 202.78 517.863 203.153 518.656C203.399 518.301 203.718 518.014 204.11 517.795C204.507 517.576 204.974 517.467 205.512 517.467C207.134 517.467 207.959 518.326 207.986 520.044V525H206.722V520.119C206.722 519.59 206.601 519.196 206.359 518.937C206.118 518.672 205.712 518.54 205.143 518.54C204.673 518.54 204.284 518.681 203.974 518.964C203.664 519.242 203.484 519.618 203.434 520.092V525H202.162V520.153C202.162 519.078 201.636 518.54 200.583 518.54C199.754 518.54 199.186 518.893 198.881 519.6V525H197.616V517.604H198.812ZM216.148 521.384C216.148 522.509 215.891 523.416 215.376 524.104C214.861 524.793 214.164 525.137 213.284 525.137C212.386 525.137 211.68 524.852 211.165 524.282V527.844H209.9V517.604H211.056L211.117 518.424C211.632 517.786 212.348 517.467 213.264 517.467C214.152 517.467 214.854 517.802 215.369 518.472C215.889 519.142 216.148 520.074 216.148 521.268V521.384ZM214.884 521.24C214.884 520.406 214.706 519.748 214.351 519.265C213.995 518.782 213.507 518.54 212.888 518.54C212.122 518.54 211.548 518.88 211.165 519.559V523.093C211.543 523.767 212.122 524.104 212.901 524.104C213.507 524.104 213.988 523.865 214.344 523.387C214.704 522.904 214.884 522.188 214.884 521.24ZM222.328 525C222.255 524.854 222.196 524.594 222.15 524.221C221.562 524.831 220.861 525.137 220.045 525.137C219.316 525.137 218.716 524.932 218.247 524.521C217.782 524.107 217.55 523.583 217.55 522.949C217.55 522.179 217.841 521.582 218.425 521.158C219.013 520.73 219.838 520.516 220.899 520.516H222.13V519.935C222.13 519.493 221.998 519.142 221.733 518.882C221.469 518.618 221.079 518.485 220.564 518.485C220.113 518.485 219.735 518.599 219.43 518.827C219.124 519.055 218.972 519.331 218.972 519.654H217.7C217.7 519.285 217.83 518.93 218.09 518.588C218.354 518.242 218.71 517.968 219.156 517.768C219.607 517.567 220.102 517.467 220.64 517.467C221.492 517.467 222.16 517.681 222.643 518.109C223.126 518.533 223.376 519.119 223.395 519.866V523.271C223.395 523.95 223.481 524.49 223.654 524.891V525H222.328ZM220.229 524.036C220.626 524.036 221.002 523.934 221.357 523.729C221.713 523.523 221.97 523.257 222.13 522.929V521.411H221.139C219.589 521.411 218.814 521.865 218.814 522.771C218.814 523.168 218.947 523.478 219.211 523.701C219.475 523.924 219.815 524.036 220.229 524.036ZM226.642 518.499C227.202 517.811 227.931 517.467 228.829 517.467C230.392 517.467 231.181 518.349 231.194 520.112V525H229.93V520.105C229.925 519.572 229.802 519.178 229.561 518.923C229.324 518.668 228.952 518.54 228.446 518.54C228.036 518.54 227.676 518.649 227.366 518.868C227.056 519.087 226.815 519.374 226.642 519.729V525H225.377V514.5H226.642V518.499Z" fill="#6A9923"/>
<g filter="url(#filter2_d)">
<rect x="33" y="543" width="287" height="38" rx="10" fill="url(#paint3_linear)"/>
</g>
<path d="M122.291 565.842C122.168 566.895 121.778 567.708 121.122 568.282C120.47 568.852 119.602 569.137 118.518 569.137C117.342 569.137 116.398 568.715 115.688 567.872C114.981 567.029 114.628 565.901 114.628 564.488V563.531C114.628 562.606 114.792 561.793 115.12 561.091C115.453 560.389 115.922 559.851 116.528 559.478C117.134 559.099 117.836 558.91 118.634 558.91C119.691 558.91 120.539 559.206 121.177 559.799C121.815 560.387 122.186 561.202 122.291 562.246H120.972C120.858 561.453 120.609 560.879 120.227 560.523C119.848 560.168 119.317 559.99 118.634 559.99C117.795 559.99 117.137 560.3 116.658 560.92C116.184 561.54 115.947 562.422 115.947 563.565V564.529C115.947 565.609 116.173 566.468 116.624 567.106C117.075 567.744 117.706 568.063 118.518 568.063C119.247 568.063 119.805 567.899 120.192 567.571C120.584 567.239 120.844 566.662 120.972 565.842H122.291ZM128.457 569C128.384 568.854 128.325 568.594 128.279 568.221C127.691 568.831 126.99 569.137 126.174 569.137C125.445 569.137 124.845 568.932 124.376 568.521C123.911 568.107 123.679 567.583 123.679 566.949C123.679 566.179 123.97 565.582 124.554 565.158C125.142 564.73 125.966 564.516 127.028 564.516H128.259V563.935C128.259 563.493 128.127 563.142 127.862 562.882C127.598 562.618 127.208 562.485 126.693 562.485C126.242 562.485 125.864 562.599 125.559 562.827C125.253 563.055 125.101 563.331 125.101 563.654H123.829C123.829 563.285 123.959 562.93 124.219 562.588C124.483 562.242 124.839 561.968 125.285 561.768C125.736 561.567 126.231 561.467 126.769 561.467C127.621 561.467 128.288 561.681 128.771 562.109C129.255 562.533 129.505 563.119 129.523 563.866V567.271C129.523 567.95 129.61 568.49 129.783 568.891V569H128.457ZM126.358 568.036C126.755 568.036 127.131 567.934 127.486 567.729C127.842 567.523 128.099 567.257 128.259 566.929V565.411H127.268C125.718 565.411 124.943 565.865 124.943 566.771C124.943 567.168 125.076 567.478 125.34 567.701C125.604 567.924 125.944 568.036 126.358 568.036ZM135.081 562.738C134.89 562.706 134.682 562.69 134.459 562.69C133.63 562.69 133.067 563.044 132.771 563.75V569H131.506V561.604H132.736L132.757 562.458C133.172 561.797 133.759 561.467 134.521 561.467C134.767 561.467 134.953 561.499 135.081 561.562V562.738ZM140.543 569C140.47 568.854 140.411 568.594 140.365 568.221C139.777 568.831 139.076 569.137 138.26 569.137C137.531 569.137 136.931 568.932 136.462 568.521C135.997 568.107 135.765 567.583 135.765 566.949C135.765 566.179 136.056 565.582 136.64 565.158C137.228 564.73 138.052 564.516 139.114 564.516H140.345V563.935C140.345 563.493 140.213 563.142 139.948 562.882C139.684 562.618 139.294 562.485 138.779 562.485C138.328 562.485 137.95 562.599 137.645 562.827C137.339 563.055 137.187 563.331 137.187 563.654H135.915C135.915 563.285 136.045 562.93 136.305 562.588C136.569 562.242 136.924 561.968 137.371 561.768C137.822 561.567 138.317 561.467 138.854 561.467C139.707 561.467 140.374 561.681 140.857 562.109C141.34 562.533 141.591 563.119 141.609 563.866V567.271C141.609 567.95 141.696 568.49 141.869 568.891V569H140.543ZM138.444 568.036C138.841 568.036 139.217 567.934 139.572 567.729C139.928 567.523 140.185 567.257 140.345 566.929V565.411H139.354C137.804 565.411 137.029 565.865 137.029 566.771C137.029 567.168 137.161 567.478 137.426 567.701C137.69 567.924 138.03 568.036 138.444 568.036ZM148.575 565.104V569H147.263V559.047H150.934C152.023 559.047 152.875 559.325 153.49 559.881C154.11 560.437 154.42 561.173 154.42 562.089C154.42 563.055 154.117 563.8 153.511 564.324C152.909 564.844 152.046 565.104 150.92 565.104H148.575ZM148.575 564.03H150.934C151.635 564.03 152.173 563.866 152.547 563.538C152.921 563.205 153.107 562.727 153.107 562.103C153.107 561.51 152.921 561.036 152.547 560.681C152.173 560.325 151.66 560.141 151.009 560.127H148.575V564.03ZM158.87 569.137C157.868 569.137 157.052 568.809 156.423 568.152C155.794 567.492 155.479 566.61 155.479 565.507V565.274C155.479 564.541 155.618 563.887 155.896 563.312C156.179 562.734 156.571 562.283 157.072 561.959C157.578 561.631 158.125 561.467 158.713 561.467C159.674 561.467 160.422 561.784 160.955 562.417C161.488 563.05 161.755 563.957 161.755 565.138V565.664H156.744C156.762 566.393 156.974 566.983 157.38 567.435C157.79 567.881 158.31 568.104 158.938 568.104C159.385 568.104 159.763 568.013 160.073 567.831C160.383 567.649 160.654 567.407 160.887 567.106L161.659 567.708C161.039 568.66 160.11 569.137 158.87 569.137ZM158.713 562.506C158.202 562.506 157.774 562.693 157.428 563.066C157.081 563.436 156.867 563.955 156.785 564.625H160.49V564.529C160.454 563.887 160.281 563.39 159.971 563.039C159.661 562.684 159.242 562.506 158.713 562.506ZM164.421 561.604L164.462 562.533C165.027 561.822 165.765 561.467 166.677 561.467C168.24 561.467 169.028 562.349 169.042 564.112V569H167.777V564.105C167.773 563.572 167.65 563.178 167.408 562.923C167.171 562.668 166.8 562.54 166.294 562.54C165.884 562.54 165.524 562.649 165.214 562.868C164.904 563.087 164.662 563.374 164.489 563.729V569H163.225V561.604H164.421ZM170.648 565.24C170.648 564.087 170.915 563.171 171.448 562.492C171.981 561.809 172.688 561.467 173.567 561.467C174.47 561.467 175.174 561.786 175.68 562.424L175.741 561.604H176.896V568.822C176.896 569.779 176.612 570.534 176.042 571.085C175.477 571.636 174.716 571.912 173.759 571.912C173.226 571.912 172.704 571.798 172.193 571.57C171.683 571.342 171.293 571.03 171.024 570.634L171.681 569.875C172.223 570.545 172.886 570.88 173.67 570.88C174.285 570.88 174.764 570.707 175.105 570.36C175.452 570.014 175.625 569.526 175.625 568.897V568.262C175.119 568.845 174.429 569.137 173.554 569.137C172.688 569.137 171.986 568.788 171.448 568.091C170.915 567.394 170.648 566.443 170.648 565.24ZM171.92 565.384C171.92 566.218 172.091 566.874 172.433 567.353C172.774 567.826 173.253 568.063 173.868 568.063C174.666 568.063 175.251 567.701 175.625 566.977V563.6C175.238 562.893 174.657 562.54 173.882 562.54C173.267 562.54 172.786 562.779 172.439 563.258C172.093 563.736 171.92 564.445 171.92 565.384ZM183.377 568.269C182.885 568.847 182.162 569.137 181.21 569.137C180.422 569.137 179.82 568.909 179.405 568.453C178.995 567.993 178.788 567.314 178.783 566.416V561.604H180.048V566.382C180.048 567.503 180.504 568.063 181.415 568.063C182.381 568.063 183.024 567.703 183.343 566.983V561.604H184.607V569H183.404L183.377 568.269ZM187.725 561.604L187.759 562.424C188.301 561.786 189.033 561.467 189.953 561.467C190.988 561.467 191.692 561.863 192.065 562.656C192.312 562.301 192.631 562.014 193.022 561.795C193.419 561.576 193.886 561.467 194.424 561.467C196.046 561.467 196.871 562.326 196.898 564.044V569H195.634V564.119C195.634 563.59 195.513 563.196 195.271 562.937C195.03 562.672 194.624 562.54 194.055 562.54C193.585 562.54 193.196 562.681 192.886 562.964C192.576 563.242 192.396 563.618 192.346 564.092V569H191.074V564.153C191.074 563.078 190.548 562.54 189.495 562.54C188.666 562.54 188.098 562.893 187.793 563.6V569H186.528V561.604H187.725ZM205.061 565.384C205.061 566.509 204.803 567.416 204.288 568.104C203.773 568.793 203.076 569.137 202.196 569.137C201.299 569.137 200.592 568.852 200.077 568.282V571.844H198.812V561.604H199.968L200.029 562.424C200.544 561.786 201.26 561.467 202.176 561.467C203.064 561.467 203.766 561.802 204.281 562.472C204.801 563.142 205.061 564.074 205.061 565.268V565.384ZM203.796 565.24C203.796 564.406 203.618 563.748 203.263 563.265C202.907 562.782 202.42 562.54 201.8 562.54C201.034 562.54 200.46 562.88 200.077 563.559V567.093C200.455 567.767 201.034 568.104 201.813 568.104C202.42 568.104 202.9 567.865 203.256 567.387C203.616 566.904 203.796 566.188 203.796 565.24ZM211.24 568.269C210.748 568.847 210.026 569.137 209.073 569.137C208.285 569.137 207.683 568.909 207.269 568.453C206.858 567.993 206.651 567.314 206.646 566.416V561.604H207.911V566.382C207.911 567.503 208.367 568.063 209.278 568.063C210.244 568.063 210.887 567.703 211.206 566.983V561.604H212.471V569H211.268L211.24 568.269ZM215.772 569H214.508V558.5H215.772V569ZM222.369 569C222.296 568.854 222.237 568.594 222.191 568.221C221.604 568.831 220.902 569.137 220.086 569.137C219.357 569.137 218.757 568.932 218.288 568.521C217.823 568.107 217.591 567.583 217.591 566.949C217.591 566.179 217.882 565.582 218.466 565.158C219.054 564.73 219.879 564.516 220.94 564.516H222.171V563.935C222.171 563.493 222.039 563.142 221.774 562.882C221.51 562.618 221.12 562.485 220.605 562.485C220.154 562.485 219.776 562.599 219.471 562.827C219.165 563.055 219.013 563.331 219.013 563.654H217.741C217.741 563.285 217.871 562.93 218.131 562.588C218.395 562.242 218.751 561.968 219.197 561.768C219.648 561.567 220.143 561.467 220.681 561.467C221.533 561.467 222.201 561.681 222.684 562.109C223.167 562.533 223.417 563.119 223.436 563.866V567.271C223.436 567.95 223.522 568.49 223.695 568.891V569H222.369ZM220.271 568.036C220.667 568.036 221.043 567.934 221.398 567.729C221.754 567.523 222.011 567.257 222.171 566.929V565.411H221.18C219.63 565.411 218.855 565.865 218.855 566.771C218.855 567.168 218.988 567.478 219.252 567.701C219.516 567.924 219.856 568.036 220.271 568.036ZM226.614 561.604L226.655 562.533C227.22 561.822 227.959 561.467 228.87 561.467C230.433 561.467 231.222 562.349 231.235 564.112V569H229.971V564.105C229.966 563.572 229.843 563.178 229.602 562.923C229.365 562.668 228.993 562.54 228.487 562.54C228.077 562.54 227.717 562.649 227.407 562.868C227.097 563.087 226.856 563.374 226.683 563.729V569H225.418V561.604H226.614Z" fill="#6A9923"/>
</g>
<defs>
<filter id="filter0_d" x="29" y="31" width="295" height="465" filterUnits="userSpaceOnUse" color-interpolation-filters="sRGB">
<feFlood flood-opacity="0" result="BackgroundImageFix"/>
<feColorMatrix in="SourceAlpha" type="matrix" values="0 0 0 0 0 0 0 0 0 0 0 0 0 0 0 0 0 0 127 0"/>
<feOffset dy="4"/>
<feGaussianBlur stdDeviation="2"/>
<feColorMatrix type="matrix" values="0 0 0 0 0 0 0 0 0 0 0 0 0 0 0 0 0 0 0.2 0"/>
<feBlend mode="normal" in2="BackgroundImageFix" result="effect1_dropShadow"/>
<feBlend mode="normal" in="SourceGraphic" in2="effect1_dropShadow" result="shape"/>
</filter>
<filter id="filter1_d" x="29" y="499" width="295" height="46" filterUnits="userSpaceOnUse" color-interpolation-filters="sRGB">
<feFlood flood-opacity="0" result="BackgroundImageFix"/>
<feColorMatrix in="SourceAlpha" type="matrix" values="0 0 0 0 0 0 0 0 0 0 0 0 0 0 0 0 0 0 127 0"/>
<feOffset dy="4"/>
<feGaussianBlur stdDeviation="2"/>
<feColorMatrix type="matrix" values="0 0 0 0 0 0 0 0 0 0 0 0 0 0 0 0 0 0 0.25 0"/>
<feBlend mode="normal" in2="BackgroundImageFix" result="effect1_dropShadow"/>
<feBlend mode="normal" in="SourceGraphic" in2="effect1_dropShadow" result="shape"/>
</filter>
<filter id="filter2_d" x="29" y="543" width="295" height="46" filterUnits="userSpaceOnUse" color-interpolation-filters="sRGB">
<feFlood flood-opacity="0" result="BackgroundImageFix"/>
<feColorMatrix in="SourceAlpha" type="matrix" values="0 0 0 0 0 0 0 0 0 0 0 0 0 0 0 0 0 0 127 0"/>
<feOffset dy="4"/>
<feGaussianBlur stdDeviation="2"/>
<feColorMatrix type="matrix" values="0 0 0 0 0 0 0 0 0 0 0 0 0 0 0 0 0 0 0.25 0"/>
<feBlend mode="normal" in2="BackgroundImageFix" result="effect1_dropShadow"/>
<feBlend mode="normal" in="SourceGraphic" in2="effect1_dropShadow" result="shape"/>
</filter>
<linearGradient id="paint0_linear" x1="258" y1="-230" x2="258" y2="344" gradientUnits="userSpaceOnUse">
<stop stop-color="white"/>
<stop offset="1" stop-color="#EDEDED"/>
</linearGradient>
<linearGradient id="paint1_linear" x1="176.5" y1="31" x2="176.5" y2="488" gradientUnits="userSpaceOnUse">
<stop stop-color="white"/>
<stop offset="1" stop-color="#EDEDED"/>
</linearGradient>
<linearGradient id="paint2_linear" x1="176.5" y1="499" x2="176.5" y2="537" gradientUnits="userSpaceOnUse">
<stop stop-color="white"/>
<stop offset="1" stop-color="#DADADA"/>
</linearGradient>
<linearGradient id="paint3_linear" x1="176.5" y1="543" x2="176.5" y2="581" gradientUnits="userSpaceOnUse">
<stop stop-color="white"/>
<stop offset="1" stop-color="#DADADA"/>
</linearGradient>
<clipPath id="clip0">
<rect width="360" height="640" fill="white"/>
</clipPath>
<clipPath id="clip1">
<rect width="25" height="25" fill="white" transform="translate(28 594)"/>
</clipPath>
<clipPath id="clip2">
<rect width="22" height="22" fill="white" transform="translate(100 596)"/>
</clipPath>
</defs>
</svg>
