<svg width="360" height="640" viewBox="0 0 360 640" fill="none" xmlns="http://www.w3.org/2000/svg">
<rect width="360" height="640" fill="white"/>
<rect x="49.5" y="244.5" width="262" height="37" rx="9.5" fill="#F9F9F9" stroke="#C4C4C4"/>
<rect x="49.5" y="298.5" width="262" height="37" rx="9.5" fill="#F9F9F9" stroke="#C4C4C4"/>
<g filter="url(#filter0_d)">
<rect x="49" y="379" width="263" height="38" rx="10" fill="url(#paint0_linear)"/>
</g>
<path d="M171.459 263.057H167.762V266.08H172.057V267H166.637V258.469H171.998V259.395H167.762V262.137H171.459V263.057ZM174.307 260.66L174.336 261.363C174.801 260.816 175.428 260.543 176.217 260.543C177.104 260.543 177.707 260.883 178.027 261.562C178.238 261.258 178.512 261.012 178.848 260.824C179.188 260.637 179.588 260.543 180.049 260.543C181.439 260.543 182.146 261.279 182.17 262.752V267H181.086V262.816C181.086 262.363 180.982 262.025 180.775 261.803C180.568 261.576 180.221 261.463 179.732 261.463C179.33 261.463 178.996 261.584 178.73 261.826C178.465 262.064 178.311 262.387 178.268 262.793V267H177.178V262.846C177.178 261.924 176.727 261.463 175.824 261.463C175.113 261.463 174.627 261.766 174.365 262.371V267H173.281V260.66H174.307ZM187.725 267C187.662 266.875 187.611 266.652 187.572 266.332C187.068 266.855 186.467 267.117 185.768 267.117C185.143 267.117 184.629 266.941 184.227 266.59C183.828 266.234 183.629 265.785 183.629 265.242C183.629 264.582 183.879 264.07 184.379 263.707C184.883 263.34 185.59 263.156 186.5 263.156H187.555V262.658C187.555 262.279 187.441 261.979 187.215 261.756C186.988 261.529 186.654 261.416 186.213 261.416C185.826 261.416 185.502 261.514 185.24 261.709C184.979 261.904 184.848 262.141 184.848 262.418H183.758C183.758 262.102 183.869 261.797 184.092 261.504C184.318 261.207 184.623 260.973 185.006 260.801C185.393 260.629 185.816 260.543 186.277 260.543C187.008 260.543 187.58 260.727 187.994 261.094C188.408 261.457 188.623 261.959 188.639 262.6V265.518C188.639 266.1 188.713 266.562 188.861 266.906V267H187.725ZM185.926 266.174C186.266 266.174 186.588 266.086 186.893 265.91C187.197 265.734 187.418 265.506 187.555 265.225V263.924H186.705C185.377 263.924 184.713 264.312 184.713 265.09C184.713 265.43 184.826 265.695 185.053 265.887C185.279 266.078 185.57 266.174 185.926 266.174ZM191.516 267H190.432V260.66H191.516V267ZM190.344 258.979C190.344 258.803 190.396 258.654 190.502 258.533C190.611 258.412 190.771 258.352 190.982 258.352C191.193 258.352 191.354 258.412 191.463 258.533C191.572 258.654 191.627 258.803 191.627 258.979C191.627 259.154 191.572 259.301 191.463 259.418C191.354 259.535 191.193 259.594 190.982 259.594C190.771 259.594 190.611 259.535 190.502 259.418C190.396 259.301 190.344 259.154 190.344 258.979ZM194.434 267H193.35V258H194.434V267Z" fill="#6A9923"/>
<path d="M156.119 318.66V322H154.994V313.469H158.141C159.074 313.469 159.805 313.707 160.332 314.184C160.863 314.66 161.129 315.291 161.129 316.076C161.129 316.904 160.869 317.543 160.35 317.992C159.834 318.438 159.094 318.66 158.129 318.66H156.119ZM156.119 317.74H158.141C158.742 317.74 159.203 317.6 159.523 317.318C159.844 317.033 160.004 316.623 160.004 316.088C160.004 315.58 159.844 315.174 159.523 314.869C159.203 314.564 158.764 314.406 158.205 314.395H156.119V317.74ZM166.238 322C166.176 321.875 166.125 321.652 166.086 321.332C165.582 321.855 164.98 322.117 164.281 322.117C163.656 322.117 163.143 321.941 162.74 321.59C162.342 321.234 162.143 320.785 162.143 320.242C162.143 319.582 162.393 319.07 162.893 318.707C163.396 318.34 164.104 318.156 165.014 318.156H166.068V317.658C166.068 317.279 165.955 316.979 165.729 316.756C165.502 316.529 165.168 316.416 164.727 316.416C164.34 316.416 164.016 316.514 163.754 316.709C163.492 316.904 163.361 317.141 163.361 317.418H162.271C162.271 317.102 162.383 316.797 162.605 316.504C162.832 316.207 163.137 315.973 163.52 315.801C163.906 315.629 164.33 315.543 164.791 315.543C165.521 315.543 166.094 315.727 166.508 316.094C166.922 316.457 167.137 316.959 167.152 317.6V320.518C167.152 321.1 167.227 321.562 167.375 321.906V322H166.238ZM164.439 321.174C164.779 321.174 165.102 321.086 165.406 320.91C165.711 320.734 165.932 320.506 166.068 320.225V318.924H165.219C163.891 318.924 163.227 319.312 163.227 320.09C163.227 320.43 163.34 320.695 163.566 320.887C163.793 321.078 164.084 321.174 164.439 321.174ZM172.543 320.318C172.543 320.025 172.432 319.799 172.209 319.639C171.99 319.475 171.605 319.334 171.055 319.217C170.508 319.1 170.072 318.959 169.748 318.795C169.428 318.631 169.189 318.436 169.033 318.209C168.881 317.982 168.805 317.713 168.805 317.4C168.805 316.881 169.023 316.441 169.461 316.082C169.902 315.723 170.465 315.543 171.148 315.543C171.867 315.543 172.449 315.729 172.895 316.1C173.344 316.471 173.568 316.945 173.568 317.523H172.479C172.479 317.227 172.352 316.971 172.098 316.756C171.848 316.541 171.531 316.434 171.148 316.434C170.754 316.434 170.445 316.52 170.223 316.691C170 316.863 169.889 317.088 169.889 317.365C169.889 317.627 169.992 317.824 170.199 317.957C170.406 318.09 170.779 318.217 171.318 318.338C171.861 318.459 172.301 318.604 172.637 318.771C172.973 318.939 173.221 319.143 173.381 319.381C173.545 319.615 173.627 319.902 173.627 320.242C173.627 320.809 173.4 321.264 172.947 321.607C172.494 321.947 171.906 322.117 171.184 322.117C170.676 322.117 170.227 322.027 169.836 321.848C169.445 321.668 169.139 321.418 168.916 321.098C168.697 320.773 168.588 320.424 168.588 320.049H169.672C169.691 320.412 169.836 320.701 170.105 320.916C170.379 321.127 170.738 321.232 171.184 321.232C171.594 321.232 171.922 321.15 172.168 320.986C172.418 320.818 172.543 320.596 172.543 320.318ZM178.73 320.318C178.73 320.025 178.619 319.799 178.396 319.639C178.178 319.475 177.793 319.334 177.242 319.217C176.695 319.1 176.26 318.959 175.936 318.795C175.615 318.631 175.377 318.436 175.221 318.209C175.068 317.982 174.992 317.713 174.992 317.4C174.992 316.881 175.211 316.441 175.648 316.082C176.09 315.723 176.652 315.543 177.336 315.543C178.055 315.543 178.637 315.729 179.082 316.1C179.531 316.471 179.756 316.945 179.756 317.523H178.666C178.666 317.227 178.539 316.971 178.285 316.756C178.035 316.541 177.719 316.434 177.336 316.434C176.941 316.434 176.633 316.52 176.41 316.691C176.188 316.863 176.076 317.088 176.076 317.365C176.076 317.627 176.18 317.824 176.387 317.957C176.594 318.09 176.967 318.217 177.506 318.338C178.049 318.459 178.488 318.604 178.824 318.771C179.16 318.939 179.408 319.143 179.568 319.381C179.732 319.615 179.814 319.902 179.814 320.242C179.814 320.809 179.588 321.264 179.135 321.607C178.682 321.947 178.094 322.117 177.371 322.117C176.863 322.117 176.414 322.027 176.023 321.848C175.633 321.668 175.326 321.418 175.104 321.098C174.885 320.773 174.775 320.424 174.775 320.049H175.859C175.879 320.412 176.023 320.701 176.293 320.916C176.566 321.127 176.926 321.232 177.371 321.232C177.781 321.232 178.109 321.15 178.355 320.986C178.605 320.818 178.73 320.596 178.73 320.318ZM186.84 320.506L188.059 315.66H189.143L187.297 322H186.418L184.877 317.195L183.377 322H182.498L180.658 315.66H181.736L182.984 320.406L184.461 315.66H185.334L186.84 320.506ZM189.963 318.771C189.963 318.15 190.084 317.592 190.326 317.096C190.572 316.6 190.912 316.217 191.346 315.947C191.783 315.678 192.281 315.543 192.84 315.543C193.703 315.543 194.4 315.842 194.932 316.439C195.467 317.037 195.734 317.832 195.734 318.824V318.9C195.734 319.518 195.615 320.072 195.377 320.564C195.143 321.053 194.805 321.434 194.363 321.707C193.926 321.98 193.422 322.117 192.852 322.117C191.992 322.117 191.295 321.818 190.76 321.221C190.229 320.623 189.963 319.832 189.963 318.848V318.771ZM191.053 318.9C191.053 319.604 191.215 320.168 191.539 320.594C191.867 321.02 192.305 321.232 192.852 321.232C193.402 321.232 193.84 321.018 194.164 320.588C194.488 320.154 194.65 319.549 194.65 318.771C194.65 318.076 194.484 317.514 194.152 317.084C193.824 316.65 193.387 316.434 192.84 316.434C192.305 316.434 191.873 316.646 191.545 317.072C191.217 317.498 191.053 318.107 191.053 318.9ZM200.158 316.633C199.994 316.605 199.816 316.592 199.625 316.592C198.914 316.592 198.432 316.895 198.178 317.5V322H197.094V315.66H198.148L198.166 316.393C198.521 315.826 199.025 315.543 199.678 315.543C199.889 315.543 200.049 315.57 200.158 315.625V316.633ZM200.779 318.777C200.779 317.805 201.01 317.023 201.471 316.434C201.932 315.84 202.535 315.543 203.281 315.543C204.023 315.543 204.611 315.797 205.045 316.305V313H206.129V322H205.133L205.08 321.32C204.646 321.852 204.043 322.117 203.27 322.117C202.535 322.117 201.936 321.816 201.471 321.215C201.01 320.613 200.779 319.828 200.779 318.859V318.777ZM201.863 318.9C201.863 319.619 202.012 320.182 202.309 320.588C202.605 320.994 203.016 321.197 203.539 321.197C204.227 321.197 204.729 320.889 205.045 320.271V317.359C204.721 316.762 204.223 316.463 203.551 316.463C203.02 316.463 202.605 316.668 202.309 317.078C202.012 317.488 201.863 318.096 201.863 318.9Z" fill="#6A9923"/>
<path d="M166.931 397.563C165.805 397.24 164.985 396.843 164.47 396.374C163.959 395.9 163.704 395.317 163.704 394.624C163.704 393.84 164.016 393.193 164.641 392.683C165.27 392.168 166.085 391.91 167.088 391.91C167.771 391.91 168.38 392.042 168.913 392.307C169.451 392.571 169.866 392.936 170.157 393.4C170.453 393.865 170.602 394.373 170.602 394.925H169.282C169.282 394.323 169.091 393.852 168.708 393.51C168.325 393.163 167.785 392.99 167.088 392.99C166.441 392.99 165.935 393.134 165.57 393.421C165.21 393.703 165.03 394.098 165.03 394.604C165.03 395.009 165.201 395.353 165.543 395.636C165.889 395.914 166.475 396.169 167.3 396.401C168.129 396.634 168.776 396.891 169.241 397.174C169.711 397.452 170.057 397.778 170.28 398.151C170.508 398.525 170.622 398.965 170.622 399.471C170.622 400.277 170.308 400.924 169.679 401.412C169.05 401.895 168.209 402.137 167.156 402.137C166.473 402.137 165.835 402.007 165.242 401.747C164.65 401.483 164.192 401.123 163.868 400.667C163.549 400.211 163.39 399.694 163.39 399.115H164.709C164.709 399.717 164.93 400.193 165.372 400.544C165.819 400.89 166.413 401.063 167.156 401.063C167.849 401.063 168.38 400.922 168.749 400.64C169.118 400.357 169.303 399.972 169.303 399.484C169.303 398.997 169.132 398.621 168.79 398.356C168.448 398.088 167.828 397.823 166.931 397.563ZM173.486 402H172.222V394.604H173.486V402ZM172.119 392.642C172.119 392.437 172.181 392.263 172.304 392.122C172.431 391.981 172.618 391.91 172.864 391.91C173.11 391.91 173.297 391.981 173.425 392.122C173.552 392.263 173.616 392.437 173.616 392.642C173.616 392.847 173.552 393.018 173.425 393.154C173.297 393.291 173.11 393.359 172.864 393.359C172.618 393.359 172.431 393.291 172.304 393.154C172.181 393.018 172.119 392.847 172.119 392.642ZM175.216 398.24C175.216 397.087 175.482 396.171 176.016 395.492C176.549 394.809 177.255 394.467 178.135 394.467C179.037 394.467 179.741 394.786 180.247 395.424L180.309 394.604H181.464V401.822C181.464 402.779 181.179 403.534 180.609 404.085C180.044 404.636 179.283 404.912 178.326 404.912C177.793 404.912 177.271 404.798 176.761 404.57C176.25 404.342 175.861 404.03 175.592 403.634L176.248 402.875C176.79 403.545 177.453 403.88 178.237 403.88C178.853 403.88 179.331 403.707 179.673 403.36C180.019 403.014 180.192 402.526 180.192 401.897V401.262C179.687 401.845 178.996 402.137 178.121 402.137C177.255 402.137 176.553 401.788 176.016 401.091C175.482 400.394 175.216 399.443 175.216 398.24ZM176.487 398.384C176.487 399.218 176.658 399.874 177 400.353C177.342 400.826 177.82 401.063 178.436 401.063C179.233 401.063 179.819 400.701 180.192 399.977V396.6C179.805 395.893 179.224 395.54 178.449 395.54C177.834 395.54 177.353 395.779 177.007 396.258C176.66 396.736 176.487 397.445 176.487 398.384ZM184.574 394.604L184.615 395.533C185.18 394.822 185.919 394.467 186.83 394.467C188.393 394.467 189.182 395.349 189.195 397.112V402H187.931V397.105C187.926 396.572 187.803 396.178 187.562 395.923C187.325 395.668 186.953 395.54 186.447 395.54C186.037 395.54 185.677 395.649 185.367 395.868C185.057 396.087 184.816 396.374 184.643 396.729V402H183.378V394.604H184.574ZM196.182 402H194.869V392.047H196.182V402ZM199.586 394.604L199.627 395.533C200.192 394.822 200.93 394.467 201.842 394.467C203.405 394.467 204.193 395.349 204.207 397.112V402H202.942V397.105C202.938 396.572 202.815 396.178 202.573 395.923C202.336 395.668 201.965 395.54 201.459 395.54C201.049 395.54 200.689 395.649 200.379 395.868C200.069 396.087 199.827 396.374 199.654 396.729V402H198.39V394.604H199.586Z" fill="white"/>
<path d="M97.459 465V456.469H99.8672C100.609 456.469 101.266 456.633 101.836 456.961C102.406 457.289 102.846 457.756 103.154 458.361C103.467 458.967 103.625 459.662 103.629 460.447V460.992C103.629 461.797 103.473 462.502 103.16 463.107C102.852 463.713 102.408 464.178 101.83 464.502C101.256 464.826 100.586 464.992 99.8203 465H97.459ZM98.584 457.395V464.08H99.7676C100.635 464.08 101.309 463.811 101.789 463.271C102.273 462.732 102.516 461.965 102.516 460.969V460.471C102.516 459.502 102.287 458.75 101.83 458.215C101.377 457.676 100.732 457.402 99.8965 457.395H98.584ZM104.877 461.771C104.877 461.15 104.998 460.592 105.24 460.096C105.486 459.6 105.826 459.217 106.26 458.947C106.697 458.678 107.195 458.543 107.754 458.543C108.617 458.543 109.314 458.842 109.846 459.439C110.381 460.037 110.648 460.832 110.648 461.824V461.9C110.648 462.518 110.529 463.072 110.291 463.564C110.057 464.053 109.719 464.434 109.277 464.707C108.84 464.98 108.336 465.117 107.766 465.117C106.906 465.117 106.209 464.818 105.674 464.221C105.143 463.623 104.877 462.832 104.877 461.848V461.771ZM105.967 461.9C105.967 462.604 106.129 463.168 106.453 463.594C106.781 464.02 107.219 464.232 107.766 464.232C108.316 464.232 108.754 464.018 109.078 463.588C109.402 463.154 109.564 462.549 109.564 461.771C109.564 461.076 109.398 460.514 109.066 460.084C108.738 459.65 108.301 459.434 107.754 459.434C107.219 459.434 106.787 459.646 106.459 460.072C106.131 460.498 105.967 461.107 105.967 461.9ZM113.033 458.66L113.068 459.457C113.553 458.848 114.186 458.543 114.967 458.543C116.307 458.543 116.982 459.299 116.994 460.811V465H115.91V460.805C115.906 460.348 115.801 460.01 115.594 459.791C115.391 459.572 115.072 459.463 114.639 459.463C114.287 459.463 113.979 459.557 113.713 459.744C113.447 459.932 113.24 460.178 113.092 460.482V465H112.008V458.66H113.033ZM118.236 458.871L117.621 458.449C117.984 457.941 118.172 457.406 118.184 456.844V456H119.256V456.762C119.252 457.152 119.154 457.543 118.963 457.934C118.775 458.32 118.533 458.633 118.236 458.871ZM122.033 457.125V458.66H123.217V459.498H122.033V463.43C122.033 463.684 122.086 463.875 122.191 464.004C122.297 464.129 122.477 464.191 122.73 464.191C122.855 464.191 123.027 464.168 123.246 464.121V465C122.961 465.078 122.684 465.117 122.414 465.117C121.93 465.117 121.564 464.971 121.318 464.678C121.072 464.385 120.949 463.969 120.949 463.43V459.498H119.795V458.66H120.949V457.125H122.033ZM128.549 459.428C129.029 458.838 129.654 458.543 130.424 458.543C131.764 458.543 132.439 459.299 132.451 460.811V465H131.367V460.805C131.363 460.348 131.258 460.01 131.051 459.791C130.848 459.572 130.529 459.463 130.096 459.463C129.744 459.463 129.436 459.557 129.17 459.744C128.904 459.932 128.697 460.178 128.549 460.482V465H127.465V456H128.549V459.428ZM137.988 465C137.926 464.875 137.875 464.652 137.836 464.332C137.332 464.855 136.73 465.117 136.031 465.117C135.406 465.117 134.893 464.941 134.49 464.59C134.092 464.234 133.893 463.785 133.893 463.242C133.893 462.582 134.143 462.07 134.643 461.707C135.146 461.34 135.854 461.156 136.764 461.156H137.818V460.658C137.818 460.279 137.705 459.979 137.479 459.756C137.252 459.529 136.918 459.416 136.477 459.416C136.09 459.416 135.766 459.514 135.504 459.709C135.242 459.904 135.111 460.141 135.111 460.418H134.021C134.021 460.102 134.133 459.797 134.355 459.504C134.582 459.207 134.887 458.973 135.27 458.801C135.656 458.629 136.08 458.543 136.541 458.543C137.271 458.543 137.844 458.727 138.258 459.094C138.672 459.457 138.887 459.959 138.902 460.6V463.518C138.902 464.1 138.977 464.562 139.125 464.906V465H137.988ZM136.189 464.174C136.529 464.174 136.852 464.086 137.156 463.91C137.461 463.734 137.682 463.506 137.818 463.225V461.924H136.969C135.641 461.924 134.977 462.312 134.977 463.09C134.977 463.43 135.09 463.695 135.316 463.887C135.543 464.078 135.834 464.174 136.189 464.174ZM142.6 463.529L144.17 458.66H145.277L143.004 465H142.178L139.881 458.66H140.988L142.6 463.529ZM148.869 465.117C148.01 465.117 147.311 464.836 146.771 464.273C146.232 463.707 145.963 462.951 145.963 462.006V461.807C145.963 461.178 146.082 460.617 146.32 460.125C146.562 459.629 146.898 459.242 147.328 458.965C147.762 458.684 148.23 458.543 148.734 458.543C149.559 458.543 150.199 458.814 150.656 459.357C151.113 459.9 151.342 460.678 151.342 461.689V462.141H147.047C147.062 462.766 147.244 463.271 147.592 463.658C147.943 464.041 148.389 464.232 148.928 464.232C149.311 464.232 149.635 464.154 149.9 463.998C150.166 463.842 150.398 463.635 150.598 463.377L151.26 463.893C150.729 464.709 149.932 465.117 148.869 465.117ZM148.734 459.434C148.297 459.434 147.93 459.594 147.633 459.914C147.336 460.23 147.152 460.676 147.082 461.25H150.258V461.168C150.227 460.617 150.078 460.191 149.812 459.891C149.547 459.586 149.188 459.434 148.734 459.434ZM159.492 465C159.43 464.875 159.379 464.652 159.34 464.332C158.836 464.855 158.234 465.117 157.535 465.117C156.91 465.117 156.396 464.941 155.994 464.59C155.596 464.234 155.396 463.785 155.396 463.242C155.396 462.582 155.646 462.07 156.146 461.707C156.65 461.34 157.357 461.156 158.268 461.156H159.322V460.658C159.322 460.279 159.209 459.979 158.982 459.756C158.756 459.529 158.422 459.416 157.98 459.416C157.594 459.416 157.27 459.514 157.008 459.709C156.746 459.904 156.615 460.141 156.615 460.418H155.525C155.525 460.102 155.637 459.797 155.859 459.504C156.086 459.207 156.391 458.973 156.773 458.801C157.16 458.629 157.584 458.543 158.045 458.543C158.775 458.543 159.348 458.727 159.762 459.094C160.176 459.457 160.391 459.959 160.406 460.6V463.518C160.406 464.1 160.48 464.562 160.629 464.906V465H159.492ZM157.693 464.174C158.033 464.174 158.355 464.086 158.66 463.91C158.965 463.734 159.186 463.506 159.322 463.225V461.924H158.473C157.145 461.924 156.48 462.312 156.48 463.09C156.48 463.43 156.594 463.695 156.82 463.887C157.047 464.078 157.338 464.174 157.693 464.174ZM163.131 458.66L163.166 459.457C163.65 458.848 164.283 458.543 165.064 458.543C166.404 458.543 167.08 459.299 167.092 460.811V465H166.008V460.805C166.004 460.348 165.898 460.01 165.691 459.791C165.488 459.572 165.17 459.463 164.736 459.463C164.385 459.463 164.076 459.557 163.811 459.744C163.545 459.932 163.338 460.178 163.189 460.482V465H162.105V458.66H163.131ZM175.617 465C175.555 464.875 175.504 464.652 175.465 464.332C174.961 464.855 174.359 465.117 173.66 465.117C173.035 465.117 172.521 464.941 172.119 464.59C171.721 464.234 171.521 463.785 171.521 463.242C171.521 462.582 171.771 462.07 172.271 461.707C172.775 461.34 173.482 461.156 174.393 461.156H175.447V460.658C175.447 460.279 175.334 459.979 175.107 459.756C174.881 459.529 174.547 459.416 174.105 459.416C173.719 459.416 173.395 459.514 173.133 459.709C172.871 459.904 172.74 460.141 172.74 460.418H171.65C171.65 460.102 171.762 459.797 171.984 459.504C172.211 459.207 172.516 458.973 172.898 458.801C173.285 458.629 173.709 458.543 174.17 458.543C174.9 458.543 175.473 458.727 175.887 459.094C176.301 459.457 176.516 459.959 176.531 460.6V463.518C176.531 464.1 176.605 464.562 176.754 464.906V465H175.617ZM173.818 464.174C174.158 464.174 174.48 464.086 174.785 463.91C175.09 463.734 175.311 463.506 175.447 463.225V461.924H174.598C173.27 461.924 172.605 462.312 172.605 463.09C172.605 463.43 172.719 463.695 172.945 463.887C173.172 464.078 173.463 464.174 173.818 464.174ZM180.773 464.232C181.16 464.232 181.498 464.115 181.787 463.881C182.076 463.646 182.236 463.354 182.268 463.002H183.293C183.273 463.365 183.148 463.711 182.918 464.039C182.688 464.367 182.379 464.629 181.992 464.824C181.609 465.02 181.203 465.117 180.773 465.117C179.91 465.117 179.223 464.83 178.711 464.256C178.203 463.678 177.949 462.889 177.949 461.889V461.707C177.949 461.09 178.062 460.541 178.289 460.061C178.516 459.58 178.84 459.207 179.262 458.941C179.688 458.676 180.189 458.543 180.768 458.543C181.479 458.543 182.068 458.756 182.537 459.182C183.01 459.607 183.262 460.16 183.293 460.84H182.268C182.236 460.43 182.08 460.094 181.799 459.832C181.521 459.566 181.178 459.434 180.768 459.434C180.217 459.434 179.789 459.633 179.484 460.031C179.184 460.426 179.033 460.998 179.033 461.748V461.953C179.033 462.684 179.184 463.246 179.484 463.641C179.785 464.035 180.215 464.232 180.773 464.232ZM187.055 464.232C187.441 464.232 187.779 464.115 188.068 463.881C188.357 463.646 188.518 463.354 188.549 463.002H189.574C189.555 463.365 189.43 463.711 189.199 464.039C188.969 464.367 188.66 464.629 188.273 464.824C187.891 465.02 187.484 465.117 187.055 465.117C186.191 465.117 185.504 464.83 184.992 464.256C184.484 463.678 184.23 462.889 184.23 461.889V461.707C184.23 461.09 184.344 460.541 184.57 460.061C184.797 459.58 185.121 459.207 185.543 458.941C185.969 458.676 186.471 458.543 187.049 458.543C187.76 458.543 188.35 458.756 188.818 459.182C189.291 459.607 189.543 460.16 189.574 460.84H188.549C188.518 460.43 188.361 460.094 188.08 459.832C187.803 459.566 187.459 459.434 187.049 459.434C186.498 459.434 186.07 459.633 185.766 460.031C185.465 460.426 185.314 460.998 185.314 461.748V461.953C185.314 462.684 185.465 463.246 185.766 463.641C186.066 464.035 186.496 464.232 187.055 464.232ZM190.506 461.771C190.506 461.15 190.627 460.592 190.869 460.096C191.115 459.6 191.455 459.217 191.889 458.947C192.326 458.678 192.824 458.543 193.383 458.543C194.246 458.543 194.943 458.842 195.475 459.439C196.01 460.037 196.277 460.832 196.277 461.824V461.9C196.277 462.518 196.158 463.072 195.92 463.564C195.686 464.053 195.348 464.434 194.906 464.707C194.469 464.98 193.965 465.117 193.395 465.117C192.535 465.117 191.838 464.818 191.303 464.221C190.771 463.623 190.506 462.832 190.506 461.848V461.771ZM191.596 461.9C191.596 462.604 191.758 463.168 192.082 463.594C192.41 464.02 192.848 464.232 193.395 464.232C193.945 464.232 194.383 464.018 194.707 463.588C195.031 463.154 195.193 462.549 195.193 461.771C195.193 461.076 195.027 460.514 194.695 460.084C194.367 459.65 193.93 459.434 193.383 459.434C192.848 459.434 192.416 459.646 192.088 460.072C191.76 460.498 191.596 461.107 191.596 461.9ZM201.551 464.373C201.129 464.869 200.51 465.117 199.693 465.117C199.018 465.117 198.502 464.922 198.146 464.531C197.795 464.137 197.617 463.555 197.613 462.785V458.66H198.697V462.756C198.697 463.717 199.088 464.197 199.869 464.197C200.697 464.197 201.248 463.889 201.521 463.271V458.66H202.605V465H201.574L201.551 464.373ZM205.283 458.66L205.318 459.457C205.803 458.848 206.436 458.543 207.217 458.543C208.557 458.543 209.232 459.299 209.244 460.811V465H208.16V460.805C208.156 460.348 208.051 460.01 207.844 459.791C207.641 459.572 207.322 459.463 206.889 459.463C206.537 459.463 206.229 459.557 205.963 459.744C205.697 459.932 205.49 460.178 205.342 460.482V465H204.258V458.66H205.283ZM212.35 457.125V458.66H213.533V459.498H212.35V463.43C212.35 463.684 212.402 463.875 212.508 464.004C212.613 464.129 212.793 464.191 213.047 464.191C213.172 464.191 213.344 464.168 213.562 464.121V465C213.277 465.078 213 465.117 212.73 465.117C212.246 465.117 211.881 464.971 211.635 464.678C211.389 464.385 211.266 463.969 211.266 463.43V459.498H210.111V458.66H211.266V457.125H212.35ZM216.076 462.598C216.084 462.133 216.137 461.766 216.234 461.496C216.332 461.227 216.531 460.928 216.832 460.6L217.6 459.809C217.928 459.438 218.092 459.039 218.092 458.613C218.092 458.203 217.984 457.883 217.77 457.652C217.555 457.418 217.242 457.301 216.832 457.301C216.434 457.301 216.113 457.406 215.871 457.617C215.629 457.828 215.508 458.111 215.508 458.467H214.424C214.432 457.834 214.656 457.324 215.098 456.938C215.543 456.547 216.121 456.352 216.832 456.352C217.57 456.352 218.145 456.551 218.555 456.949C218.969 457.344 219.176 457.887 219.176 458.578C219.176 459.262 218.859 459.936 218.227 460.6L217.588 461.232C217.303 461.549 217.16 462.004 217.16 462.598H216.076ZM216.029 464.455C216.029 464.279 216.082 464.133 216.188 464.016C216.297 463.895 216.457 463.834 216.668 463.834C216.879 463.834 217.039 463.895 217.148 464.016C217.258 464.133 217.312 464.279 217.312 464.455C217.312 464.631 217.258 464.777 217.148 464.895C217.039 465.008 216.879 465.064 216.668 465.064C216.457 465.064 216.297 465.008 216.188 464.895C216.082 464.777 216.029 464.631 216.029 464.455Z" fill="#C4C4C4"/>
<path d="M226.137 461.197C225.172 460.92 224.469 460.58 224.027 460.178C223.59 459.771 223.371 459.271 223.371 458.678C223.371 458.006 223.639 457.451 224.174 457.014C224.713 456.572 225.412 456.352 226.271 456.352C226.857 456.352 227.379 456.465 227.836 456.691C228.297 456.918 228.652 457.23 228.902 457.629C229.156 458.027 229.283 458.463 229.283 458.936H228.152C228.152 458.42 227.988 458.016 227.66 457.723C227.332 457.426 226.869 457.277 226.271 457.277C225.717 457.277 225.283 457.4 224.971 457.646C224.662 457.889 224.508 458.227 224.508 458.66C224.508 459.008 224.654 459.303 224.947 459.545C225.244 459.783 225.746 460.002 226.453 460.201C227.164 460.4 227.719 460.621 228.117 460.863C228.52 461.102 228.816 461.381 229.008 461.701C229.203 462.021 229.301 462.398 229.301 462.832C229.301 463.523 229.031 464.078 228.492 464.496C227.953 464.91 227.232 465.117 226.33 465.117C225.744 465.117 225.197 465.006 224.689 464.783C224.182 464.557 223.789 464.248 223.512 463.857C223.238 463.467 223.102 463.023 223.102 462.527H224.232C224.232 463.043 224.422 463.451 224.801 463.752C225.184 464.049 225.693 464.197 226.33 464.197C226.924 464.197 227.379 464.076 227.695 463.834C228.012 463.592 228.17 463.262 228.17 462.844C228.17 462.426 228.023 462.104 227.73 461.877C227.438 461.646 226.906 461.42 226.137 461.197ZM231.756 465H230.672V458.66H231.756V465ZM230.584 456.979C230.584 456.803 230.637 456.654 230.742 456.533C230.852 456.412 231.012 456.352 231.223 456.352C231.434 456.352 231.594 456.412 231.703 456.533C231.812 456.654 231.867 456.803 231.867 456.979C231.867 457.154 231.812 457.301 231.703 457.418C231.594 457.535 231.434 457.594 231.223 457.594C231.012 457.594 230.852 457.535 230.742 457.418C230.637 457.301 230.584 457.154 230.584 456.979ZM233.238 461.777C233.238 460.789 233.467 460.004 233.924 459.422C234.381 458.836 234.986 458.543 235.74 458.543C236.514 458.543 237.117 458.816 237.551 459.363L237.604 458.66H238.594V464.848C238.594 465.668 238.35 466.314 237.861 466.787C237.377 467.26 236.725 467.496 235.904 467.496C235.447 467.496 235 467.398 234.562 467.203C234.125 467.008 233.791 466.74 233.561 466.4L234.123 465.75C234.588 466.324 235.156 466.611 235.828 466.611C236.355 466.611 236.766 466.463 237.059 466.166C237.355 465.869 237.504 465.451 237.504 464.912V464.367C237.07 464.867 236.479 465.117 235.729 465.117C234.986 465.117 234.385 464.818 233.924 464.221C233.467 463.623 233.238 462.809 233.238 461.777ZM234.328 461.9C234.328 462.615 234.475 463.178 234.768 463.588C235.061 463.994 235.471 464.197 235.998 464.197C236.682 464.197 237.184 463.887 237.504 463.266V460.371C237.172 459.766 236.674 459.463 236.01 459.463C235.482 459.463 235.07 459.668 234.773 460.078C234.477 460.488 234.328 461.096 234.328 461.9ZM241.26 458.66L241.295 459.457C241.779 458.848 242.412 458.543 243.193 458.543C244.533 458.543 245.209 459.299 245.221 460.811V465H244.137V460.805C244.133 460.348 244.027 460.01 243.82 459.791C243.617 459.572 243.299 459.463 242.865 459.463C242.514 459.463 242.205 459.557 241.939 459.744C241.674 459.932 241.467 460.178 241.318 460.482V465H240.234V458.66H241.26ZM256.008 456.469V462.27C256.004 463.074 255.75 463.732 255.246 464.244C254.746 464.756 254.066 465.043 253.207 465.105L252.908 465.117C251.975 465.117 251.23 464.865 250.676 464.361C250.121 463.857 249.84 463.164 249.832 462.281V456.469H250.945V462.246C250.945 462.863 251.115 463.344 251.455 463.688C251.795 464.027 252.279 464.197 252.908 464.197C253.545 464.197 254.031 464.027 254.367 463.688C254.707 463.348 254.877 462.869 254.877 462.252V456.469H256.008ZM262.969 461.9C262.969 462.865 262.748 463.643 262.307 464.232C261.865 464.822 261.268 465.117 260.514 465.117C259.744 465.117 259.139 464.873 258.697 464.385V467.438H257.613V458.66H258.604L258.656 459.363C259.098 458.816 259.711 458.543 260.496 458.543C261.258 458.543 261.859 458.83 262.301 459.404C262.746 459.979 262.969 460.777 262.969 461.801V461.9ZM261.885 461.777C261.885 461.062 261.732 460.498 261.428 460.084C261.123 459.67 260.705 459.463 260.174 459.463C259.518 459.463 259.025 459.754 258.697 460.336V463.365C259.021 463.943 259.518 464.232 260.186 464.232C260.705 464.232 261.117 464.027 261.422 463.617C261.73 463.203 261.885 462.59 261.885 461.777Z" fill="#6A9923"/>
<path d="M136.031 443.08H140.074V444H134.9V435.469H136.031V443.08ZM144.844 443.373C144.422 443.869 143.803 444.117 142.986 444.117C142.311 444.117 141.795 443.922 141.439 443.531C141.088 443.137 140.91 442.555 140.906 441.785V437.66H141.99V441.756C141.99 442.717 142.381 443.197 143.162 443.197C143.99 443.197 144.541 442.889 144.814 442.271V437.66H145.898V444H144.867L144.844 443.373ZM152.906 440.9C152.906 441.865 152.686 442.643 152.244 443.232C151.803 443.822 151.205 444.117 150.451 444.117C149.682 444.117 149.076 443.873 148.635 443.385V446.438H147.551V437.66H148.541L148.594 438.363C149.035 437.816 149.648 437.543 150.434 437.543C151.195 437.543 151.797 437.83 152.238 438.404C152.684 438.979 152.906 439.777 152.906 440.801V440.9ZM151.822 440.777C151.822 440.062 151.67 439.498 151.365 439.084C151.061 438.67 150.643 438.463 150.111 438.463C149.455 438.463 148.963 438.754 148.635 439.336V442.365C148.959 442.943 149.455 443.232 150.123 443.232C150.643 443.232 151.055 443.027 151.359 442.617C151.668 442.203 151.822 441.59 151.822 440.777ZM158.203 444C158.141 443.875 158.09 443.652 158.051 443.332C157.547 443.855 156.945 444.117 156.246 444.117C155.621 444.117 155.107 443.941 154.705 443.59C154.307 443.234 154.107 442.785 154.107 442.242C154.107 441.582 154.357 441.07 154.857 440.707C155.361 440.34 156.068 440.156 156.979 440.156H158.033V439.658C158.033 439.279 157.92 438.979 157.693 438.756C157.467 438.529 157.133 438.416 156.691 438.416C156.305 438.416 155.98 438.514 155.719 438.709C155.457 438.904 155.326 439.141 155.326 439.418H154.236C154.236 439.102 154.348 438.797 154.57 438.504C154.797 438.207 155.102 437.973 155.484 437.801C155.871 437.629 156.295 437.543 156.756 437.543C157.486 437.543 158.059 437.727 158.473 438.094C158.887 438.457 159.102 438.959 159.117 439.6V442.518C159.117 443.1 159.191 443.562 159.34 443.906V444H158.203ZM156.404 443.174C156.744 443.174 157.066 443.086 157.371 442.91C157.676 442.734 157.896 442.506 158.033 442.225V440.924H157.184C155.855 440.924 155.191 441.312 155.191 442.09C155.191 442.43 155.305 442.695 155.531 442.887C155.758 443.078 156.049 443.174 156.404 443.174ZM166.131 440.033L165.088 441.117V444H163.963V435.469H165.088V439.688L168.879 435.469H170.238L166.881 439.236L170.502 444H169.154L166.131 440.033ZM175.23 444C175.168 443.875 175.117 443.652 175.078 443.332C174.574 443.855 173.973 444.117 173.273 444.117C172.648 444.117 172.135 443.941 171.732 443.59C171.334 443.234 171.135 442.785 171.135 442.242C171.135 441.582 171.385 441.07 171.885 440.707C172.389 440.34 173.096 440.156 174.006 440.156H175.061V439.658C175.061 439.279 174.947 438.979 174.721 438.756C174.494 438.529 174.16 438.416 173.719 438.416C173.332 438.416 173.008 438.514 172.746 438.709C172.484 438.904 172.354 439.141 172.354 439.418H171.264C171.264 439.102 171.375 438.797 171.598 438.504C171.824 438.207 172.129 437.973 172.512 437.801C172.898 437.629 173.322 437.543 173.783 437.543C174.514 437.543 175.086 437.727 175.5 438.094C175.914 438.457 176.129 438.959 176.145 439.6V442.518C176.145 443.1 176.219 443.562 176.367 443.906V444H175.23ZM173.432 443.174C173.771 443.174 174.094 443.086 174.398 442.91C174.703 442.734 174.924 442.506 175.061 442.225V440.924H174.211C172.883 440.924 172.219 441.312 172.219 442.09C172.219 442.43 172.332 442.695 172.559 442.887C172.785 443.078 173.076 443.174 173.432 443.174ZM179.314 436.125V437.66H180.498V438.498H179.314V442.43C179.314 442.684 179.367 442.875 179.473 443.004C179.578 443.129 179.758 443.191 180.012 443.191C180.137 443.191 180.309 443.168 180.527 443.121V444C180.242 444.078 179.965 444.117 179.695 444.117C179.211 444.117 178.846 443.971 178.6 443.678C178.354 443.385 178.23 442.969 178.23 442.43V438.498H177.076V437.66H178.23V436.125H179.314ZM185.684 444C185.621 443.875 185.57 443.652 185.531 443.332C185.027 443.855 184.426 444.117 183.727 444.117C183.102 444.117 182.588 443.941 182.186 443.59C181.787 443.234 181.588 442.785 181.588 442.242C181.588 441.582 181.838 441.07 182.338 440.707C182.842 440.34 183.549 440.156 184.459 440.156H185.514V439.658C185.514 439.279 185.4 438.979 185.174 438.756C184.947 438.529 184.613 438.416 184.172 438.416C183.785 438.416 183.461 438.514 183.199 438.709C182.938 438.904 182.807 439.141 182.807 439.418H181.717C181.717 439.102 181.828 438.797 182.051 438.504C182.277 438.207 182.582 437.973 182.965 437.801C183.352 437.629 183.775 437.543 184.236 437.543C184.967 437.543 185.539 437.727 185.953 438.094C186.367 438.457 186.582 438.959 186.598 439.6V442.518C186.598 443.1 186.672 443.562 186.82 443.906V444H185.684ZM183.885 443.174C184.225 443.174 184.547 443.086 184.852 442.91C185.156 442.734 185.377 442.506 185.514 442.225V440.924H184.664C183.336 440.924 182.672 441.312 182.672 442.09C182.672 442.43 182.785 442.695 183.012 442.887C183.238 443.078 183.529 443.174 183.885 443.174ZM193.957 440.197C192.992 439.92 192.289 439.58 191.848 439.178C191.41 438.771 191.191 438.271 191.191 437.678C191.191 437.006 191.459 436.451 191.994 436.014C192.533 435.572 193.232 435.352 194.092 435.352C194.678 435.352 195.199 435.465 195.656 435.691C196.117 435.918 196.473 436.23 196.723 436.629C196.977 437.027 197.104 437.463 197.104 437.936H195.973C195.973 437.42 195.809 437.016 195.48 436.723C195.152 436.426 194.689 436.277 194.092 436.277C193.537 436.277 193.104 436.4 192.791 436.646C192.482 436.889 192.328 437.227 192.328 437.66C192.328 438.008 192.475 438.303 192.768 438.545C193.064 438.783 193.566 439.002 194.273 439.201C194.984 439.4 195.539 439.621 195.938 439.863C196.34 440.102 196.637 440.381 196.828 440.701C197.023 441.021 197.121 441.398 197.121 441.832C197.121 442.523 196.852 443.078 196.312 443.496C195.773 443.91 195.053 444.117 194.15 444.117C193.564 444.117 193.018 444.006 192.51 443.783C192.002 443.557 191.609 443.248 191.332 442.857C191.059 442.467 190.922 442.023 190.922 441.527H192.053C192.053 442.043 192.242 442.451 192.621 442.752C193.004 443.049 193.514 443.197 194.15 443.197C194.744 443.197 195.199 443.076 195.516 442.834C195.832 442.592 195.99 442.262 195.99 441.844C195.99 441.426 195.844 441.104 195.551 440.877C195.258 440.646 194.727 440.42 193.957 440.197ZM202.312 444C202.25 443.875 202.199 443.652 202.16 443.332C201.656 443.855 201.055 444.117 200.355 444.117C199.73 444.117 199.217 443.941 198.814 443.59C198.416 443.234 198.217 442.785 198.217 442.242C198.217 441.582 198.467 441.07 198.967 440.707C199.471 440.34 200.178 440.156 201.088 440.156H202.143V439.658C202.143 439.279 202.029 438.979 201.803 438.756C201.576 438.529 201.242 438.416 200.801 438.416C200.414 438.416 200.09 438.514 199.828 438.709C199.566 438.904 199.436 439.141 199.436 439.418H198.346C198.346 439.102 198.457 438.797 198.68 438.504C198.906 438.207 199.211 437.973 199.594 437.801C199.98 437.629 200.404 437.543 200.865 437.543C201.596 437.543 202.168 437.727 202.582 438.094C202.996 438.457 203.211 438.959 203.227 439.6V442.518C203.227 443.1 203.301 443.562 203.449 443.906V444H202.312ZM200.514 443.174C200.854 443.174 201.176 443.086 201.48 442.91C201.785 442.734 202.006 442.506 202.143 442.225V440.924H201.293C199.965 440.924 199.301 441.312 199.301 442.09C199.301 442.43 199.414 442.695 199.641 442.887C199.867 443.078 200.158 443.174 200.514 443.174ZM205.951 437.66L205.986 438.457C206.471 437.848 207.104 437.543 207.885 437.543C209.225 437.543 209.9 438.299 209.912 439.811V444H208.828V439.805C208.824 439.348 208.719 439.01 208.512 438.791C208.309 438.572 207.99 438.463 207.557 438.463C207.205 438.463 206.896 438.557 206.631 438.744C206.365 438.932 206.158 439.178 206.01 439.482V444H204.926V437.66H205.951ZM211.283 440.777C211.283 439.805 211.514 439.023 211.975 438.434C212.436 437.84 213.039 437.543 213.785 437.543C214.527 437.543 215.115 437.797 215.549 438.305V435H216.633V444H215.637L215.584 443.32C215.15 443.852 214.547 444.117 213.773 444.117C213.039 444.117 212.439 443.816 211.975 443.215C211.514 442.613 211.283 441.828 211.283 440.859V440.777ZM212.367 440.9C212.367 441.619 212.516 442.182 212.812 442.588C213.109 442.994 213.52 443.197 214.043 443.197C214.73 443.197 215.232 442.889 215.549 442.271V439.359C215.225 438.762 214.727 438.463 214.055 438.463C213.523 438.463 213.109 438.668 212.812 439.078C212.516 439.488 212.367 440.096 212.367 440.9ZM219.498 444H218.414V437.66H219.498V444ZM218.326 435.979C218.326 435.803 218.379 435.654 218.484 435.533C218.594 435.412 218.754 435.352 218.965 435.352C219.176 435.352 219.336 435.412 219.445 435.533C219.555 435.654 219.609 435.803 219.609 435.979C219.609 436.154 219.555 436.301 219.445 436.418C219.336 436.535 219.176 436.594 218.965 436.594C218.754 436.594 218.594 436.535 218.484 436.418C218.379 436.301 218.326 436.154 218.326 435.979ZM222.51 441.598C222.518 441.133 222.57 440.766 222.668 440.496C222.766 440.227 222.965 439.928 223.266 439.6L224.033 438.809C224.361 438.438 224.525 438.039 224.525 437.613C224.525 437.203 224.418 436.883 224.203 436.652C223.988 436.418 223.676 436.301 223.266 436.301C222.867 436.301 222.547 436.406 222.305 436.617C222.062 436.828 221.941 437.111 221.941 437.467H220.857C220.865 436.834 221.09 436.324 221.531 435.938C221.977 435.547 222.555 435.352 223.266 435.352C224.004 435.352 224.578 435.551 224.988 435.949C225.402 436.344 225.609 436.887 225.609 437.578C225.609 438.262 225.293 438.936 224.66 439.6L224.021 440.232C223.736 440.549 223.594 441.004 223.594 441.598H222.51ZM222.463 443.455C222.463 443.279 222.516 443.133 222.621 443.016C222.73 442.895 222.891 442.834 223.102 442.834C223.312 442.834 223.473 442.895 223.582 443.016C223.691 443.133 223.746 443.279 223.746 443.455C223.746 443.631 223.691 443.777 223.582 443.895C223.473 444.008 223.312 444.064 223.102 444.064C222.891 444.064 222.73 444.008 222.621 443.895C222.516 443.777 222.463 443.631 222.463 443.455Z" fill="#C4C4C4"/>
<g clip-path="url(#clip0)">
<path d="M229.517 123.534L225.737 117.19H220.412C217.973 117.189 215.713 118.527 214.459 120.714L210.931 126.707L223.448 135.035L229.517 123.534Z" fill="#6A9923"/>
<path d="M249.449 128.626L245.069 120.759C243.954 118.556 241.763 117.181 239.379 117.19H225.737L235.965 137.414L230.276 140.983L247.21 142.997L255.31 125.517L249.449 128.626Z" fill="#88B337"/>
<path d="M256.448 142.173L242.793 150.5L248.483 161.207H257.586L259.964 157.192C261.285 154.957 261.347 152.149 260.126 149.853L256.448 142.173Z" fill="#6A9923"/>
<path d="M234.827 161.207V155.259L223.448 168.345L234.827 183.81V179.052H243.931C246.328 179.113 248.544 177.723 249.621 175.483L257.586 161.207H234.827Z" fill="#88B337"/>
<path d="M206.379 162.397L203.608 169.073L207.071 175.344C208.356 177.616 210.682 179.022 213.207 179.052H217.759V162.397H206.379Z" fill="#6A9923"/>
<path d="M220.034 151.69L213.207 136.224L195 137.414L201.508 141.632L197.276 150.5C196.099 152.72 196.099 155.418 197.276 157.638L203.607 169.073L205.976 164.776L214.434 149.429L220.034 151.69Z" fill="#88B337"/>
</g>
<path d="M98.3438 137V119.891L99.5859 119.305H105.375C107.719 119.305 108.891 120.477 108.891 122.82V124.742C108.891 125.602 108.664 126.285 108.211 126.793C109.367 127.449 109.945 128.602 109.945 130.25V132.898C109.945 135.633 108.578 137 105.844 137H98.3438ZM100.688 134.891H105.844C107.016 134.891 107.602 134.227 107.602 132.898V130.25C107.602 128.922 107.016 128.258 105.844 128.258H100.688V134.891ZM100.688 126.148H105.375C106.156 126.148 106.547 125.68 106.547 124.742V122.82C106.547 121.883 106.156 121.414 105.375 121.414H100.688V126.148ZM116.742 134.891H119.203C119.984 134.891 120.375 134.422 120.375 133.484V131.879C120.375 130.941 119.984 130.473 119.203 130.473H116.742C115.961 130.473 115.57 130.941 115.57 131.879V133.484C115.57 134.422 115.961 134.891 116.742 134.891ZM116.742 137C114.398 137 113.227 135.828 113.227 133.484V131.879C113.227 129.535 114.398 128.363 116.742 128.363H119.203C119.609 128.363 120 128.48 120.375 128.715V127.625C120.375 126.688 119.984 126.219 119.203 126.219H115.008V126.102L115.945 124.109H119.203C121.547 124.109 122.719 125.281 122.719 127.625V136.414L120.492 137.469H120.375V136.648C120.078 136.883 119.688 137 119.203 137H116.742ZM126.234 137.469V127.625C126.234 125.281 127.406 124.109 129.75 124.109H132.445C134.789 124.109 135.961 125.281 135.961 127.625V136.414L133.734 137.469H133.617V127.625C133.617 126.688 133.227 126.219 132.445 126.219H129.75C128.969 126.219 128.578 126.688 128.578 127.625V136.414L126.352 137.469H126.234ZM140.062 137.469V119.891L142.289 118.836H142.406V128.328C142.508 128.305 142.617 128.285 142.734 128.27L147.305 123.641H147.422L149.484 124.613L145.57 128.211H146.273C148.617 128.211 149.789 129.383 149.789 131.727V136.414L147.562 137.469H147.445V131.727C147.445 130.789 147.055 130.32 146.273 130.32H143.578C142.797 130.32 142.406 130.789 142.406 131.727V136.414L140.18 137.469H140.062ZM101.977 158C99.2422 158 97.875 156.633 97.875 153.898V152.609L100.102 151.555H100.219V153.898C100.219 155.227 100.805 155.891 101.977 155.891H105.609C106.781 155.891 107.367 155.227 107.367 153.898V151.438C107.367 150.109 106.781 149.445 105.609 149.445H102.445C100.102 149.445 98.9297 148.273 98.9297 145.93V143.82C98.9297 141.477 100.102 140.305 102.445 140.305H105.141C107.484 140.305 108.656 141.477 108.656 143.82V144.441L106.43 145.496H106.312V143.82C106.312 142.883 105.922 142.414 105.141 142.414H102.445C101.664 142.414 101.273 142.883 101.273 143.82V145.93C101.273 146.867 101.664 147.336 102.445 147.336H105.609C108.344 147.336 109.711 148.703 109.711 151.438V153.898C109.711 156.633 108.344 158 105.609 158H101.977ZM116.273 155.891H118.734C119.516 155.891 119.906 155.422 119.906 154.484V152.879C119.906 151.941 119.516 151.473 118.734 151.473H116.273C115.492 151.473 115.102 151.941 115.102 152.879V154.484C115.102 155.422 115.492 155.891 116.273 155.891ZM116.273 158C113.93 158 112.758 156.828 112.758 154.484V152.879C112.758 150.535 113.93 149.363 116.273 149.363H118.734C119.141 149.363 119.531 149.48 119.906 149.715V148.625C119.906 147.688 119.516 147.219 118.734 147.219H114.539V147.102L115.477 145.109H118.734C121.078 145.109 122.25 146.281 122.25 148.625V157.414L120.023 158.469H119.906V157.648C119.609 157.883 119.219 158 118.734 158H116.273ZM125.766 158.469V148.625C125.766 146.281 126.938 145.109 129.281 145.109H131.977C133.055 145.109 133.836 145.398 134.32 145.977C134.836 145.398 135.617 145.109 136.664 145.109H139.359C141.703 145.109 142.875 146.281 142.875 148.625V157.414L140.648 158.469H140.531V148.625C140.531 147.688 140.141 147.219 139.359 147.219H136.664C135.883 147.219 135.492 147.688 135.492 148.625V157.414L133.266 158.469H133.148V148.625C133.148 147.688 132.758 147.219 131.977 147.219H129.281C128.5 147.219 128.109 147.688 128.109 148.625V157.414L125.883 158.469H125.766ZM150.492 158C149.961 158 149.57 157.879 149.32 157.637V162.219L147.094 163.273H146.977V148.625C146.977 146.281 148.148 145.109 150.492 145.109H153.188C155.531 145.109 156.703 146.281 156.703 148.625V154.484C156.703 156.828 155.531 158 153.188 158H150.492ZM150.492 155.891H153.188C153.969 155.891 154.359 155.422 154.359 154.484V148.625C154.359 147.688 153.969 147.219 153.188 147.219H150.492C149.711 147.219 149.32 147.688 149.32 148.625V154.484C149.32 155.422 149.711 155.891 150.492 155.891ZM163.148 155.891H165.609C166.391 155.891 166.781 155.422 166.781 154.484V152.879C166.781 151.941 166.391 151.473 165.609 151.473H163.148C162.367 151.473 161.977 151.941 161.977 152.879V154.484C161.977 155.422 162.367 155.891 163.148 155.891ZM163.148 158C160.805 158 159.633 156.828 159.633 154.484V152.879C159.633 150.535 160.805 149.363 163.148 149.363H165.609C166.016 149.363 166.406 149.48 166.781 149.715V148.625C166.781 147.688 166.391 147.219 165.609 147.219H161.414V147.102L162.352 145.109H165.609C167.953 145.109 169.125 146.281 169.125 148.625V157.414L166.898 158.469H166.781V157.648C166.484 157.883 166.094 158 165.609 158H163.148ZM173.227 158.469V140.891L175.453 139.836H175.57V145.473C175.914 145.23 176.305 145.109 176.742 145.109H179.438C181.781 145.109 182.953 146.281 182.953 148.625V157.414L180.727 158.469H180.609V148.625C180.609 147.688 180.219 147.219 179.438 147.219H176.742C175.961 147.219 175.57 147.688 175.57 148.625V157.414L173.344 158.469H173.227ZM101.977 179C99.2422 179 97.875 177.633 97.875 174.898V173.609L100.102 172.555H100.219V174.898C100.219 176.227 100.805 176.891 101.977 176.891H105.609C106.781 176.891 107.367 176.227 107.367 174.898V172.438C107.367 171.109 106.781 170.445 105.609 170.445H102.445C100.102 170.445 98.9297 169.273 98.9297 166.93V164.82C98.9297 162.477 100.102 161.305 102.445 161.305H105.141C107.484 161.305 108.656 162.477 108.656 164.82V165.441L106.43 166.496H106.312V164.82C106.312 163.883 105.922 163.414 105.141 163.414H102.445C101.664 163.414 101.273 163.883 101.273 164.82V166.93C101.273 167.867 101.664 168.336 102.445 168.336H105.609C108.344 168.336 109.711 169.703 109.711 172.438V174.898C109.711 177.633 108.344 179 105.609 179H101.977ZM116.273 176.891H118.734C119.516 176.891 119.906 176.422 119.906 175.484V173.879C119.906 172.941 119.516 172.473 118.734 172.473H116.273C115.492 172.473 115.102 172.941 115.102 173.879V175.484C115.102 176.422 115.492 176.891 116.273 176.891ZM116.273 179C113.93 179 112.758 177.828 112.758 175.484V173.879C112.758 171.535 113.93 170.363 116.273 170.363H118.734C119.141 170.363 119.531 170.48 119.906 170.715V169.625C119.906 168.688 119.516 168.219 118.734 168.219H114.539V168.102L115.477 166.109H118.734C121.078 166.109 122.25 167.281 122.25 169.625V178.414L120.023 179.469H119.906V178.648C119.609 178.883 119.219 179 118.734 179H116.273ZM126.352 179.469V161.891L128.578 160.836H128.695V166.473C129.039 166.23 129.43 166.109 129.867 166.109H132.562C134.906 166.109 136.078 167.281 136.078 169.625V178.414L133.852 179.469H133.734V169.625C133.734 168.688 133.344 168.219 132.562 168.219H129.867C129.086 168.219 128.695 168.688 128.695 169.625V178.414L126.469 179.469H126.352ZM140.355 163.52C140.082 163.238 139.945 162.902 139.945 162.512C139.945 162.113 140.082 161.773 140.355 161.492C140.629 161.211 140.961 161.07 141.352 161.07C141.742 161.07 142.074 161.211 142.348 161.492C142.621 161.773 142.758 162.113 142.758 162.512C142.758 162.902 142.621 163.238 142.348 163.52C142.074 163.801 141.742 163.941 141.352 163.941C140.961 163.941 140.629 163.801 140.355 163.52ZM140.18 179.469V166.695L142.406 165.641H142.523V178.414L140.297 179.469H140.18ZM148.172 179.469V168.242H145.16V168.125L146.109 166.109H148.172V161.891L150.398 160.836H150.516V166.109H153.527V166.227L152.578 168.242H150.516V178.414L148.289 179.469H148.172ZM159.094 179C156.75 179 155.578 177.828 155.578 175.484V166.695L157.805 165.641H157.922V175.484C157.922 176.422 158.312 176.891 159.094 176.891H161.789C162.57 176.891 162.961 176.422 162.961 175.484V166.695L165.188 165.641H165.305V180.289C165.305 182.633 164.133 183.805 161.789 183.805H156.797V183.688L157.734 181.695H161.789C162.57 181.695 162.961 181.227 162.961 180.289V178.648C162.656 178.883 162.266 179 161.789 179H159.094ZM172.336 176.891H174.797C175.578 176.891 175.969 176.422 175.969 175.484V173.879C175.969 172.941 175.578 172.473 174.797 172.473H172.336C171.555 172.473 171.164 172.941 171.164 173.879V175.484C171.164 176.422 171.555 176.891 172.336 176.891ZM172.336 179C169.992 179 168.82 177.828 168.82 175.484V173.879C168.82 171.535 169.992 170.363 172.336 170.363H174.797C175.203 170.363 175.594 170.48 175.969 170.715V169.625C175.969 168.688 175.578 168.219 174.797 168.219H170.602V168.102L171.539 166.109H174.797C177.141 166.109 178.312 167.281 178.312 169.625V178.414L176.086 179.469H175.969V178.648C175.672 178.883 175.281 179 174.797 179H172.336Z" fill="#9ADB3E"/>
<defs>
<filter id="filter0_d" x="45" y="379" width="271" height="46" filterUnits="userSpaceOnUse" color-interpolation-filters="sRGB">
<feFlood flood-opacity="0" result="BackgroundImageFix"/>
<feColorMatrix in="SourceAlpha" type="matrix" values="0 0 0 0 0 0 0 0 0 0 0 0 0 0 0 0 0 0 127 0"/>
<feOffset dy="4"/>
<feGaussianBlur stdDeviation="2"/>
<feColorMatrix type="matrix" values="0 0 0 0 0 0 0 0 0 0 0 0 0 0 0 0 0 0 0.25 0"/>
<feBlend mode="normal" in2="BackgroundImageFix" result="effect1_dropShadow"/>
<feBlend mode="normal" in="SourceGraphic" in2="effect1_dropShadow" result="shape"/>
</filter>
<linearGradient id="paint0_linear" x1="180.5" y1="379" x2="180.5" y2="417" gradientUnits="userSpaceOnUse">
<stop stop-color="#9ADB3E"/>
<stop offset="1" stop-color="#88B337"/>
</linearGradient>
<clipPath id="clip0">
<rect width="66" height="69" fill="white" transform="translate(195 116)"/>
</clipPath>
</defs>
</svg>
