<svg width="360" height="640" viewBox="0 0 360 640" fill="none" xmlns="http://www.w3.org/2000/svg">
<rect width="360" height="640" fill="white"/>
<rect x="49.5" y="279.5" width="262" height="37" rx="9.5" fill="#F9F9F9" stroke="#C4C4C4"/>
<g filter="url(#filter0_d)">
<rect x="49" y="334" width="263" height="38" rx="10" fill="url(#paint0_linear)"/>
</g>
<path d="M147.939 296.057H144.242V299.08H148.537V300H143.117V291.469H148.479V292.395H144.242V295.137H147.939V296.057ZM150.787 293.66L150.816 294.363C151.281 293.816 151.908 293.543 152.697 293.543C153.584 293.543 154.188 293.883 154.508 294.562C154.719 294.258 154.992 294.012 155.328 293.824C155.668 293.637 156.068 293.543 156.529 293.543C157.92 293.543 158.627 294.279 158.65 295.752V300H157.566V295.816C157.566 295.363 157.463 295.025 157.256 294.803C157.049 294.576 156.701 294.463 156.213 294.463C155.811 294.463 155.477 294.584 155.211 294.826C154.945 295.064 154.791 295.387 154.748 295.793V300H153.658V295.846C153.658 294.924 153.207 294.463 152.305 294.463C151.594 294.463 151.107 294.766 150.846 295.371V300H149.762V293.66H150.787ZM164.205 300C164.143 299.875 164.092 299.652 164.053 299.332C163.549 299.855 162.947 300.117 162.248 300.117C161.623 300.117 161.109 299.941 160.707 299.59C160.309 299.234 160.109 298.785 160.109 298.242C160.109 297.582 160.359 297.07 160.859 296.707C161.363 296.34 162.07 296.156 162.98 296.156H164.035V295.658C164.035 295.279 163.922 294.979 163.695 294.756C163.469 294.529 163.135 294.416 162.693 294.416C162.307 294.416 161.982 294.514 161.721 294.709C161.459 294.904 161.328 295.141 161.328 295.418H160.238C160.238 295.102 160.35 294.797 160.572 294.504C160.799 294.207 161.104 293.973 161.486 293.801C161.873 293.629 162.297 293.543 162.758 293.543C163.488 293.543 164.061 293.727 164.475 294.094C164.889 294.457 165.104 294.959 165.119 295.6V298.518C165.119 299.1 165.193 299.562 165.342 299.906V300H164.205ZM162.406 299.174C162.746 299.174 163.068 299.086 163.373 298.91C163.678 298.734 163.898 298.506 164.035 298.225V296.924H163.186C161.857 296.924 161.193 297.312 161.193 298.09C161.193 298.43 161.307 298.695 161.533 298.887C161.76 299.078 162.051 299.174 162.406 299.174ZM167.996 300H166.912V293.66H167.996V300ZM166.824 291.979C166.824 291.803 166.877 291.654 166.982 291.533C167.092 291.412 167.252 291.352 167.463 291.352C167.674 291.352 167.834 291.412 167.943 291.533C168.053 291.654 168.107 291.803 168.107 291.979C168.107 292.154 168.053 292.301 167.943 292.418C167.834 292.535 167.674 292.594 167.463 292.594C167.252 292.594 167.092 292.535 166.982 292.418C166.877 292.301 166.824 292.154 166.824 291.979ZM170.914 300H169.83V291H170.914V300ZM180.512 297.773H176.938L176.135 300H174.975L178.232 291.469H179.217L182.48 300H181.326L180.512 297.773ZM177.277 296.848H180.178L178.725 292.857L177.277 296.848ZM183.195 296.777C183.195 295.805 183.426 295.023 183.887 294.434C184.348 293.84 184.951 293.543 185.697 293.543C186.439 293.543 187.027 293.797 187.461 294.305V291H188.545V300H187.549L187.496 299.32C187.062 299.852 186.459 300.117 185.686 300.117C184.951 300.117 184.352 299.816 183.887 299.215C183.426 298.613 183.195 297.828 183.195 296.859V296.777ZM184.279 296.9C184.279 297.619 184.428 298.182 184.725 298.588C185.021 298.994 185.432 299.197 185.955 299.197C186.643 299.197 187.145 298.889 187.461 298.271V295.359C187.137 294.762 186.639 294.463 185.967 294.463C185.436 294.463 185.021 294.668 184.725 295.078C184.428 295.488 184.279 296.096 184.279 296.9ZM189.969 296.777C189.969 295.805 190.199 295.023 190.66 294.434C191.121 293.84 191.725 293.543 192.471 293.543C193.213 293.543 193.801 293.797 194.234 294.305V291H195.318V300H194.322L194.27 299.32C193.836 299.852 193.232 300.117 192.459 300.117C191.725 300.117 191.125 299.816 190.66 299.215C190.199 298.613 189.969 297.828 189.969 296.859V296.777ZM191.053 296.9C191.053 297.619 191.201 298.182 191.498 298.588C191.795 298.994 192.205 299.197 192.729 299.197C193.416 299.197 193.918 298.889 194.234 298.271V295.359C193.91 294.762 193.412 294.463 192.74 294.463C192.209 294.463 191.795 294.668 191.498 295.078C191.201 295.488 191.053 296.096 191.053 296.9ZM200.07 294.633C199.906 294.605 199.729 294.592 199.537 294.592C198.826 294.592 198.344 294.895 198.09 295.5V300H197.006V293.66H198.061L198.078 294.393C198.434 293.826 198.938 293.543 199.59 293.543C199.801 293.543 199.961 293.57 200.07 293.625V294.633ZM203.586 300.117C202.727 300.117 202.027 299.836 201.488 299.273C200.949 298.707 200.68 297.951 200.68 297.006V296.807C200.68 296.178 200.799 295.617 201.037 295.125C201.279 294.629 201.615 294.242 202.045 293.965C202.479 293.684 202.947 293.543 203.451 293.543C204.275 293.543 204.916 293.814 205.373 294.357C205.83 294.9 206.059 295.678 206.059 296.689V297.141H201.764C201.779 297.766 201.961 298.271 202.309 298.658C202.66 299.041 203.105 299.232 203.645 299.232C204.027 299.232 204.352 299.154 204.617 298.998C204.883 298.842 205.115 298.635 205.314 298.377L205.977 298.893C205.445 299.709 204.648 300.117 203.586 300.117ZM203.451 294.434C203.014 294.434 202.646 294.594 202.35 294.914C202.053 295.23 201.869 295.676 201.799 296.25H204.975V296.168C204.943 295.617 204.795 295.191 204.529 294.891C204.264 294.586 203.904 294.434 203.451 294.434ZM211.01 298.318C211.01 298.025 210.898 297.799 210.676 297.639C210.457 297.475 210.072 297.334 209.521 297.217C208.975 297.1 208.539 296.959 208.215 296.795C207.895 296.631 207.656 296.436 207.5 296.209C207.348 295.982 207.271 295.713 207.271 295.4C207.271 294.881 207.49 294.441 207.928 294.082C208.369 293.723 208.932 293.543 209.615 293.543C210.334 293.543 210.916 293.729 211.361 294.1C211.811 294.471 212.035 294.945 212.035 295.523H210.945C210.945 295.227 210.818 294.971 210.564 294.756C210.314 294.541 209.998 294.434 209.615 294.434C209.221 294.434 208.912 294.52 208.689 294.691C208.467 294.863 208.355 295.088 208.355 295.365C208.355 295.627 208.459 295.824 208.666 295.957C208.873 296.09 209.246 296.217 209.785 296.338C210.328 296.459 210.768 296.604 211.104 296.771C211.439 296.939 211.688 297.143 211.848 297.381C212.012 297.615 212.094 297.902 212.094 298.242C212.094 298.809 211.867 299.264 211.414 299.607C210.961 299.947 210.373 300.117 209.65 300.117C209.143 300.117 208.693 300.027 208.303 299.848C207.912 299.668 207.605 299.418 207.383 299.098C207.164 298.773 207.055 298.424 207.055 298.049H208.139C208.158 298.412 208.303 298.701 208.572 298.916C208.846 299.127 209.205 299.232 209.65 299.232C210.061 299.232 210.389 299.15 210.635 298.986C210.885 298.818 211.01 298.596 211.01 298.318ZM217.197 298.318C217.197 298.025 217.086 297.799 216.863 297.639C216.645 297.475 216.26 297.334 215.709 297.217C215.162 297.1 214.727 296.959 214.402 296.795C214.082 296.631 213.844 296.436 213.688 296.209C213.535 295.982 213.459 295.713 213.459 295.4C213.459 294.881 213.678 294.441 214.115 294.082C214.557 293.723 215.119 293.543 215.803 293.543C216.521 293.543 217.104 293.729 217.549 294.1C217.998 294.471 218.223 294.945 218.223 295.523H217.133C217.133 295.227 217.006 294.971 216.752 294.756C216.502 294.541 216.186 294.434 215.803 294.434C215.408 294.434 215.1 294.52 214.877 294.691C214.654 294.863 214.543 295.088 214.543 295.365C214.543 295.627 214.646 295.824 214.854 295.957C215.061 296.09 215.434 296.217 215.973 296.338C216.516 296.459 216.955 296.604 217.291 296.771C217.627 296.939 217.875 297.143 218.035 297.381C218.199 297.615 218.281 297.902 218.281 298.242C218.281 298.809 218.055 299.264 217.602 299.607C217.148 299.947 216.561 300.117 215.838 300.117C215.33 300.117 214.881 300.027 214.49 299.848C214.1 299.668 213.793 299.418 213.57 299.098C213.352 298.773 213.242 298.424 213.242 298.049H214.326C214.346 298.412 214.49 298.701 214.76 298.916C215.033 299.127 215.393 299.232 215.838 299.232C216.248 299.232 216.576 299.15 216.822 298.986C217.072 298.818 217.197 298.596 217.197 298.318Z" fill="black"/>
<path d="M53.709 186.349H48.3389V192H46.6514V179.203H54.5791V180.592H48.3389V184.969H53.709V186.349ZM55.7217 187.157C55.7217 186.226 55.9033 185.388 56.2666 184.644C56.6357 183.899 57.1455 183.325 57.7959 182.921C58.4521 182.517 59.1992 182.314 60.0371 182.314C61.332 182.314 62.3779 182.763 63.1748 183.659C63.9775 184.556 64.3789 185.748 64.3789 187.236V187.351C64.3789 188.276 64.2002 189.108 63.8428 189.847C63.4912 190.579 62.9844 191.15 62.3223 191.561C61.666 191.971 60.9102 192.176 60.0547 192.176C58.7656 192.176 57.7197 191.728 56.917 190.831C56.1201 189.935 55.7217 188.748 55.7217 187.271V187.157ZM57.3564 187.351C57.3564 188.405 57.5996 189.252 58.0859 189.891C58.5781 190.529 59.2344 190.849 60.0547 190.849C60.8809 190.849 61.5371 190.526 62.0234 189.882C62.5098 189.231 62.7529 188.323 62.7529 187.157C62.7529 186.114 62.5039 185.271 62.0059 184.626C61.5137 183.976 60.8574 183.65 60.0371 183.65C59.2344 183.65 58.5869 183.97 58.0947 184.608C57.6025 185.247 57.3564 186.161 57.3564 187.351ZM71.0146 183.949C70.7686 183.908 70.502 183.888 70.2148 183.888C69.1484 183.888 68.4248 184.342 68.0439 185.25V192H66.418V182.49H68L68.0264 183.589C68.5596 182.739 69.3154 182.314 70.2939 182.314C70.6104 182.314 70.8506 182.355 71.0146 182.438V183.949ZM71.9551 187.166C71.9551 185.684 72.2979 184.506 72.9834 183.633C73.6689 182.754 74.5771 182.314 75.708 182.314C76.8682 182.314 77.7734 182.725 78.4238 183.545L78.5029 182.49H79.9883V191.771C79.9883 193.002 79.6221 193.972 78.8896 194.681C78.1631 195.39 77.1846 195.744 75.9541 195.744C75.2686 195.744 74.5977 195.598 73.9414 195.305C73.2852 195.012 72.7842 194.61 72.4385 194.101L73.2822 193.125C73.9795 193.986 74.832 194.417 75.8398 194.417C76.6309 194.417 77.2461 194.194 77.6855 193.749C78.1309 193.304 78.3535 192.677 78.3535 191.868V191.051C77.7031 191.801 76.8154 192.176 75.6904 192.176C74.5771 192.176 73.6748 191.728 72.9834 190.831C72.2979 189.935 71.9551 188.713 71.9551 187.166ZM73.5898 187.351C73.5898 188.423 73.8096 189.267 74.249 189.882C74.6885 190.491 75.3037 190.796 76.0947 190.796C77.1201 190.796 77.873 190.33 78.3535 189.398V185.057C77.8555 184.148 77.1084 183.694 76.1123 183.694C75.3213 183.694 74.7031 184.002 74.2578 184.617C73.8125 185.232 73.5898 186.144 73.5898 187.351ZM82.0186 187.157C82.0186 186.226 82.2002 185.388 82.5635 184.644C82.9326 183.899 83.4424 183.325 84.0928 182.921C84.749 182.517 85.4961 182.314 86.334 182.314C87.6289 182.314 88.6748 182.763 89.4717 183.659C90.2744 184.556 90.6758 185.748 90.6758 187.236V187.351C90.6758 188.276 90.4971 189.108 90.1396 189.847C89.7881 190.579 89.2812 191.15 88.6191 191.561C87.9629 191.971 87.207 192.176 86.3516 192.176C85.0625 192.176 84.0166 191.728 83.2139 190.831C82.417 189.935 82.0186 188.748 82.0186 187.271V187.157ZM83.6533 187.351C83.6533 188.405 83.8965 189.252 84.3828 189.891C84.875 190.529 85.5312 190.849 86.3516 190.849C87.1777 190.849 87.834 190.526 88.3203 189.882C88.8066 189.231 89.0498 188.323 89.0498 187.157C89.0498 186.114 88.8008 185.271 88.3027 184.626C87.8105 183.976 87.1543 183.65 86.334 183.65C85.5312 183.65 84.8838 183.97 84.3916 184.608C83.8994 185.247 83.6533 186.161 83.6533 187.351ZM94.9209 180.188V182.49H96.6963V183.747H94.9209V189.645C94.9209 190.025 95 190.312 95.1582 190.506C95.3164 190.693 95.5859 190.787 95.9668 190.787C96.1543 190.787 96.4121 190.752 96.7402 190.682V192C96.3125 192.117 95.8965 192.176 95.4922 192.176C94.7656 192.176 94.2178 191.956 93.8486 191.517C93.4795 191.077 93.2949 190.453 93.2949 189.645V183.747H91.5635V182.49H93.2949V180.188H94.9209ZM105.011 186.99V192H103.323V179.203H108.043C109.443 179.203 110.539 179.561 111.33 180.275C112.127 180.99 112.525 181.937 112.525 183.114C112.525 184.356 112.136 185.314 111.356 185.988C110.583 186.656 109.473 186.99 108.025 186.99H105.011ZM105.011 185.61H108.043C108.945 185.61 109.637 185.399 110.117 184.978C110.598 184.55 110.838 183.935 110.838 183.132C110.838 182.37 110.598 181.761 110.117 181.304C109.637 180.847 108.978 180.609 108.14 180.592H105.011V185.61ZM120.189 192C120.096 191.812 120.02 191.479 119.961 190.998C119.205 191.783 118.303 192.176 117.254 192.176C116.316 192.176 115.546 191.912 114.942 191.385C114.345 190.852 114.046 190.178 114.046 189.363C114.046 188.373 114.421 187.605 115.171 187.061C115.927 186.51 116.987 186.234 118.353 186.234H119.935V185.487C119.935 184.919 119.765 184.468 119.425 184.134C119.085 183.794 118.584 183.624 117.922 183.624C117.342 183.624 116.855 183.771 116.463 184.063C116.07 184.356 115.874 184.711 115.874 185.127H114.239C114.239 184.652 114.406 184.195 114.74 183.756C115.08 183.311 115.537 182.959 116.111 182.701C116.691 182.443 117.327 182.314 118.019 182.314C119.114 182.314 119.973 182.59 120.594 183.141C121.215 183.686 121.537 184.438 121.561 185.399V189.776C121.561 190.649 121.672 191.344 121.895 191.859V192H120.189ZM117.491 190.761C118.001 190.761 118.484 190.629 118.941 190.365C119.398 190.102 119.729 189.759 119.935 189.337V187.386H118.66C116.668 187.386 115.672 187.969 115.672 189.135C115.672 189.645 115.842 190.043 116.182 190.33C116.521 190.617 116.958 190.761 117.491 190.761ZM129.646 189.478C129.646 189.038 129.479 188.698 129.146 188.458C128.817 188.212 128.24 188.001 127.414 187.825C126.594 187.649 125.94 187.438 125.454 187.192C124.974 186.946 124.616 186.653 124.382 186.313C124.153 185.974 124.039 185.569 124.039 185.101C124.039 184.321 124.367 183.662 125.023 183.123C125.686 182.584 126.529 182.314 127.555 182.314C128.633 182.314 129.506 182.593 130.174 183.149C130.848 183.706 131.185 184.418 131.185 185.285H129.55C129.55 184.84 129.359 184.456 128.979 184.134C128.604 183.812 128.129 183.65 127.555 183.65C126.963 183.65 126.5 183.779 126.166 184.037C125.832 184.295 125.665 184.632 125.665 185.048C125.665 185.44 125.82 185.736 126.131 185.936C126.441 186.135 127.001 186.325 127.81 186.507C128.624 186.688 129.283 186.905 129.787 187.157C130.291 187.409 130.663 187.714 130.903 188.071C131.149 188.423 131.272 188.854 131.272 189.363C131.272 190.213 130.933 190.896 130.253 191.411C129.573 191.921 128.691 192.176 127.607 192.176C126.846 192.176 126.172 192.041 125.586 191.771C125 191.502 124.54 191.127 124.206 190.646C123.878 190.16 123.714 189.636 123.714 189.073H125.34C125.369 189.618 125.586 190.052 125.99 190.374C126.4 190.69 126.939 190.849 127.607 190.849C128.223 190.849 128.715 190.726 129.084 190.479C129.459 190.228 129.646 189.894 129.646 189.478ZM138.928 189.478C138.928 189.038 138.761 188.698 138.427 188.458C138.099 188.212 137.521 188.001 136.695 187.825C135.875 187.649 135.222 187.438 134.735 187.192C134.255 186.946 133.897 186.653 133.663 186.313C133.435 185.974 133.32 185.569 133.32 185.101C133.32 184.321 133.648 183.662 134.305 183.123C134.967 182.584 135.811 182.314 136.836 182.314C137.914 182.314 138.787 182.593 139.455 183.149C140.129 183.706 140.466 184.418 140.466 185.285H138.831C138.831 184.84 138.641 184.456 138.26 184.134C137.885 183.812 137.41 183.65 136.836 183.65C136.244 183.65 135.781 183.779 135.447 184.037C135.113 184.295 134.946 184.632 134.946 185.048C134.946 185.44 135.102 185.736 135.412 185.936C135.723 186.135 136.282 186.325 137.091 186.507C137.905 186.688 138.564 186.905 139.068 187.157C139.572 187.409 139.944 187.714 140.185 188.071C140.431 188.423 140.554 188.854 140.554 189.363C140.554 190.213 140.214 190.896 139.534 191.411C138.854 191.921 137.973 192.176 136.889 192.176C136.127 192.176 135.453 192.041 134.867 191.771C134.281 191.502 133.821 191.127 133.487 190.646C133.159 190.16 132.995 189.636 132.995 189.073H134.621C134.65 189.618 134.867 190.052 135.271 190.374C135.682 190.69 136.221 190.849 136.889 190.849C137.504 190.849 137.996 190.726 138.365 190.479C138.74 190.228 138.928 189.894 138.928 189.478ZM151.092 189.759L152.92 182.49H154.546L151.777 192H150.459L148.147 184.793L145.897 192H144.579L141.819 182.49H143.437L145.309 189.609L147.523 182.49H148.833L151.092 189.759ZM155.776 187.157C155.776 186.226 155.958 185.388 156.321 184.644C156.69 183.899 157.2 183.325 157.851 182.921C158.507 182.517 159.254 182.314 160.092 182.314C161.387 182.314 162.433 182.763 163.229 183.659C164.032 184.556 164.434 185.748 164.434 187.236V187.351C164.434 188.276 164.255 189.108 163.897 189.847C163.546 190.579 163.039 191.15 162.377 191.561C161.721 191.971 160.965 192.176 160.109 192.176C158.82 192.176 157.774 191.728 156.972 190.831C156.175 189.935 155.776 188.748 155.776 187.271V187.157ZM157.411 187.351C157.411 188.405 157.654 189.252 158.141 189.891C158.633 190.529 159.289 190.849 160.109 190.849C160.936 190.849 161.592 190.526 162.078 189.882C162.564 189.231 162.808 188.323 162.808 187.157C162.808 186.114 162.559 185.271 162.061 184.626C161.568 183.976 160.912 183.65 160.092 183.65C159.289 183.65 158.642 183.97 158.149 184.608C157.657 185.247 157.411 186.161 157.411 187.351ZM171.069 183.949C170.823 183.908 170.557 183.888 170.27 183.888C169.203 183.888 168.479 184.342 168.099 185.25V192H166.473V182.49H168.055L168.081 183.589C168.614 182.739 169.37 182.314 170.349 182.314C170.665 182.314 170.905 182.355 171.069 182.438V183.949ZM172.001 187.166C172.001 185.707 172.347 184.535 173.038 183.65C173.729 182.76 174.635 182.314 175.754 182.314C176.867 182.314 177.749 182.695 178.399 183.457V178.5H180.025V192H178.531L178.452 190.98C177.802 191.777 176.896 192.176 175.736 192.176C174.635 192.176 173.735 191.725 173.038 190.822C172.347 189.92 172.001 188.742 172.001 187.289V187.166ZM173.627 187.351C173.627 188.429 173.85 189.272 174.295 189.882C174.74 190.491 175.355 190.796 176.141 190.796C177.172 190.796 177.925 190.333 178.399 189.407V185.039C177.913 184.143 177.166 183.694 176.158 183.694C175.361 183.694 174.74 184.002 174.295 184.617C173.85 185.232 173.627 186.144 173.627 187.351ZM184.464 188.396C184.476 187.699 184.555 187.148 184.701 186.744C184.848 186.34 185.146 185.892 185.598 185.399L186.749 184.213C187.241 183.656 187.487 183.059 187.487 182.42C187.487 181.805 187.326 181.324 187.004 180.979C186.682 180.627 186.213 180.451 185.598 180.451C185 180.451 184.52 180.609 184.156 180.926C183.793 181.242 183.611 181.667 183.611 182.2H181.985C181.997 181.251 182.334 180.486 182.996 179.906C183.664 179.32 184.531 179.027 185.598 179.027C186.705 179.027 187.566 179.326 188.182 179.924C188.803 180.516 189.113 181.33 189.113 182.367C189.113 183.393 188.639 184.403 187.689 185.399L186.731 186.349C186.304 186.823 186.09 187.506 186.09 188.396H184.464ZM184.394 191.183C184.394 190.919 184.473 190.699 184.631 190.523C184.795 190.342 185.035 190.251 185.352 190.251C185.668 190.251 185.908 190.342 186.072 190.523C186.236 190.699 186.318 190.919 186.318 191.183C186.318 191.446 186.236 191.666 186.072 191.842C185.908 192.012 185.668 192.097 185.352 192.097C185.035 192.097 184.795 192.012 184.631 191.842C184.473 191.666 184.394 191.446 184.394 191.183Z" fill="black"/>
<path d="M51.2969 209.728H47.2915V213.003H51.9443V214H46.0728V204.758H51.8809V205.761H47.2915V208.731H51.2969V209.728ZM54.3882 207.132L54.4263 207.995C54.951 207.335 55.6366 207.005 56.4829 207.005C57.9344 207.005 58.6665 207.824 58.6792 209.461V214H57.5049V209.455C57.5007 208.96 57.3864 208.594 57.1621 208.357C56.9421 208.12 56.5972 208.001 56.1274 208.001C55.7466 208.001 55.4123 208.103 55.1245 208.306C54.8368 208.509 54.6125 208.776 54.4517 209.106V214H53.2773V207.132H54.3882ZM62.0435 205.469V207.132H63.3257V208.04H62.0435V212.299C62.0435 212.574 62.1006 212.781 62.2148 212.921C62.3291 213.056 62.5238 213.124 62.7988 213.124C62.9342 213.124 63.1204 213.099 63.3574 213.048V214C63.0485 214.085 62.748 214.127 62.4561 214.127C61.9313 214.127 61.5356 213.968 61.269 213.651C61.0024 213.333 60.8691 212.883 60.8691 212.299V208.04H59.6187V207.132H60.8691V205.469H62.0435ZM67.5532 214.127C66.6222 214.127 65.8647 213.822 65.2808 213.213C64.6968 212.599 64.4048 211.78 64.4048 210.756V210.541C64.4048 209.859 64.5339 209.252 64.792 208.719C65.0544 208.181 65.4183 207.762 65.8838 207.462C66.3535 207.157 66.8613 207.005 67.4072 207.005C68.3001 207.005 68.9941 207.299 69.4893 207.887C69.9844 208.475 70.2319 209.318 70.2319 210.414V210.902H65.5791C65.596 211.579 65.7928 212.127 66.1694 212.546C66.5503 212.961 67.0327 213.168 67.6167 213.168C68.0314 213.168 68.3826 213.084 68.6704 212.915C68.9582 212.745 69.21 212.521 69.4258 212.242L70.1431 212.8C69.5675 213.685 68.7043 214.127 67.5532 214.127ZM67.4072 207.97C66.9333 207.97 66.5355 208.143 66.2139 208.49C65.8923 208.833 65.6934 209.315 65.6172 209.938H69.0576V209.849C69.0238 209.252 68.863 208.791 68.5752 208.465C68.2874 208.135 67.8981 207.97 67.4072 207.97ZM74.9165 208.186C74.7388 208.156 74.5462 208.141 74.3389 208.141C73.5687 208.141 73.0461 208.469 72.771 209.125V214H71.5967V207.132H72.7393L72.7583 207.925C73.1434 207.312 73.6893 207.005 74.396 207.005C74.6245 207.005 74.798 207.035 74.9165 207.094V208.186ZM80.8198 205.469V207.132H82.1021V208.04H80.8198V212.299C80.8198 212.574 80.877 212.781 80.9912 212.921C81.1055 213.056 81.3001 213.124 81.5752 213.124C81.7106 213.124 81.8968 213.099 82.1338 213.048V214C81.8249 214.085 81.5244 214.127 81.2324 214.127C80.7077 214.127 80.312 213.968 80.0454 213.651C79.7788 213.333 79.6455 212.883 79.6455 212.299V208.04H78.395V207.132H79.6455V205.469H80.8198ZM84.6538 207.963C85.1743 207.324 85.8514 207.005 86.6851 207.005C88.1366 207.005 88.8687 207.824 88.8813 209.461V214H87.707V209.455C87.7028 208.96 87.5885 208.594 87.3643 208.357C87.1442 208.12 86.7993 208.001 86.3296 208.001C85.9487 208.001 85.6144 208.103 85.3267 208.306C85.0389 208.509 84.8146 208.776 84.6538 209.106V214H83.4795V204.25H84.6538V207.963ZM93.4897 214.127C92.5588 214.127 91.8013 213.822 91.2173 213.213C90.6333 212.599 90.3413 211.78 90.3413 210.756V210.541C90.3413 209.859 90.4704 209.252 90.7285 208.719C90.9909 208.181 91.3548 207.762 91.8203 207.462C92.29 207.157 92.7979 207.005 93.3438 207.005C94.2367 207.005 94.9307 207.299 95.4258 207.887C95.9209 208.475 96.1685 209.318 96.1685 210.414V210.902H91.5156C91.5326 211.579 91.7293 212.127 92.106 212.546C92.4868 212.961 92.9692 213.168 93.5532 213.168C93.9679 213.168 94.3192 213.084 94.6069 212.915C94.8947 212.745 95.1465 212.521 95.3623 212.242L96.0796 212.8C95.5041 213.685 94.6408 214.127 93.4897 214.127ZM93.3438 207.97C92.8698 207.97 92.472 208.143 92.1504 208.49C91.8288 208.833 91.6299 209.315 91.5537 209.938H94.9941V209.849C94.9603 209.252 94.7995 208.791 94.5117 208.465C94.224 208.135 93.8346 207.97 93.3438 207.97ZM103.608 214.127C102.677 214.127 101.919 213.822 101.335 213.213C100.751 212.599 100.459 211.78 100.459 210.756V210.541C100.459 209.859 100.589 209.252 100.847 208.719C101.109 208.181 101.473 207.762 101.938 207.462C102.408 207.157 102.916 207.005 103.462 207.005C104.355 207.005 105.049 207.299 105.544 207.887C106.039 208.475 106.287 209.318 106.287 210.414V210.902H101.634C101.651 211.579 101.847 212.127 102.224 212.546C102.605 212.961 103.087 213.168 103.671 213.168C104.086 213.168 104.437 213.084 104.725 212.915C105.013 212.745 105.265 212.521 105.48 212.242L106.198 212.8C105.622 213.685 104.759 214.127 103.608 214.127ZM103.462 207.97C102.988 207.97 102.59 208.143 102.269 208.49C101.947 208.833 101.748 209.315 101.672 209.938H105.112V209.849C105.078 209.252 104.918 208.791 104.63 208.465C104.342 208.135 103.953 207.97 103.462 207.97ZM108.756 207.132L108.788 207.894C109.291 207.301 109.97 207.005 110.825 207.005C111.786 207.005 112.44 207.373 112.787 208.109C113.015 207.779 113.311 207.513 113.675 207.31C114.043 207.106 114.477 207.005 114.977 207.005C116.483 207.005 117.249 207.803 117.274 209.398V214H116.1V209.468C116.1 208.977 115.988 208.611 115.764 208.37C115.539 208.124 115.163 208.001 114.634 208.001C114.198 208.001 113.836 208.133 113.548 208.395C113.261 208.653 113.093 209.002 113.047 209.442V214H111.866V209.5C111.866 208.501 111.377 208.001 110.4 208.001C109.63 208.001 109.103 208.329 108.819 208.985V214H107.645V207.132H108.756ZM123.292 214C123.224 213.865 123.169 213.623 123.127 213.276C122.581 213.843 121.929 214.127 121.172 214.127C120.495 214.127 119.938 213.937 119.502 213.556C119.071 213.171 118.855 212.684 118.855 212.096C118.855 211.381 119.126 210.826 119.667 210.433C120.213 210.035 120.979 209.836 121.965 209.836H123.108V209.296C123.108 208.886 122.985 208.56 122.74 208.319C122.494 208.073 122.132 207.951 121.654 207.951C121.235 207.951 120.884 208.056 120.601 208.268C120.317 208.48 120.175 208.736 120.175 209.036H118.995C118.995 208.693 119.115 208.363 119.356 208.046C119.602 207.724 119.932 207.47 120.347 207.284C120.766 207.098 121.225 207.005 121.724 207.005C122.515 207.005 123.135 207.204 123.584 207.602C124.033 207.995 124.265 208.539 124.282 209.233V212.394C124.282 213.025 124.363 213.526 124.523 213.898V214H123.292ZM121.343 213.105C121.711 213.105 122.061 213.01 122.391 212.819C122.721 212.629 122.96 212.381 123.108 212.077V210.667H122.188C120.749 210.667 120.029 211.089 120.029 211.931C120.029 212.299 120.152 212.587 120.397 212.794C120.643 213.001 120.958 213.105 121.343 213.105ZM127.399 214H126.225V207.132H127.399V214ZM126.129 205.31C126.129 205.12 126.187 204.959 126.301 204.828C126.419 204.696 126.593 204.631 126.821 204.631C127.05 204.631 127.223 204.696 127.342 204.828C127.46 204.959 127.52 205.12 127.52 205.31C127.52 205.5 127.46 205.659 127.342 205.786C127.223 205.913 127.05 205.977 126.821 205.977C126.593 205.977 126.419 205.913 126.301 205.786C126.187 205.659 126.129 205.5 126.129 205.31ZM130.56 214H129.386V204.25H130.56V214ZM139.91 214C139.842 213.865 139.787 213.623 139.745 213.276C139.199 213.843 138.548 214.127 137.79 214.127C137.113 214.127 136.556 213.937 136.121 213.556C135.689 213.171 135.473 212.684 135.473 212.096C135.473 211.381 135.744 210.826 136.286 210.433C136.832 210.035 137.597 209.836 138.583 209.836H139.726V209.296C139.726 208.886 139.603 208.56 139.358 208.319C139.112 208.073 138.751 207.951 138.272 207.951C137.854 207.951 137.502 208.056 137.219 208.268C136.935 208.48 136.793 208.736 136.793 209.036H135.613C135.613 208.693 135.733 208.363 135.975 208.046C136.22 207.724 136.55 207.47 136.965 207.284C137.384 207.098 137.843 207.005 138.342 207.005C139.134 207.005 139.754 207.204 140.202 207.602C140.651 207.995 140.883 208.539 140.9 209.233V212.394C140.9 213.025 140.981 213.526 141.142 213.898V214H139.91ZM137.961 213.105C138.33 213.105 138.679 213.01 139.009 212.819C139.339 212.629 139.578 212.381 139.726 212.077V210.667H138.806C137.367 210.667 136.647 211.089 136.647 211.931C136.647 212.299 136.77 212.587 137.016 212.794C137.261 213.001 137.576 213.105 137.961 213.105ZM142.456 210.509C142.456 209.455 142.705 208.609 143.205 207.97C143.704 207.326 144.358 207.005 145.166 207.005C145.97 207.005 146.607 207.28 147.077 207.83V204.25H148.251V214H147.172L147.115 213.264C146.645 213.839 145.991 214.127 145.153 214.127C144.358 214.127 143.708 213.801 143.205 213.149C142.705 212.498 142.456 211.647 142.456 210.598V210.509ZM143.63 210.642C143.63 211.421 143.791 212.03 144.112 212.47C144.434 212.91 144.878 213.13 145.445 213.13C146.19 213.13 146.734 212.796 147.077 212.127V208.973C146.725 208.325 146.186 208.001 145.458 208.001C144.882 208.001 144.434 208.224 144.112 208.668C143.791 209.112 143.63 209.77 143.63 210.642ZM149.793 210.509C149.793 209.455 150.043 208.609 150.542 207.97C151.042 207.326 151.696 207.005 152.504 207.005C153.308 207.005 153.945 207.28 154.415 207.83V204.25H155.589V214H154.51L154.453 213.264C153.983 213.839 153.329 214.127 152.491 214.127C151.696 214.127 151.046 213.801 150.542 213.149C150.043 212.498 149.793 211.647 149.793 210.598V210.509ZM150.968 210.642C150.968 211.421 151.129 212.03 151.45 212.47C151.772 212.91 152.216 213.13 152.783 213.13C153.528 213.13 154.072 212.796 154.415 212.127V208.973C154.063 208.325 153.524 208.001 152.796 208.001C152.22 208.001 151.772 208.224 151.45 208.668C151.129 209.112 150.968 209.77 150.968 210.642ZM160.737 208.186C160.559 208.156 160.367 208.141 160.159 208.141C159.389 208.141 158.866 208.469 158.591 209.125V214H157.417V207.132H158.56L158.579 207.925C158.964 207.312 159.51 207.005 160.216 207.005C160.445 207.005 160.618 207.035 160.737 207.094V208.186ZM164.545 214.127C163.614 214.127 162.857 213.822 162.273 213.213C161.689 212.599 161.397 211.78 161.397 210.756V210.541C161.397 209.859 161.526 209.252 161.784 208.719C162.047 208.181 162.41 207.762 162.876 207.462C163.346 207.157 163.854 207.005 164.399 207.005C165.292 207.005 165.986 207.299 166.481 207.887C166.977 208.475 167.224 209.318 167.224 210.414V210.902H162.571C162.588 211.579 162.785 212.127 163.162 212.546C163.542 212.961 164.025 213.168 164.609 213.168C165.024 213.168 165.375 213.084 165.663 212.915C165.95 212.745 166.202 212.521 166.418 212.242L167.135 212.8C166.56 213.685 165.696 214.127 164.545 214.127ZM164.399 207.97C163.925 207.97 163.528 208.143 163.206 208.49C162.884 208.833 162.686 209.315 162.609 209.938H166.05V209.849C166.016 209.252 165.855 208.791 165.567 208.465C165.28 208.135 164.89 207.97 164.399 207.97ZM172.588 212.178C172.588 211.861 172.467 211.615 172.226 211.442C171.989 211.264 171.572 211.112 170.976 210.985C170.383 210.858 169.911 210.706 169.56 210.528C169.213 210.35 168.955 210.139 168.786 209.893C168.621 209.648 168.538 209.356 168.538 209.017C168.538 208.454 168.775 207.978 169.249 207.589C169.727 207.2 170.337 207.005 171.077 207.005C171.856 207.005 172.486 207.206 172.969 207.608C173.455 208.01 173.699 208.524 173.699 209.15H172.518C172.518 208.829 172.381 208.552 172.105 208.319C171.835 208.086 171.492 207.97 171.077 207.97C170.65 207.97 170.315 208.063 170.074 208.249C169.833 208.435 169.712 208.679 169.712 208.979C169.712 209.263 169.825 209.476 170.049 209.62C170.273 209.764 170.677 209.902 171.261 210.033C171.849 210.164 172.326 210.32 172.689 210.502C173.053 210.684 173.322 210.904 173.496 211.163C173.673 211.417 173.762 211.728 173.762 212.096C173.762 212.709 173.517 213.202 173.026 213.575C172.535 213.943 171.898 214.127 171.115 214.127C170.565 214.127 170.078 214.03 169.655 213.835C169.232 213.64 168.9 213.369 168.659 213.022C168.422 212.671 168.303 212.292 168.303 211.886H169.478C169.499 212.28 169.655 212.593 169.947 212.826C170.243 213.054 170.633 213.168 171.115 213.168C171.56 213.168 171.915 213.08 172.182 212.902C172.452 212.72 172.588 212.479 172.588 212.178ZM179.291 212.178C179.291 211.861 179.17 211.615 178.929 211.442C178.692 211.264 178.275 211.112 177.679 210.985C177.086 210.858 176.614 210.706 176.263 210.528C175.916 210.35 175.658 210.139 175.489 209.893C175.324 209.648 175.241 209.356 175.241 209.017C175.241 208.454 175.478 207.978 175.952 207.589C176.43 207.2 177.04 207.005 177.78 207.005C178.559 207.005 179.189 207.206 179.672 207.608C180.159 208.01 180.402 208.524 180.402 209.15H179.221C179.221 208.829 179.084 208.552 178.809 208.319C178.538 208.086 178.195 207.97 177.78 207.97C177.353 207.97 177.019 208.063 176.777 208.249C176.536 208.435 176.416 208.679 176.416 208.979C176.416 209.263 176.528 209.476 176.752 209.62C176.976 209.764 177.38 209.902 177.964 210.033C178.553 210.164 179.029 210.32 179.393 210.502C179.757 210.684 180.025 210.904 180.199 211.163C180.376 211.417 180.465 211.728 180.465 212.096C180.465 212.709 180.22 213.202 179.729 213.575C179.238 213.943 178.601 214.127 177.818 214.127C177.268 214.127 176.782 214.03 176.358 213.835C175.935 213.64 175.603 213.369 175.362 213.022C175.125 212.671 175.006 212.292 175.006 211.886H176.181C176.202 212.28 176.358 212.593 176.65 212.826C176.947 213.054 177.336 213.168 177.818 213.168C178.263 213.168 178.618 213.08 178.885 212.902C179.156 212.72 179.291 212.479 179.291 212.178ZM187.467 212.28L189.066 207.132H190.323L187.562 215.06C187.135 216.203 186.455 216.774 185.524 216.774L185.302 216.755L184.864 216.672V215.72L185.182 215.746C185.579 215.746 185.888 215.665 186.108 215.504C186.333 215.344 186.517 215.049 186.661 214.622L186.921 213.924L184.471 207.132H185.753L187.467 212.28ZM190.964 210.502C190.964 209.83 191.096 209.224 191.358 208.687C191.625 208.15 191.993 207.735 192.462 207.443C192.936 207.151 193.476 207.005 194.081 207.005C195.016 207.005 195.772 207.329 196.347 207.976C196.927 208.624 197.217 209.485 197.217 210.56V210.642C197.217 211.311 197.088 211.912 196.83 212.445C196.576 212.974 196.21 213.386 195.731 213.683C195.257 213.979 194.712 214.127 194.094 214.127C193.163 214.127 192.407 213.803 191.828 213.156C191.252 212.508 190.964 211.651 190.964 210.585V210.502ZM192.145 210.642C192.145 211.404 192.321 212.015 192.672 212.477C193.027 212.938 193.501 213.168 194.094 213.168C194.69 213.168 195.164 212.936 195.516 212.47C195.867 212 196.042 211.345 196.042 210.502C196.042 209.749 195.863 209.14 195.503 208.674C195.147 208.205 194.674 207.97 194.081 207.97C193.501 207.97 193.034 208.2 192.678 208.662C192.323 209.123 192.145 209.783 192.145 210.642ZM202.93 213.321C202.473 213.858 201.802 214.127 200.917 214.127C200.185 214.127 199.627 213.915 199.242 213.492C198.861 213.065 198.668 212.434 198.664 211.601V207.132H199.838V211.569C199.838 212.61 200.262 213.13 201.108 213.13C202.005 213.13 202.602 212.796 202.898 212.127V207.132H204.072V214H202.955L202.93 213.321ZM213.327 213.321C212.87 213.858 212.199 214.127 211.315 214.127C210.583 214.127 210.024 213.915 209.639 213.492C209.258 213.065 209.066 212.434 209.062 211.601V207.132H210.236V211.569C210.236 212.61 210.659 213.13 211.505 213.13C212.403 213.13 212.999 212.796 213.295 212.127V207.132H214.47V214H213.353L213.327 213.321ZM220.259 212.178C220.259 211.861 220.138 211.615 219.897 211.442C219.66 211.264 219.243 211.112 218.646 210.985C218.054 210.858 217.582 210.706 217.231 210.528C216.884 210.35 216.626 210.139 216.457 209.893C216.292 209.648 216.209 209.356 216.209 209.017C216.209 208.454 216.446 207.978 216.92 207.589C217.398 207.2 218.007 207.005 218.748 207.005C219.527 207.005 220.157 207.206 220.64 207.608C221.126 208.01 221.37 208.524 221.37 209.15H220.189C220.189 208.829 220.051 208.552 219.776 208.319C219.506 208.086 219.163 207.97 218.748 207.97C218.321 207.97 217.986 208.063 217.745 208.249C217.504 208.435 217.383 208.679 217.383 208.979C217.383 209.263 217.495 209.476 217.72 209.62C217.944 209.764 218.348 209.902 218.932 210.033C219.52 210.164 219.996 210.32 220.36 210.502C220.724 210.684 220.993 210.904 221.167 211.163C221.344 211.417 221.433 211.728 221.433 212.096C221.433 212.709 221.188 213.202 220.697 213.575C220.206 213.943 219.569 214.127 218.786 214.127C218.236 214.127 217.749 214.03 217.326 213.835C216.903 213.64 216.571 213.369 216.33 213.022C216.093 212.671 215.974 212.292 215.974 211.886H217.148C217.17 212.28 217.326 212.593 217.618 212.826C217.914 213.054 218.304 213.168 218.786 213.168C219.23 213.168 219.586 213.08 219.853 212.902C220.123 212.72 220.259 212.479 220.259 212.178ZM225.813 214.127C224.882 214.127 224.125 213.822 223.541 213.213C222.957 212.599 222.665 211.78 222.665 210.756V210.541C222.665 209.859 222.794 209.252 223.052 208.719C223.314 208.181 223.678 207.762 224.144 207.462C224.613 207.157 225.121 207.005 225.667 207.005C226.56 207.005 227.254 207.299 227.749 207.887C228.244 208.475 228.492 209.318 228.492 210.414V210.902H223.839C223.856 211.579 224.053 212.127 224.429 212.546C224.81 212.961 225.292 213.168 225.876 213.168C226.291 213.168 226.642 213.084 226.93 212.915C227.218 212.745 227.47 212.521 227.686 212.242L228.403 212.8C227.827 213.685 226.964 214.127 225.813 214.127ZM225.667 207.97C225.193 207.97 224.795 208.143 224.474 208.49C224.152 208.833 223.953 209.315 223.877 209.938H227.317V209.849C227.284 209.252 227.123 208.791 226.835 208.465C226.547 208.135 226.158 207.97 225.667 207.97ZM229.571 210.509C229.571 209.455 229.82 208.609 230.32 207.97C230.819 207.326 231.473 207.005 232.281 207.005C233.085 207.005 233.722 207.28 234.192 207.83V204.25H235.366V214H234.287L234.23 213.264C233.76 213.839 233.106 214.127 232.269 214.127C231.473 214.127 230.823 213.801 230.32 213.149C229.82 212.498 229.571 211.647 229.571 210.598V210.509ZM230.745 210.642C230.745 211.421 230.906 212.03 231.228 212.47C231.549 212.91 231.993 213.13 232.561 213.13C233.305 213.13 233.849 212.796 234.192 212.127V208.973C233.841 208.325 233.301 208.001 232.573 208.001C231.998 208.001 231.549 208.224 231.228 208.668C230.906 209.112 230.745 209.77 230.745 210.642ZM246.5 212.381L247.82 207.132H248.995L246.995 214H246.043L244.374 208.795L242.749 214H241.796L239.803 207.132H240.971L242.323 212.273L243.923 207.132H244.869L246.5 212.381ZM251.369 207.963C251.889 207.324 252.566 207.005 253.4 207.005C254.851 207.005 255.583 207.824 255.596 209.461V214H254.422V209.455C254.418 208.96 254.303 208.594 254.079 208.357C253.859 208.12 253.514 208.001 253.044 208.001C252.664 208.001 252.329 208.103 252.042 208.306C251.754 208.509 251.529 208.776 251.369 209.106V214H250.194V204.25H251.369V207.963ZM260.205 214.127C259.274 214.127 258.516 213.822 257.932 213.213C257.348 212.599 257.056 211.78 257.056 210.756V210.541C257.056 209.859 257.185 209.252 257.443 208.719C257.706 208.181 258.07 207.762 258.535 207.462C259.005 207.157 259.513 207.005 260.059 207.005C260.951 207.005 261.646 207.299 262.141 207.887C262.636 208.475 262.883 209.318 262.883 210.414V210.902H258.23C258.247 211.579 258.444 212.127 258.821 212.546C259.202 212.961 259.684 213.168 260.268 213.168C260.683 213.168 261.034 213.084 261.322 212.915C261.61 212.745 261.861 212.521 262.077 212.242L262.794 212.8C262.219 213.685 261.356 214.127 260.205 214.127ZM260.059 207.97C259.585 207.97 259.187 208.143 258.865 208.49C258.544 208.833 258.345 209.315 258.269 209.938H261.709V209.849C261.675 209.252 261.514 208.791 261.227 208.465C260.939 208.135 260.549 207.97 260.059 207.97ZM265.359 207.132L265.397 207.995C265.922 207.335 266.607 207.005 267.454 207.005C268.905 207.005 269.637 207.824 269.65 209.461V214H268.476V209.455C268.471 208.96 268.357 208.594 268.133 208.357C267.913 208.12 267.568 208.001 267.098 208.001C266.717 208.001 266.383 208.103 266.095 208.306C265.807 208.509 265.583 208.776 265.422 209.106V214H264.248V207.132H265.359ZM276.893 212.28L278.492 207.132H279.749L276.988 215.06C276.56 216.203 275.881 216.774 274.95 216.774L274.728 216.755L274.29 216.672V215.72L274.607 215.746C275.005 215.746 275.314 215.665 275.534 215.504C275.758 215.344 275.943 215.049 276.086 214.622L276.347 213.924L273.896 207.132H275.179L276.893 212.28ZM280.39 210.502C280.39 209.83 280.521 209.224 280.784 208.687C281.05 208.15 281.418 207.735 281.888 207.443C282.362 207.151 282.902 207.005 283.507 207.005C284.442 207.005 285.197 207.329 285.773 207.976C286.353 208.624 286.643 209.485 286.643 210.56V210.642C286.643 211.311 286.514 211.912 286.255 212.445C286.001 212.974 285.635 213.386 285.157 213.683C284.683 213.979 284.137 214.127 283.52 214.127C282.589 214.127 281.833 213.803 281.253 213.156C280.678 212.508 280.39 211.651 280.39 210.585V210.502ZM281.571 210.642C281.571 211.404 281.746 212.015 282.098 212.477C282.453 212.938 282.927 213.168 283.52 213.168C284.116 213.168 284.59 212.936 284.941 212.47C285.293 212 285.468 211.345 285.468 210.502C285.468 209.749 285.288 209.14 284.929 208.674C284.573 208.205 284.099 207.97 283.507 207.97C282.927 207.97 282.459 208.2 282.104 208.662C281.749 209.123 281.571 209.783 281.571 210.642ZM292.355 213.321C291.898 213.858 291.228 214.127 290.343 214.127C289.611 214.127 289.053 213.915 288.667 213.492C288.287 213.065 288.094 212.434 288.09 211.601V207.132H289.264V211.569C289.264 212.61 289.687 213.13 290.534 213.13C291.431 213.13 292.028 212.796 292.324 212.127V207.132H293.498V214H292.381L292.355 213.321ZM47.1011 222.132V229.793C47.1011 231.114 46.5023 231.774 45.3047 231.774C45.0465 231.774 44.8075 231.736 44.5874 231.66V230.72C44.7228 230.754 44.9006 230.771 45.1206 230.771C45.383 230.771 45.5819 230.699 45.7173 230.555C45.8569 230.416 45.9268 230.17 45.9268 229.819V222.132H47.1011ZM45.8062 220.31C45.8062 220.124 45.8633 219.965 45.9775 219.834C46.096 219.699 46.2674 219.631 46.4917 219.631C46.7202 219.631 46.8937 219.696 47.0122 219.828C47.1307 219.959 47.1899 220.12 47.1899 220.31C47.1899 220.5 47.1307 220.659 47.0122 220.786C46.8937 220.913 46.7202 220.977 46.4917 220.977C46.2632 220.977 46.0918 220.913 45.9775 220.786C45.8633 220.659 45.8062 220.5 45.8062 220.31ZM48.688 225.502C48.688 224.83 48.8192 224.224 49.0815 223.687C49.3481 223.15 49.7163 222.735 50.186 222.443C50.66 222.151 51.1995 222.005 51.8047 222.005C52.7399 222.005 53.4953 222.329 54.0708 222.976C54.6506 223.624 54.9404 224.485 54.9404 225.56V225.642C54.9404 226.311 54.8114 226.912 54.5532 227.445C54.2993 227.974 53.9333 228.386 53.4551 228.683C52.9811 228.979 52.4352 229.127 51.8174 229.127C50.8864 229.127 50.131 228.803 49.5513 228.156C48.9757 227.508 48.688 226.651 48.688 225.585V225.502ZM49.8687 225.642C49.8687 226.404 50.0443 227.015 50.3955 227.477C50.751 227.938 51.2249 228.168 51.8174 228.168C52.4141 228.168 52.888 227.936 53.2393 227.47C53.5905 227 53.7661 226.345 53.7661 225.502C53.7661 224.749 53.5863 224.14 53.2266 223.674C52.8711 223.205 52.3971 222.97 51.8047 222.97C51.2249 222.97 50.7573 223.2 50.4019 223.662C50.0464 224.123 49.8687 224.783 49.8687 225.642ZM57.689 229H56.5146V222.132H57.689V229ZM56.4194 220.31C56.4194 220.12 56.4766 219.959 56.5908 219.828C56.7093 219.696 56.8828 219.631 57.1113 219.631C57.3398 219.631 57.5133 219.696 57.6318 219.828C57.7503 219.959 57.8096 220.12 57.8096 220.31C57.8096 220.5 57.7503 220.659 57.6318 220.786C57.5133 220.913 57.3398 220.977 57.1113 220.977C56.8828 220.977 56.7093 220.913 56.5908 220.786C56.4766 220.659 56.4194 220.5 56.4194 220.31ZM60.6851 222.132L60.7231 222.995C61.2479 222.335 61.9334 222.005 62.7798 222.005C64.2313 222.005 64.9634 222.824 64.9761 224.461V229H63.8018V224.455C63.7975 223.96 63.6833 223.594 63.459 223.357C63.2389 223.12 62.894 223.001 62.4243 223.001C62.0435 223.001 61.7091 223.103 61.4214 223.306C61.1336 223.509 60.9093 223.776 60.7485 224.106V229H59.5742V222.132H60.6851ZM69.5972 229.127C68.6662 229.127 67.9087 228.822 67.3247 228.213C66.7407 227.599 66.4487 226.78 66.4487 225.756V225.541C66.4487 224.859 66.5778 224.252 66.8359 223.719C67.0983 223.181 67.4622 222.762 67.9277 222.462C68.3975 222.157 68.9053 222.005 69.4512 222.005C70.3441 222.005 71.0381 222.299 71.5332 222.887C72.0283 223.475 72.2759 224.318 72.2759 225.414V225.902H67.623C67.64 226.579 67.8368 227.127 68.2134 227.546C68.5942 227.961 69.0767 228.168 69.6606 228.168C70.0754 228.168 70.4266 228.084 70.7144 227.915C71.0021 227.745 71.2539 227.521 71.4697 227.242L72.187 227.8C71.6115 228.685 70.7482 229.127 69.5972 229.127ZM69.4512 222.97C68.9772 222.97 68.5794 223.143 68.2578 223.49C67.9362 223.833 67.7373 224.315 67.6611 224.938H71.1016V224.849C71.0677 224.252 70.9069 223.791 70.6191 223.465C70.3314 223.135 69.9421 222.97 69.4512 222.97ZM73.355 225.509C73.355 224.455 73.6047 223.609 74.104 222.97C74.6034 222.326 75.2572 222.005 76.0654 222.005C76.8695 222.005 77.5063 222.28 77.9761 222.83V219.25H79.1504V229H78.0713L78.0142 228.264C77.5444 228.839 76.8906 229.127 76.0527 229.127C75.2572 229.127 74.6076 228.801 74.104 228.149C73.6047 227.498 73.355 226.647 73.355 225.598V225.509ZM74.5293 225.642C74.5293 226.421 74.6901 227.03 75.0117 227.47C75.3333 227.91 75.7777 228.13 76.3447 228.13C77.0895 228.13 77.6333 227.796 77.9761 227.127V223.973C77.6248 223.325 77.0853 223.001 76.3574 223.001C75.7819 223.001 75.3333 223.224 75.0117 223.668C74.6901 224.112 74.5293 224.77 74.5293 225.642ZM88.4434 229C88.3757 228.865 88.3206 228.623 88.2783 228.276C87.7324 228.843 87.0807 229.127 86.3232 229.127C85.6462 229.127 85.0897 228.937 84.6538 228.556C84.2222 228.171 84.0063 227.684 84.0063 227.096C84.0063 226.381 84.2772 225.826 84.8188 225.433C85.3647 225.035 86.1307 224.836 87.1167 224.836H88.2593V224.296C88.2593 223.886 88.1366 223.56 87.8911 223.319C87.6457 223.073 87.2839 222.951 86.8057 222.951C86.3867 222.951 86.0355 223.056 85.752 223.268C85.4684 223.48 85.3267 223.736 85.3267 224.036H84.146C84.146 223.693 84.2666 223.363 84.5078 223.046C84.7533 222.724 85.0833 222.47 85.498 222.284C85.917 222.098 86.3761 222.005 86.8755 222.005C87.6668 222.005 88.2868 222.204 88.7354 222.602C89.1839 222.995 89.4167 223.539 89.4336 224.233V227.394C89.4336 228.025 89.514 228.526 89.6748 228.898V229H88.4434ZM86.4946 228.105C86.8628 228.105 87.2119 228.01 87.542 227.819C87.8721 227.629 88.1112 227.381 88.2593 227.077V225.667H87.3389C85.9001 225.667 85.1807 226.089 85.1807 226.931C85.1807 227.299 85.3034 227.587 85.5488 227.794C85.7943 228.001 86.1095 228.105 86.4946 228.105ZM92.3853 222.132L92.4233 222.995C92.9481 222.335 93.6336 222.005 94.48 222.005C95.9315 222.005 96.6636 222.824 96.6763 224.461V229H95.502V224.455C95.4977 223.96 95.3835 223.594 95.1592 223.357C94.9391 223.12 94.5942 223.001 94.1245 223.001C93.7437 223.001 93.4093 223.103 93.1216 223.306C92.8338 223.509 92.6095 223.776 92.4487 224.106V229H91.2744V222.132H92.3853ZM98.1616 225.509C98.1616 224.455 98.4113 223.609 98.9106 222.97C99.41 222.326 100.064 222.005 100.872 222.005C101.676 222.005 102.313 222.28 102.783 222.83V219.25H103.957V229H102.878L102.821 228.264C102.351 228.839 101.697 229.127 100.859 229.127C100.064 229.127 99.4142 228.801 98.9106 228.149C98.4113 227.498 98.1616 226.647 98.1616 225.598V225.509ZM99.3359 225.642C99.3359 226.421 99.4967 227.03 99.8184 227.47C100.14 227.91 100.584 228.13 101.151 228.13C101.896 228.13 102.44 227.796 102.783 227.127V223.973C102.431 223.325 101.892 223.001 101.164 223.001C100.589 223.001 100.14 223.224 99.8184 223.668C99.4967 224.112 99.3359 224.77 99.3359 225.642ZM115.091 227.381L116.411 222.132H117.585L115.586 229H114.634L112.964 223.795L111.339 229H110.387L108.394 222.132H109.562L110.914 227.273L112.514 222.132H113.459L115.091 227.381ZM121.635 229.127C120.704 229.127 119.947 228.822 119.363 228.213C118.779 227.599 118.487 226.78 118.487 225.756V225.541C118.487 224.859 118.616 224.252 118.874 223.719C119.136 223.181 119.5 222.762 119.966 222.462C120.436 222.157 120.943 222.005 121.489 222.005C122.382 222.005 123.076 222.299 123.571 222.887C124.066 223.475 124.314 224.318 124.314 225.414V225.902H119.661C119.678 226.579 119.875 227.127 120.251 227.546C120.632 227.961 121.115 228.168 121.699 228.168C122.113 228.168 122.465 228.084 122.752 227.915C123.04 227.745 123.292 227.521 123.508 227.242L124.225 227.8C123.65 228.685 122.786 229.127 121.635 229.127ZM121.489 222.97C121.015 222.97 120.618 223.143 120.296 223.49C119.974 223.833 119.775 224.315 119.699 224.938H123.14V224.849C123.106 224.252 122.945 223.791 122.657 223.465C122.369 223.135 121.98 222.97 121.489 222.97ZM125.253 222.36L124.587 221.903C124.98 221.353 125.184 220.773 125.196 220.164V219.25H126.358V220.075C126.354 220.498 126.248 220.922 126.041 221.345C125.837 221.764 125.575 222.102 125.253 222.36ZM129.252 229H128.078V219.25H129.252V229ZM132.414 229H131.239V219.25H132.414V229ZM141.522 227.178C141.522 226.861 141.402 226.615 141.161 226.442C140.924 226.264 140.507 226.112 139.91 225.985C139.318 225.858 138.846 225.706 138.495 225.528C138.148 225.35 137.889 225.139 137.72 224.893C137.555 224.648 137.473 224.356 137.473 224.017C137.473 223.454 137.71 222.978 138.184 222.589C138.662 222.2 139.271 222.005 140.012 222.005C140.79 222.005 141.421 222.206 141.903 222.608C142.39 223.01 142.633 223.524 142.633 224.15H141.453C141.453 223.829 141.315 223.552 141.04 223.319C140.769 223.086 140.426 222.97 140.012 222.97C139.584 222.97 139.25 223.063 139.009 223.249C138.768 223.435 138.647 223.679 138.647 223.979C138.647 224.263 138.759 224.476 138.983 224.62C139.208 224.764 139.612 224.902 140.196 225.033C140.784 225.164 141.26 225.32 141.624 225.502C141.988 225.684 142.257 225.904 142.43 226.163C142.608 226.417 142.697 226.728 142.697 227.096C142.697 227.709 142.451 228.202 141.96 228.575C141.47 228.943 140.833 229.127 140.05 229.127C139.5 229.127 139.013 229.03 138.59 228.835C138.167 228.64 137.834 228.369 137.593 228.022C137.356 227.671 137.238 227.292 137.238 226.886H138.412C138.433 227.28 138.59 227.593 138.882 227.826C139.178 228.054 139.567 228.168 140.05 228.168C140.494 228.168 140.85 228.08 141.116 227.902C141.387 227.72 141.522 227.479 141.522 227.178ZM147.077 229.127C146.146 229.127 145.388 228.822 144.804 228.213C144.22 227.599 143.928 226.78 143.928 225.756V225.541C143.928 224.859 144.057 224.252 144.315 223.719C144.578 223.181 144.942 222.762 145.407 222.462C145.877 222.157 146.385 222.005 146.931 222.005C147.824 222.005 148.518 222.299 149.013 222.887C149.508 223.475 149.755 224.318 149.755 225.414V225.902H145.103C145.119 226.579 145.316 227.127 145.693 227.546C146.074 227.961 146.556 228.168 147.14 228.168C147.555 228.168 147.906 228.084 148.194 227.915C148.482 227.745 148.733 227.521 148.949 227.242L149.667 227.8C149.091 228.685 148.228 229.127 147.077 229.127ZM146.931 222.97C146.457 222.97 146.059 223.143 145.737 223.49C145.416 223.833 145.217 224.315 145.141 224.938H148.581V224.849C148.547 224.252 148.386 223.791 148.099 223.465C147.811 223.135 147.422 222.97 146.931 222.97ZM152.231 222.132L152.269 222.995C152.794 222.335 153.479 222.005 154.326 222.005C155.777 222.005 156.509 222.824 156.522 224.461V229H155.348V224.455C155.343 223.96 155.229 223.594 155.005 223.357C154.785 223.12 154.44 223.001 153.97 223.001C153.589 223.001 153.255 223.103 152.967 223.306C152.68 223.509 152.455 223.776 152.294 224.106V229H151.12V222.132H152.231ZM158.007 225.509C158.007 224.455 158.257 223.609 158.756 222.97C159.256 222.326 159.91 222.005 160.718 222.005C161.522 222.005 162.159 222.28 162.628 222.83V219.25H163.803V229H162.724L162.667 228.264C162.197 228.839 161.543 229.127 160.705 229.127C159.91 229.127 159.26 228.801 158.756 228.149C158.257 227.498 158.007 226.647 158.007 225.598V225.509ZM159.182 225.642C159.182 226.421 159.342 227.03 159.664 227.47C159.986 227.91 160.43 228.13 160.997 228.13C161.742 228.13 162.286 227.796 162.628 227.127V223.973C162.277 223.325 161.738 223.001 161.01 223.001C160.434 223.001 159.986 223.224 159.664 223.668C159.342 224.112 159.182 224.77 159.182 225.642ZM171.103 227.28L172.702 222.132H173.959L171.198 230.06C170.77 231.203 170.091 231.774 169.16 231.774L168.938 231.755L168.5 231.672V230.72L168.817 230.746C169.215 230.746 169.524 230.665 169.744 230.504C169.968 230.344 170.153 230.049 170.296 229.622L170.557 228.924L168.106 222.132H169.389L171.103 227.28ZM174.6 225.502C174.6 224.83 174.731 224.224 174.994 223.687C175.26 223.15 175.628 222.735 176.098 222.443C176.572 222.151 177.112 222.005 177.717 222.005C178.652 222.005 179.407 222.329 179.983 222.976C180.563 223.624 180.853 224.485 180.853 225.56V225.642C180.853 226.311 180.723 226.912 180.465 227.445C180.211 227.974 179.845 228.386 179.367 228.683C178.893 228.979 178.347 229.127 177.729 229.127C176.799 229.127 176.043 228.803 175.463 228.156C174.888 227.508 174.6 226.651 174.6 225.585V225.502ZM175.781 225.642C175.781 226.404 175.956 227.015 176.308 227.477C176.663 227.938 177.137 228.168 177.729 228.168C178.326 228.168 178.8 227.936 179.151 227.47C179.503 227 179.678 226.345 179.678 225.502C179.678 224.749 179.498 224.14 179.139 223.674C178.783 223.205 178.309 222.97 177.717 222.97C177.137 222.97 176.669 223.2 176.314 223.662C175.958 224.123 175.781 224.783 175.781 225.642ZM186.565 228.321C186.108 228.858 185.438 229.127 184.553 229.127C183.821 229.127 183.263 228.915 182.877 228.492C182.497 228.065 182.304 227.434 182.3 226.601V222.132H183.474V226.569C183.474 227.61 183.897 228.13 184.744 228.13C185.641 228.13 186.237 227.796 186.534 227.127V222.132H187.708V229H186.591L186.565 228.321ZM193.999 229H192.824V222.132H193.999V229ZM192.729 220.31C192.729 220.12 192.786 219.959 192.9 219.828C193.019 219.696 193.192 219.631 193.421 219.631C193.649 219.631 193.823 219.696 193.941 219.828C194.06 219.959 194.119 220.12 194.119 220.31C194.119 220.5 194.06 220.659 193.941 220.786C193.823 220.913 193.649 220.977 193.421 220.977C193.192 220.977 193.019 220.913 192.9 220.786C192.786 220.659 192.729 220.5 192.729 220.31ZM196.995 222.132L197.033 222.995C197.557 222.335 198.243 222.005 199.089 222.005C200.541 222.005 201.273 222.824 201.286 224.461V229H200.111V224.455C200.107 223.96 199.993 223.594 199.769 223.357C199.549 223.12 199.204 223.001 198.734 223.001C198.353 223.001 198.019 223.103 197.731 223.306C197.443 223.509 197.219 223.776 197.058 224.106V229H195.884V222.132H196.995ZM207.056 227.178C207.056 226.861 206.935 226.615 206.694 226.442C206.457 226.264 206.04 226.112 205.443 225.985C204.851 225.858 204.379 225.706 204.028 225.528C203.681 225.35 203.423 225.139 203.253 224.893C203.088 224.648 203.006 224.356 203.006 224.017C203.006 223.454 203.243 222.978 203.717 222.589C204.195 222.2 204.804 222.005 205.545 222.005C206.324 222.005 206.954 222.206 207.437 222.608C207.923 223.01 208.167 223.524 208.167 224.15H206.986C206.986 223.829 206.848 223.552 206.573 223.319C206.302 223.086 205.96 222.97 205.545 222.97C205.118 222.97 204.783 223.063 204.542 223.249C204.301 223.435 204.18 223.679 204.18 223.979C204.18 224.263 204.292 224.476 204.517 224.62C204.741 224.764 205.145 224.902 205.729 225.033C206.317 225.164 206.793 225.32 207.157 225.502C207.521 225.684 207.79 225.904 207.963 226.163C208.141 226.417 208.23 226.728 208.23 227.096C208.23 227.709 207.985 228.202 207.494 228.575C207.003 228.943 206.366 229.127 205.583 229.127C205.033 229.127 204.546 229.03 204.123 228.835C203.7 228.64 203.368 228.369 203.126 228.022C202.889 227.671 202.771 227.292 202.771 226.886H203.945C203.966 227.28 204.123 227.593 204.415 227.826C204.711 228.054 205.101 228.168 205.583 228.168C206.027 228.168 206.383 228.08 206.649 227.902C206.92 227.72 207.056 227.479 207.056 227.178ZM211.353 220.469V222.132H212.635V223.04H211.353V227.299C211.353 227.574 211.41 227.781 211.524 227.921C211.639 228.056 211.833 228.124 212.108 228.124C212.244 228.124 212.43 228.099 212.667 228.048V229C212.358 229.085 212.058 229.127 211.766 229.127C211.241 229.127 210.845 228.968 210.579 228.651C210.312 228.333 210.179 227.883 210.179 227.299V223.04H208.928V222.132H210.179V220.469H211.353ZM217.333 223.186C217.155 223.156 216.962 223.141 216.755 223.141C215.985 223.141 215.462 223.469 215.187 224.125V229H214.013V222.132H215.155L215.174 222.925C215.559 222.312 216.105 222.005 216.812 222.005C217.041 222.005 217.214 222.035 217.333 222.094V223.186ZM222.658 228.321C222.201 228.858 221.53 229.127 220.646 229.127C219.914 229.127 219.355 228.915 218.97 228.492C218.589 228.065 218.397 227.434 218.393 226.601V222.132H219.567V226.569C219.567 227.61 219.99 228.13 220.836 228.13C221.734 228.13 222.33 227.796 222.626 227.127V222.132H223.801V229H222.684L222.658 228.321ZM228.346 228.168C228.765 228.168 229.131 228.042 229.444 227.788C229.757 227.534 229.931 227.216 229.964 226.835H231.075C231.054 227.229 230.919 227.604 230.669 227.959C230.419 228.314 230.085 228.598 229.666 228.81C229.251 229.021 228.811 229.127 228.346 229.127C227.41 229.127 226.666 228.816 226.111 228.194C225.561 227.568 225.286 226.713 225.286 225.629V225.433C225.286 224.764 225.409 224.169 225.654 223.649C225.9 223.128 226.251 222.724 226.708 222.437C227.169 222.149 227.713 222.005 228.339 222.005C229.11 222.005 229.749 222.236 230.256 222.697C230.768 223.158 231.041 223.757 231.075 224.493H229.964C229.931 224.049 229.761 223.685 229.457 223.401C229.156 223.114 228.784 222.97 228.339 222.97C227.743 222.97 227.279 223.186 226.949 223.617C226.623 224.045 226.46 224.665 226.46 225.477V225.699C226.46 226.491 226.623 227.1 226.949 227.527C227.275 227.955 227.741 228.168 228.346 228.168ZM233.989 220.469V222.132H235.271V223.04H233.989V227.299C233.989 227.574 234.046 227.781 234.16 227.921C234.274 228.056 234.469 228.124 234.744 228.124C234.88 228.124 235.066 228.099 235.303 228.048V229C234.994 229.085 234.693 229.127 234.401 229.127C233.877 229.127 233.481 228.968 233.214 228.651C232.948 228.333 232.814 227.883 232.814 227.299V223.04H231.564V222.132H232.814V220.469H233.989ZM237.924 229H236.75V222.132H237.924V229ZM236.655 220.31C236.655 220.12 236.712 219.959 236.826 219.828C236.945 219.696 237.118 219.631 237.347 219.631C237.575 219.631 237.749 219.696 237.867 219.828C237.986 219.959 238.045 220.12 238.045 220.31C238.045 220.5 237.986 220.659 237.867 220.786C237.749 220.913 237.575 220.977 237.347 220.977C237.118 220.977 236.945 220.913 236.826 220.786C236.712 220.659 236.655 220.5 236.655 220.31ZM239.499 225.502C239.499 224.83 239.63 224.224 239.892 223.687C240.159 223.15 240.527 222.735 240.997 222.443C241.471 222.151 242.01 222.005 242.615 222.005C243.55 222.005 244.306 222.329 244.881 222.976C245.461 223.624 245.751 224.485 245.751 225.56V225.642C245.751 226.311 245.622 226.912 245.364 227.445C245.11 227.974 244.744 228.386 244.266 228.683C243.792 228.979 243.246 229.127 242.628 229.127C241.697 229.127 240.942 228.803 240.362 228.156C239.786 227.508 239.499 226.651 239.499 225.585V225.502ZM240.679 225.642C240.679 226.404 240.855 227.015 241.206 227.477C241.562 227.938 242.035 228.168 242.628 228.168C243.225 228.168 243.699 227.936 244.05 227.47C244.401 227 244.577 226.345 244.577 225.502C244.577 224.749 244.397 224.14 244.037 223.674C243.682 223.205 243.208 222.97 242.615 222.97C242.035 222.97 241.568 223.2 241.212 223.662C240.857 224.123 240.679 224.783 240.679 225.642ZM248.334 222.132L248.373 222.995C248.897 222.335 249.583 222.005 250.429 222.005C251.881 222.005 252.613 222.824 252.625 224.461V229H251.451V224.455C251.447 223.96 251.333 223.594 251.108 223.357C250.888 223.12 250.543 223.001 250.074 223.001C249.693 223.001 249.359 223.103 249.071 223.306C248.783 223.509 248.559 223.776 248.398 224.106V229H247.224V222.132H248.334ZM258.396 227.178C258.396 226.861 258.275 226.615 258.034 226.442C257.797 226.264 257.38 226.112 256.783 225.985C256.191 225.858 255.719 225.706 255.368 225.528C255.021 225.35 254.763 225.139 254.593 224.893C254.428 224.648 254.346 224.356 254.346 224.017C254.346 223.454 254.583 222.978 255.057 222.589C255.535 222.2 256.144 222.005 256.885 222.005C257.663 222.005 258.294 222.206 258.776 222.608C259.263 223.01 259.506 223.524 259.506 224.15H258.326C258.326 223.829 258.188 223.552 257.913 223.319C257.642 223.086 257.299 222.97 256.885 222.97C256.457 222.97 256.123 223.063 255.882 223.249C255.641 223.435 255.52 223.679 255.52 223.979C255.52 224.263 255.632 224.476 255.856 224.62C256.081 224.764 256.485 224.902 257.069 225.033C257.657 225.164 258.133 225.32 258.497 225.502C258.861 225.684 259.13 225.904 259.303 226.163C259.481 226.417 259.57 226.728 259.57 227.096C259.57 227.709 259.324 228.202 258.833 228.575C258.343 228.943 257.706 229.127 256.923 229.127C256.373 229.127 255.886 229.03 255.463 228.835C255.04 228.64 254.708 228.369 254.466 228.022C254.229 227.671 254.111 227.292 254.111 226.886H255.285C255.306 227.28 255.463 227.593 255.755 227.826C256.051 228.054 256.44 228.168 256.923 228.168C257.367 228.168 257.723 228.08 257.989 227.902C258.26 227.72 258.396 227.479 258.396 227.178ZM265.917 220.469V222.132H267.2V223.04H265.917V227.299C265.917 227.574 265.975 227.781 266.089 227.921C266.203 228.056 266.398 228.124 266.673 228.124C266.808 228.124 266.994 228.099 267.231 228.048V229C266.923 229.085 266.622 229.127 266.33 229.127C265.805 229.127 265.41 228.968 265.143 228.651C264.876 228.333 264.743 227.883 264.743 227.299V223.04H263.493V222.132H264.743V220.469H265.917ZM268.139 225.502C268.139 224.83 268.27 224.224 268.533 223.687C268.799 223.15 269.167 222.735 269.637 222.443C270.111 222.151 270.651 222.005 271.256 222.005C272.191 222.005 272.946 222.329 273.522 222.976C274.102 223.624 274.392 224.485 274.392 225.56V225.642C274.392 226.311 274.263 226.912 274.004 227.445C273.75 227.974 273.384 228.386 272.906 228.683C272.432 228.979 271.886 229.127 271.269 229.127C270.338 229.127 269.582 228.803 269.002 228.156C268.427 227.508 268.139 226.651 268.139 225.585V225.502ZM269.32 225.642C269.32 226.404 269.495 227.015 269.847 227.477C270.202 227.938 270.676 228.168 271.269 228.168C271.865 228.168 272.339 227.936 272.69 227.47C273.042 227 273.217 226.345 273.217 225.502C273.217 224.749 273.037 224.14 272.678 223.674C272.322 223.205 271.848 222.97 271.256 222.97C270.676 222.97 270.208 223.2 269.853 223.662C269.498 224.123 269.32 224.783 269.32 225.642ZM282.409 223.186C282.231 223.156 282.038 223.141 281.831 223.141C281.061 223.141 280.538 223.469 280.263 224.125V229H279.089V222.132H280.231L280.25 222.925C280.636 222.312 281.181 222.005 281.888 222.005C282.117 222.005 282.29 222.035 282.409 222.094V223.186ZM286.217 229.127C285.286 229.127 284.529 228.822 283.945 228.213C283.361 227.599 283.069 226.78 283.069 225.756V225.541C283.069 224.859 283.198 224.252 283.456 223.719C283.718 223.181 284.082 222.762 284.548 222.462C285.018 222.157 285.525 222.005 286.071 222.005C286.964 222.005 287.658 222.299 288.153 222.887C288.648 223.475 288.896 224.318 288.896 225.414V225.902H284.243C284.26 226.579 284.457 227.127 284.833 227.546C285.214 227.961 285.697 228.168 286.281 228.168C286.695 228.168 287.047 228.084 287.334 227.915C287.622 227.745 287.874 227.521 288.09 227.242L288.807 227.8C288.232 228.685 287.368 229.127 286.217 229.127ZM286.071 222.97C285.597 222.97 285.2 223.143 284.878 223.49C284.556 223.833 284.357 224.315 284.281 224.938H287.722V224.849C287.688 224.252 287.527 223.791 287.239 223.465C286.951 223.135 286.562 222.97 286.071 222.97ZM294.26 227.178C294.26 226.861 294.139 226.615 293.898 226.442C293.661 226.264 293.244 226.112 292.647 225.985C292.055 225.858 291.583 225.706 291.232 225.528C290.885 225.35 290.627 225.139 290.458 224.893C290.292 224.648 290.21 224.356 290.21 224.017C290.21 223.454 290.447 222.978 290.921 222.589C291.399 222.2 292.008 222.005 292.749 222.005C293.528 222.005 294.158 222.206 294.641 222.608C295.127 223.01 295.371 223.524 295.371 224.15H294.19C294.19 223.829 294.052 223.552 293.777 223.319C293.507 223.086 293.164 222.97 292.749 222.97C292.322 222.97 291.987 223.063 291.746 223.249C291.505 223.435 291.384 223.679 291.384 223.979C291.384 224.263 291.496 224.476 291.721 224.62C291.945 224.764 292.349 224.902 292.933 225.033C293.521 225.164 293.997 225.32 294.361 225.502C294.725 225.684 294.994 225.904 295.167 226.163C295.345 226.417 295.434 226.728 295.434 227.096C295.434 227.709 295.189 228.202 294.698 228.575C294.207 228.943 293.57 229.127 292.787 229.127C292.237 229.127 291.75 229.03 291.327 228.835C290.904 228.64 290.572 228.369 290.331 228.022C290.094 227.671 289.975 227.292 289.975 226.886H291.149C291.171 227.28 291.327 227.593 291.619 227.826C291.915 228.054 292.305 228.168 292.787 228.168C293.231 228.168 293.587 228.08 293.854 227.902C294.124 227.72 294.26 227.479 294.26 227.178ZM299.814 229.127C298.883 229.127 298.125 228.822 297.542 228.213C296.958 227.599 296.666 226.78 296.666 225.756V225.541C296.666 224.859 296.795 224.252 297.053 223.719C297.315 223.181 297.679 222.762 298.145 222.462C298.614 222.157 299.122 222.005 299.668 222.005C300.561 222.005 301.255 222.299 301.75 222.887C302.245 223.475 302.493 224.318 302.493 225.414V225.902H297.84C297.857 226.579 298.054 227.127 298.43 227.546C298.811 227.961 299.293 228.168 299.877 228.168C300.292 228.168 300.643 228.084 300.931 227.915C301.219 227.745 301.471 227.521 301.687 227.242L302.404 227.8C301.828 228.685 300.965 229.127 299.814 229.127ZM299.668 222.97C299.194 222.97 298.796 223.143 298.475 223.49C298.153 223.833 297.954 224.315 297.878 224.938H301.318V224.849C301.285 224.252 301.124 223.791 300.836 223.465C300.548 223.135 300.159 222.97 299.668 222.97ZM305.451 220.469V222.132H306.733V223.04H305.451V227.299C305.451 227.574 305.508 227.781 305.622 227.921C305.736 228.056 305.931 228.124 306.206 228.124C306.341 228.124 306.528 228.099 306.765 228.048V229C306.456 229.085 306.155 229.127 305.863 229.127C305.339 229.127 304.943 228.968 304.676 228.651C304.41 228.333 304.276 227.883 304.276 227.299V223.04H303.026V222.132H304.276V220.469H305.451ZM48.1357 242.28L49.7354 237.132H50.9922L48.231 245.06C47.8035 246.203 47.1243 246.774 46.1934 246.774L45.9712 246.755L45.5332 246.672V245.72L45.8506 245.746C46.2484 245.746 46.5573 245.665 46.7773 245.504C47.0016 245.344 47.1857 245.049 47.3296 244.622L47.5898 243.924L45.1396 237.132H46.4219L48.1357 242.28ZM51.6333 240.502C51.6333 239.83 51.7645 239.224 52.0269 238.687C52.2935 238.15 52.6616 237.735 53.1313 237.443C53.6053 237.151 54.1449 237.005 54.75 237.005C55.6852 237.005 56.4406 237.329 57.0161 237.976C57.5959 238.624 57.8857 239.485 57.8857 240.56V240.642C57.8857 241.311 57.7567 241.912 57.4985 242.445C57.2446 242.974 56.8786 243.386 56.4004 243.683C55.9264 243.979 55.3805 244.127 54.7627 244.127C53.8317 244.127 53.0763 243.803 52.4966 243.156C51.9211 242.508 51.6333 241.651 51.6333 240.585V240.502ZM52.814 240.642C52.814 241.404 52.9896 242.015 53.3408 242.477C53.6963 242.938 54.1702 243.168 54.7627 243.168C55.3594 243.168 55.8333 242.936 56.1846 242.47C56.5358 242 56.7114 241.345 56.7114 240.502C56.7114 239.749 56.5316 239.14 56.1719 238.674C55.8164 238.205 55.3424 237.97 54.75 237.97C54.1702 237.97 53.7026 238.2 53.3472 238.662C52.9917 239.123 52.814 239.783 52.814 240.642ZM63.5986 243.321C63.1416 243.858 62.4709 244.127 61.5864 244.127C60.8543 244.127 60.2957 243.915 59.9106 243.492C59.5298 243.065 59.3372 242.434 59.333 241.601V237.132H60.5073V241.569C60.5073 242.61 60.9305 243.13 61.7769 243.13C62.674 243.13 63.2707 242.796 63.5669 242.127V237.132H64.7412V244H63.624L63.5986 243.321ZM69.8511 238.186C69.6733 238.156 69.4808 238.141 69.2734 238.141C68.5033 238.141 67.9806 238.469 67.7056 239.125V244H66.5312V237.132H67.6738L67.6929 237.925C68.078 237.312 68.6239 237.005 69.3306 237.005C69.5591 237.005 69.7326 237.035 69.8511 237.094V238.186ZM79.9629 240.642C79.9629 241.687 79.7238 242.529 79.2456 243.168C78.7674 243.807 78.12 244.127 77.3032 244.127C76.4696 244.127 75.8136 243.862 75.3354 243.333V246.641H74.1611V237.132H75.2339L75.291 237.894C75.7692 237.301 76.4336 237.005 77.2842 237.005C78.1094 237.005 78.7611 237.316 79.2393 237.938C79.7217 238.56 79.9629 239.425 79.9629 240.534V240.642ZM78.7886 240.509C78.7886 239.734 78.6235 239.123 78.2935 238.674C77.9634 238.226 77.5106 238.001 76.9351 238.001C76.2241 238.001 75.6909 238.317 75.3354 238.947V242.229C75.6867 242.855 76.2241 243.168 76.9478 243.168C77.5106 243.168 77.957 242.946 78.2871 242.502C78.6214 242.053 78.7886 241.389 78.7886 240.509ZM85.7012 244C85.6335 243.865 85.5785 243.623 85.5361 243.276C84.9902 243.843 84.3385 244.127 83.5811 244.127C82.904 244.127 82.3475 243.937 81.9116 243.556C81.48 243.171 81.2642 242.684 81.2642 242.096C81.2642 241.381 81.535 240.826 82.0767 240.433C82.6226 240.035 83.3885 239.836 84.3745 239.836H85.5171V239.296C85.5171 238.886 85.3944 238.56 85.1489 238.319C84.9035 238.073 84.5417 237.951 84.0635 237.951C83.6445 237.951 83.2933 238.056 83.0098 238.268C82.7262 238.48 82.5845 238.736 82.5845 239.036H81.4038C81.4038 238.693 81.5244 238.363 81.7656 238.046C82.0111 237.724 82.3411 237.47 82.7559 237.284C83.1748 237.098 83.634 237.005 84.1333 237.005C84.9246 237.005 85.5446 237.204 85.9932 237.602C86.4417 237.995 86.6745 238.539 86.6914 239.233V242.394C86.6914 243.025 86.7718 243.526 86.9326 243.898V244H85.7012ZM83.7524 243.105C84.1206 243.105 84.4697 243.01 84.7998 242.819C85.1299 242.629 85.369 242.381 85.5171 242.077V240.667H84.5967C83.1579 240.667 82.4385 241.089 82.4385 241.931C82.4385 242.299 82.5612 242.587 82.8066 242.794C83.0521 243.001 83.3674 243.105 83.7524 243.105ZM92.5312 242.178C92.5312 241.861 92.4106 241.615 92.1694 241.442C91.9325 241.264 91.5156 241.112 90.9189 240.985C90.3265 240.858 89.8547 240.706 89.5034 240.528C89.1564 240.35 88.8983 240.139 88.729 239.893C88.564 239.648 88.4814 239.356 88.4814 239.017C88.4814 238.454 88.7184 237.978 89.1924 237.589C89.6706 237.2 90.2799 237.005 91.0205 237.005C91.7992 237.005 92.4297 237.206 92.9121 237.608C93.3988 238.01 93.6421 238.524 93.6421 239.15H92.4614C92.4614 238.829 92.3239 238.552 92.0488 238.319C91.778 238.086 91.4352 237.97 91.0205 237.97C90.5931 237.97 90.2588 238.063 90.0176 238.249C89.7764 238.435 89.6558 238.679 89.6558 238.979C89.6558 239.263 89.7679 239.476 89.9922 239.62C90.2165 239.764 90.6206 239.902 91.2046 240.033C91.7928 240.164 92.2689 240.32 92.6328 240.502C92.9967 240.684 93.2655 240.904 93.439 241.163C93.6167 241.417 93.7056 241.728 93.7056 242.096C93.7056 242.709 93.4601 243.202 92.9692 243.575C92.4784 243.943 91.8415 244.127 91.0586 244.127C90.5085 244.127 90.0218 244.03 89.5986 243.835C89.1755 243.64 88.8433 243.369 88.6021 243.022C88.3651 242.671 88.2466 242.292 88.2466 241.886H89.4209C89.4421 242.28 89.5986 242.593 89.8906 242.826C90.1868 243.054 90.5762 243.168 91.0586 243.168C91.5029 243.168 91.8584 243.08 92.125 242.902C92.3958 242.72 92.5312 242.479 92.5312 242.178ZM99.2344 242.178C99.2344 241.861 99.1138 241.615 98.8726 241.442C98.6356 241.264 98.2188 241.112 97.6221 240.985C97.0296 240.858 96.5578 240.706 96.2065 240.528C95.8595 240.35 95.6014 240.139 95.4321 239.893C95.2671 239.648 95.1846 239.356 95.1846 239.017C95.1846 238.454 95.4215 237.978 95.8955 237.589C96.3737 237.2 96.9831 237.005 97.7236 237.005C98.5023 237.005 99.1328 237.206 99.6152 237.608C100.102 238.01 100.345 238.524 100.345 239.15H99.1646C99.1646 238.829 99.027 238.552 98.752 238.319C98.4811 238.086 98.1383 237.97 97.7236 237.97C97.2962 237.97 96.9619 238.063 96.7207 238.249C96.4795 238.435 96.3589 238.679 96.3589 238.979C96.3589 239.263 96.471 239.476 96.6953 239.62C96.9196 239.764 97.3237 239.902 97.9077 240.033C98.4959 240.164 98.972 240.32 99.3359 240.502C99.6999 240.684 99.9686 240.904 100.142 241.163C100.32 241.417 100.409 241.728 100.409 242.096C100.409 242.709 100.163 243.202 99.6724 243.575C99.1815 243.943 98.5446 244.127 97.7617 244.127C97.2116 244.127 96.7249 244.03 96.3018 243.835C95.8786 243.64 95.5464 243.369 95.3052 243.022C95.0682 242.671 94.9497 242.292 94.9497 241.886H96.124C96.1452 242.28 96.3018 242.593 96.5938 242.826C96.89 243.054 97.2793 243.168 97.7617 243.168C98.2061 243.168 98.5615 243.08 98.8281 242.902C99.099 242.72 99.2344 242.479 99.2344 242.178ZM108.02 242.381L109.34 237.132H110.514L108.515 244H107.562L105.893 238.795L104.268 244H103.316L101.323 237.132H102.491L103.843 242.273L105.442 237.132H106.388L108.02 242.381ZM111.403 240.502C111.403 239.83 111.534 239.224 111.796 238.687C112.063 238.15 112.431 237.735 112.901 237.443C113.375 237.151 113.914 237.005 114.52 237.005C115.455 237.005 116.21 237.329 116.786 237.976C117.365 238.624 117.655 239.485 117.655 240.56V240.642C117.655 241.311 117.526 241.912 117.268 242.445C117.014 242.974 116.648 243.386 116.17 243.683C115.696 243.979 115.15 244.127 114.532 244.127C113.601 244.127 112.846 243.803 112.266 243.156C111.691 242.508 111.403 241.651 111.403 240.585V240.502ZM112.583 240.642C112.583 241.404 112.759 242.015 113.11 242.477C113.466 242.938 113.94 243.168 114.532 243.168C115.129 243.168 115.603 242.936 115.954 242.47C116.305 242 116.481 241.345 116.481 240.502C116.481 239.749 116.301 239.14 115.941 238.674C115.586 238.205 115.112 237.97 114.52 237.97C113.94 237.97 113.472 238.2 113.117 238.662C112.761 239.123 112.583 239.783 112.583 240.642ZM122.448 238.186C122.27 238.156 122.077 238.141 121.87 238.141C121.1 238.141 120.577 238.469 120.302 239.125V244H119.128V237.132H120.271L120.29 237.925C120.675 237.312 121.221 237.005 121.927 237.005C122.156 237.005 122.329 237.035 122.448 237.094V238.186ZM123.121 240.509C123.121 239.455 123.37 238.609 123.87 237.97C124.369 237.326 125.023 237.005 125.831 237.005C126.635 237.005 127.272 237.28 127.742 237.83V234.25H128.916V244H127.837L127.78 243.264C127.31 243.839 126.656 244.127 125.818 244.127C125.023 244.127 124.373 243.801 123.87 243.149C123.37 242.498 123.121 241.647 123.121 240.598V240.509ZM124.295 240.642C124.295 241.421 124.456 242.03 124.777 242.47C125.099 242.91 125.543 243.13 126.11 243.13C126.855 243.13 127.399 242.796 127.742 242.127V238.973C127.39 238.325 126.851 238.001 126.123 238.001C125.548 238.001 125.099 238.224 124.777 238.668C124.456 239.112 124.295 239.77 124.295 240.642ZM130.77 243.384C130.77 243.181 130.829 243.012 130.947 242.876C131.07 242.741 131.252 242.673 131.493 242.673C131.734 242.673 131.916 242.741 132.039 242.876C132.166 243.012 132.229 243.181 132.229 243.384C132.229 243.579 132.166 243.742 132.039 243.873C131.916 244.004 131.734 244.07 131.493 244.07C131.252 244.07 131.07 244.004 130.947 243.873C130.829 243.742 130.77 243.579 130.77 243.384Z" fill="black"/>
<path d="M153.341 352.563C152.215 352.24 151.395 351.843 150.88 351.374C150.369 350.9 150.114 350.317 150.114 349.624C150.114 348.84 150.426 348.193 151.051 347.683C151.68 347.168 152.495 346.91 153.498 346.91C154.182 346.91 154.79 347.042 155.323 347.307C155.861 347.571 156.276 347.936 156.567 348.4C156.864 348.865 157.012 349.373 157.012 349.925H155.692C155.692 349.323 155.501 348.852 155.118 348.51C154.735 348.163 154.195 347.99 153.498 347.99C152.851 347.99 152.345 348.134 151.98 348.421C151.62 348.703 151.44 349.098 151.44 349.604C151.44 350.009 151.611 350.353 151.953 350.636C152.299 350.914 152.885 351.169 153.71 351.401C154.539 351.634 155.187 351.891 155.651 352.174C156.121 352.452 156.467 352.778 156.69 353.151C156.918 353.525 157.032 353.965 157.032 354.471C157.032 355.277 156.718 355.924 156.089 356.412C155.46 356.895 154.619 357.137 153.566 357.137C152.883 357.137 152.245 357.007 151.652 356.747C151.06 356.483 150.602 356.123 150.278 355.667C149.959 355.211 149.8 354.694 149.8 354.115H151.119C151.119 354.717 151.34 355.193 151.782 355.544C152.229 355.89 152.824 356.063 153.566 356.063C154.259 356.063 154.79 355.922 155.159 355.64C155.528 355.357 155.713 354.972 155.713 354.484C155.713 353.997 155.542 353.621 155.2 353.356C154.858 353.088 154.239 352.823 153.341 352.563ZM161.592 357.137C160.589 357.137 159.773 356.809 159.145 356.152C158.516 355.492 158.201 354.61 158.201 353.507V353.274C158.201 352.541 158.34 351.887 158.618 351.312C158.901 350.734 159.293 350.283 159.794 349.959C160.3 349.631 160.847 349.467 161.435 349.467C162.396 349.467 163.144 349.784 163.677 350.417C164.21 351.05 164.477 351.957 164.477 353.138V353.664H159.466C159.484 354.393 159.696 354.983 160.102 355.435C160.512 355.881 161.031 356.104 161.66 356.104C162.107 356.104 162.485 356.013 162.795 355.831C163.105 355.649 163.376 355.407 163.608 355.106L164.381 355.708C163.761 356.66 162.831 357.137 161.592 357.137ZM161.435 350.506C160.924 350.506 160.496 350.693 160.149 351.066C159.803 351.436 159.589 351.955 159.507 352.625H163.212V352.529C163.175 351.887 163.002 351.39 162.692 351.039C162.382 350.684 161.963 350.506 161.435 350.506ZM167.143 349.604L167.184 350.533C167.749 349.822 168.487 349.467 169.398 349.467C170.962 349.467 171.75 350.349 171.764 352.112V357H170.499V352.105C170.494 351.572 170.371 351.178 170.13 350.923C169.893 350.668 169.521 350.54 169.016 350.54C168.605 350.54 168.245 350.649 167.936 350.868C167.626 351.087 167.384 351.374 167.211 351.729V357H165.946V349.604H167.143ZM173.363 353.24C173.363 352.105 173.632 351.194 174.17 350.506C174.708 349.813 175.412 349.467 176.282 349.467C177.148 349.467 177.834 349.763 178.34 350.355V346.5H179.604V357H178.442L178.381 356.207C177.875 356.827 177.171 357.137 176.269 357.137C175.412 357.137 174.712 356.786 174.17 356.084C173.632 355.382 173.363 354.466 173.363 353.336V353.24ZM174.628 353.384C174.628 354.222 174.801 354.879 175.147 355.353C175.494 355.826 175.972 356.063 176.583 356.063C177.385 356.063 177.971 355.703 178.34 354.983V351.586C177.962 350.889 177.381 350.54 176.597 350.54C175.977 350.54 175.494 350.779 175.147 351.258C174.801 351.736 174.628 352.445 174.628 353.384ZM190.87 352.399H186.557V355.927H191.567V357H185.244V347.047H191.499V348.127H186.557V351.326H190.87V352.399ZM194.192 349.604L194.227 350.424C194.769 349.786 195.5 349.467 196.421 349.467C197.455 349.467 198.16 349.863 198.533 350.656C198.779 350.301 199.098 350.014 199.49 349.795C199.887 349.576 200.354 349.467 200.892 349.467C202.514 349.467 203.339 350.326 203.366 352.044V357H202.102V352.119C202.102 351.59 201.981 351.196 201.739 350.937C201.498 350.672 201.092 350.54 200.522 350.54C200.053 350.54 199.663 350.681 199.354 350.964C199.044 351.242 198.864 351.618 198.813 352.092V357H197.542V352.153C197.542 351.078 197.016 350.54 195.963 350.54C195.133 350.54 194.566 350.893 194.261 351.6V357H192.996V349.604H194.192ZM209.847 357C209.774 356.854 209.715 356.594 209.669 356.221C209.081 356.831 208.379 357.137 207.563 357.137C206.834 357.137 206.235 356.932 205.766 356.521C205.301 356.107 205.068 355.583 205.068 354.949C205.068 354.179 205.36 353.582 205.943 353.158C206.531 352.73 207.356 352.516 208.418 352.516H209.648V351.935C209.648 351.493 209.516 351.142 209.252 350.882C208.988 350.618 208.598 350.485 208.083 350.485C207.632 350.485 207.254 350.599 206.948 350.827C206.643 351.055 206.49 351.331 206.49 351.654H205.219C205.219 351.285 205.349 350.93 205.608 350.588C205.873 350.242 206.228 349.968 206.675 349.768C207.126 349.567 207.62 349.467 208.158 349.467C209.01 349.467 209.678 349.681 210.161 350.109C210.644 350.533 210.895 351.119 210.913 351.866V355.271C210.913 355.95 211 356.49 211.173 356.891V357H209.847ZM207.748 356.036C208.145 356.036 208.521 355.934 208.876 355.729C209.231 355.523 209.489 355.257 209.648 354.929V353.411H208.657C207.108 353.411 206.333 353.865 206.333 354.771C206.333 355.168 206.465 355.478 206.729 355.701C206.994 355.924 207.333 356.036 207.748 356.036ZM214.27 357H213.005V349.604H214.27V357ZM212.902 347.642C212.902 347.437 212.964 347.263 213.087 347.122C213.215 346.981 213.401 346.91 213.647 346.91C213.894 346.91 214.08 346.981 214.208 347.122C214.336 347.263 214.399 347.437 214.399 347.642C214.399 347.847 214.336 348.018 214.208 348.154C214.08 348.291 213.894 348.359 213.647 348.359C213.401 348.359 213.215 348.291 213.087 348.154C212.964 348.018 212.902 347.847 212.902 347.642ZM217.674 357H216.409V346.5H217.674V357Z" fill="white"/>
<g clip-path="url(#clip0)">
<path d="M230.517 69.5342L226.737 63.1898H221.412C218.973 63.1894 216.713 64.5271 215.459 66.7136L211.931 72.707L224.448 81.0346L230.517 69.5342Z" fill="#6A9923"/>
<path d="M250.449 74.6259L246.069 66.7588C244.954 64.556 242.763 63.1813 240.379 63.1898H226.737L236.965 83.4139L231.276 86.9829L248.21 88.9969L256.31 71.5174L250.449 74.6259Z" fill="#88B337"/>
<path d="M257.448 88.1725L243.793 96.5001L249.483 107.207H258.586L260.964 103.192C262.285 100.957 262.347 98.1494 261.126 95.8529L257.448 88.1725Z" fill="#6A9923"/>
<path d="M235.828 107.207V101.259L224.448 114.345L235.828 129.81V125.052H244.931C247.328 125.113 249.544 123.723 250.621 121.483L258.586 107.207H235.828Z" fill="#88B337"/>
<path d="M207.379 108.397L204.608 115.073L208.071 121.344C209.356 123.616 211.682 125.022 214.207 125.052H218.759V108.397H207.379Z" fill="#6A9923"/>
<path d="M221.034 97.6897L214.207 82.2242L196 83.4138L202.508 87.6324L198.276 96.5C197.099 98.7202 197.099 101.418 198.276 103.638L204.607 115.073L206.976 110.776L215.434 95.4293L221.034 97.6897Z" fill="#88B337"/>
</g>
<path d="M99.3438 83V65.8906L100.586 65.3047H106.375C108.719 65.3047 109.891 66.4766 109.891 68.8203V70.7422C109.891 71.6016 109.664 72.2852 109.211 72.793C110.367 73.4492 110.945 74.6016 110.945 76.25V78.8984C110.945 81.6328 109.578 83 106.844 83H99.3438ZM101.688 80.8906H106.844C108.016 80.8906 108.602 80.2266 108.602 78.8984V76.25C108.602 74.9219 108.016 74.2578 106.844 74.2578H101.688V80.8906ZM101.688 72.1484H106.375C107.156 72.1484 107.547 71.6797 107.547 70.7422V68.8203C107.547 67.8828 107.156 67.4141 106.375 67.4141H101.688V72.1484ZM117.742 80.8906H120.203C120.984 80.8906 121.375 80.4219 121.375 79.4844V77.8789C121.375 76.9414 120.984 76.4727 120.203 76.4727H117.742C116.961 76.4727 116.57 76.9414 116.57 77.8789V79.4844C116.57 80.4219 116.961 80.8906 117.742 80.8906ZM117.742 83C115.398 83 114.227 81.8281 114.227 79.4844V77.8789C114.227 75.5352 115.398 74.3633 117.742 74.3633H120.203C120.609 74.3633 121 74.4805 121.375 74.7148V73.625C121.375 72.6875 120.984 72.2188 120.203 72.2188H116.008V72.1016L116.945 70.1094H120.203C122.547 70.1094 123.719 71.2812 123.719 73.625V82.4141L121.492 83.4688H121.375V82.6484C121.078 82.8828 120.688 83 120.203 83H117.742ZM127.234 83.4688V73.625C127.234 71.2812 128.406 70.1094 130.75 70.1094H133.445C135.789 70.1094 136.961 71.2812 136.961 73.625V82.4141L134.734 83.4688H134.617V73.625C134.617 72.6875 134.227 72.2188 133.445 72.2188H130.75C129.969 72.2188 129.578 72.6875 129.578 73.625V82.4141L127.352 83.4688H127.234ZM141.062 83.4688V65.8906L143.289 64.8359H143.406V74.3281C143.508 74.3047 143.617 74.2852 143.734 74.2695L148.305 69.6406H148.422L150.484 70.6133L146.57 74.2109H147.273C149.617 74.2109 150.789 75.3828 150.789 77.7266V82.4141L148.562 83.4688H148.445V77.7266C148.445 76.7891 148.055 76.3203 147.273 76.3203H144.578C143.797 76.3203 143.406 76.7891 143.406 77.7266V82.4141L141.18 83.4688H141.062ZM102.977 104C100.242 104 98.875 102.633 98.875 99.8984V98.6094L101.102 97.5547H101.219V99.8984C101.219 101.227 101.805 101.891 102.977 101.891H106.609C107.781 101.891 108.367 101.227 108.367 99.8984V97.4375C108.367 96.1094 107.781 95.4453 106.609 95.4453H103.445C101.102 95.4453 99.9297 94.2734 99.9297 91.9297V89.8203C99.9297 87.4766 101.102 86.3047 103.445 86.3047H106.141C108.484 86.3047 109.656 87.4766 109.656 89.8203V90.4414L107.43 91.4961H107.312V89.8203C107.312 88.8828 106.922 88.4141 106.141 88.4141H103.445C102.664 88.4141 102.273 88.8828 102.273 89.8203V91.9297C102.273 92.8672 102.664 93.3359 103.445 93.3359H106.609C109.344 93.3359 110.711 94.7031 110.711 97.4375V99.8984C110.711 102.633 109.344 104 106.609 104H102.977ZM117.273 101.891H119.734C120.516 101.891 120.906 101.422 120.906 100.484V98.8789C120.906 97.9414 120.516 97.4727 119.734 97.4727H117.273C116.492 97.4727 116.102 97.9414 116.102 98.8789V100.484C116.102 101.422 116.492 101.891 117.273 101.891ZM117.273 104C114.93 104 113.758 102.828 113.758 100.484V98.8789C113.758 96.5352 114.93 95.3633 117.273 95.3633H119.734C120.141 95.3633 120.531 95.4805 120.906 95.7148V94.625C120.906 93.6875 120.516 93.2188 119.734 93.2188H115.539V93.1016L116.477 91.1094H119.734C122.078 91.1094 123.25 92.2812 123.25 94.625V103.414L121.023 104.469H120.906V103.648C120.609 103.883 120.219 104 119.734 104H117.273ZM126.766 104.469V94.625C126.766 92.2812 127.938 91.1094 130.281 91.1094H132.977C134.055 91.1094 134.836 91.3984 135.32 91.9766C135.836 91.3984 136.617 91.1094 137.664 91.1094H140.359C142.703 91.1094 143.875 92.2812 143.875 94.625V103.414L141.648 104.469H141.531V94.625C141.531 93.6875 141.141 93.2188 140.359 93.2188H137.664C136.883 93.2188 136.492 93.6875 136.492 94.625V103.414L134.266 104.469H134.148V94.625C134.148 93.6875 133.758 93.2188 132.977 93.2188H130.281C129.5 93.2188 129.109 93.6875 129.109 94.625V103.414L126.883 104.469H126.766ZM151.492 104C150.961 104 150.57 103.879 150.32 103.637V108.219L148.094 109.273H147.977V94.625C147.977 92.2812 149.148 91.1094 151.492 91.1094H154.188C156.531 91.1094 157.703 92.2812 157.703 94.625V100.484C157.703 102.828 156.531 104 154.188 104H151.492ZM151.492 101.891H154.188C154.969 101.891 155.359 101.422 155.359 100.484V94.625C155.359 93.6875 154.969 93.2188 154.188 93.2188H151.492C150.711 93.2188 150.32 93.6875 150.32 94.625V100.484C150.32 101.422 150.711 101.891 151.492 101.891ZM164.148 101.891H166.609C167.391 101.891 167.781 101.422 167.781 100.484V98.8789C167.781 97.9414 167.391 97.4727 166.609 97.4727H164.148C163.367 97.4727 162.977 97.9414 162.977 98.8789V100.484C162.977 101.422 163.367 101.891 164.148 101.891ZM164.148 104C161.805 104 160.633 102.828 160.633 100.484V98.8789C160.633 96.5352 161.805 95.3633 164.148 95.3633H166.609C167.016 95.3633 167.406 95.4805 167.781 95.7148V94.625C167.781 93.6875 167.391 93.2188 166.609 93.2188H162.414V93.1016L163.352 91.1094H166.609C168.953 91.1094 170.125 92.2812 170.125 94.625V103.414L167.898 104.469H167.781V103.648C167.484 103.883 167.094 104 166.609 104H164.148ZM174.227 104.469V86.8906L176.453 85.8359H176.57V91.4727C176.914 91.2305 177.305 91.1094 177.742 91.1094H180.438C182.781 91.1094 183.953 92.2812 183.953 94.625V103.414L181.727 104.469H181.609V94.625C181.609 93.6875 181.219 93.2188 180.438 93.2188H177.742C176.961 93.2188 176.57 93.6875 176.57 94.625V103.414L174.344 104.469H174.227ZM102.977 125C100.242 125 98.875 123.633 98.875 120.898V119.609L101.102 118.555H101.219V120.898C101.219 122.227 101.805 122.891 102.977 122.891H106.609C107.781 122.891 108.367 122.227 108.367 120.898V118.438C108.367 117.109 107.781 116.445 106.609 116.445H103.445C101.102 116.445 99.9297 115.273 99.9297 112.93V110.82C99.9297 108.477 101.102 107.305 103.445 107.305H106.141C108.484 107.305 109.656 108.477 109.656 110.82V111.441L107.43 112.496H107.312V110.82C107.312 109.883 106.922 109.414 106.141 109.414H103.445C102.664 109.414 102.273 109.883 102.273 110.82V112.93C102.273 113.867 102.664 114.336 103.445 114.336H106.609C109.344 114.336 110.711 115.703 110.711 118.438V120.898C110.711 123.633 109.344 125 106.609 125H102.977ZM117.273 122.891H119.734C120.516 122.891 120.906 122.422 120.906 121.484V119.879C120.906 118.941 120.516 118.473 119.734 118.473H117.273C116.492 118.473 116.102 118.941 116.102 119.879V121.484C116.102 122.422 116.492 122.891 117.273 122.891ZM117.273 125C114.93 125 113.758 123.828 113.758 121.484V119.879C113.758 117.535 114.93 116.363 117.273 116.363H119.734C120.141 116.363 120.531 116.48 120.906 116.715V115.625C120.906 114.688 120.516 114.219 119.734 114.219H115.539V114.102L116.477 112.109H119.734C122.078 112.109 123.25 113.281 123.25 115.625V124.414L121.023 125.469H120.906V124.648C120.609 124.883 120.219 125 119.734 125H117.273ZM127.352 125.469V107.891L129.578 106.836H129.695V112.473C130.039 112.23 130.43 112.109 130.867 112.109H133.562C135.906 112.109 137.078 113.281 137.078 115.625V124.414L134.852 125.469H134.734V115.625C134.734 114.688 134.344 114.219 133.562 114.219H130.867C130.086 114.219 129.695 114.688 129.695 115.625V124.414L127.469 125.469H127.352ZM141.355 109.52C141.082 109.238 140.945 108.902 140.945 108.512C140.945 108.113 141.082 107.773 141.355 107.492C141.629 107.211 141.961 107.07 142.352 107.07C142.742 107.07 143.074 107.211 143.348 107.492C143.621 107.773 143.758 108.113 143.758 108.512C143.758 108.902 143.621 109.238 143.348 109.52C143.074 109.801 142.742 109.941 142.352 109.941C141.961 109.941 141.629 109.801 141.355 109.52ZM141.18 125.469V112.695L143.406 111.641H143.523V124.414L141.297 125.469H141.18ZM149.172 125.469V114.242H146.16V114.125L147.109 112.109H149.172V107.891L151.398 106.836H151.516V112.109H154.527V112.227L153.578 114.242H151.516V124.414L149.289 125.469H149.172ZM160.094 125C157.75 125 156.578 123.828 156.578 121.484V112.695L158.805 111.641H158.922V121.484C158.922 122.422 159.312 122.891 160.094 122.891H162.789C163.57 122.891 163.961 122.422 163.961 121.484V112.695L166.188 111.641H166.305V126.289C166.305 128.633 165.133 129.805 162.789 129.805H157.797V129.688L158.734 127.695H162.789C163.57 127.695 163.961 127.227 163.961 126.289V124.648C163.656 124.883 163.266 125 162.789 125H160.094ZM173.336 122.891H175.797C176.578 122.891 176.969 122.422 176.969 121.484V119.879C176.969 118.941 176.578 118.473 175.797 118.473H173.336C172.555 118.473 172.164 118.941 172.164 119.879V121.484C172.164 122.422 172.555 122.891 173.336 122.891ZM173.336 125C170.992 125 169.82 123.828 169.82 121.484V119.879C169.82 117.535 170.992 116.363 173.336 116.363H175.797C176.203 116.363 176.594 116.48 176.969 116.715V115.625C176.969 114.688 176.578 114.219 175.797 114.219H171.602V114.102L172.539 112.109H175.797C178.141 112.109 179.312 113.281 179.312 115.625V124.414L177.086 125.469H176.969V124.648C176.672 124.883 176.281 125 175.797 125H173.336Z" fill="#9ADB3E"/>
<line x1="28.6278" y1="20.3674" x2="15.6278" y2="32.3674" stroke="#9ADB3E"/>
<line x1="38" y1="32.5" x2="15" y2="32.5" stroke="#9ADB3E"/>
<path d="M28.9321 44.2304L15.0856 32.4569" stroke="#9ADB3E"/>
<defs>
<filter id="filter0_d" x="45" y="334" width="271" height="46" filterUnits="userSpaceOnUse" color-interpolation-filters="sRGB">
<feFlood flood-opacity="0" result="BackgroundImageFix"/>
<feColorMatrix in="SourceAlpha" type="matrix" values="0 0 0 0 0 0 0 0 0 0 0 0 0 0 0 0 0 0 127 0"/>
<feOffset dy="4"/>
<feGaussianBlur stdDeviation="2"/>
<feColorMatrix type="matrix" values="0 0 0 0 0 0 0 0 0 0 0 0 0 0 0 0 0 0 0.25 0"/>
<feBlend mode="normal" in2="BackgroundImageFix" result="effect1_dropShadow"/>
<feBlend mode="normal" in="SourceGraphic" in2="effect1_dropShadow" result="shape"/>
</filter>
<linearGradient id="paint0_linear" x1="180.5" y1="334" x2="180.5" y2="372" gradientUnits="userSpaceOnUse">
<stop stop-color="#9ADB3E"/>
<stop offset="1" stop-color="#88B337"/>
</linearGradient>
<clipPath id="clip0">
<rect width="66" height="69" fill="white" transform="translate(196 62)"/>
</clipPath>
</defs>
</svg>
