<svg width="360" height="640" viewBox="0 0 360 640" fill="none" xmlns="http://www.w3.org/2000/svg">
<rect width="360" height="640" fill="url(#paint0_linear)"/>
<path d="M60.5703 90.5234C60.5703 89.8594 60.3359 89.3516 59.8672 89C59.3984 88.6406 58.5547 88.2656 57.3359 87.875C56.1172 87.4766 55.1523 87.0859 54.4414 86.7031C52.5039 85.6562 51.5352 84.2461 51.5352 82.4727C51.5352 81.5508 51.793 80.7305 52.3086 80.0117C52.832 79.2852 53.5781 78.7188 54.5469 78.3125C55.5234 77.9062 56.6172 77.7031 57.8281 77.7031C59.0469 77.7031 60.1328 77.9258 61.0859 78.3711C62.0391 78.8086 62.7773 79.4297 63.3008 80.2344C63.832 81.0391 64.0977 81.9531 64.0977 82.9766H60.582C60.582 82.1953 60.3359 81.5898 59.8438 81.1602C59.3516 80.7227 58.6602 80.5039 57.7695 80.5039C56.9102 80.5039 56.2422 80.6875 55.7656 81.0547C55.2891 81.4141 55.0508 81.8906 55.0508 82.4844C55.0508 83.0391 55.3281 83.5039 55.8828 83.8789C56.4453 84.2539 57.2695 84.6055 58.3555 84.9336C60.3555 85.5352 61.8125 86.2812 62.7266 87.1719C63.6406 88.0625 64.0977 89.1719 64.0977 90.5C64.0977 91.9766 63.5391 93.1367 62.4219 93.9805C61.3047 94.8164 59.8008 95.2344 57.9102 95.2344C56.5977 95.2344 55.4023 94.9961 54.3242 94.5195C53.2461 94.0352 52.4219 93.375 51.8516 92.5391C51.2891 91.7031 51.0078 90.7344 51.0078 89.6328H54.5352C54.5352 91.5156 55.6602 92.457 57.9102 92.457C58.7461 92.457 59.3984 92.2891 59.8672 91.9531C60.3359 91.6094 60.5703 91.1328 60.5703 90.5234ZM69.8398 95H66.4414V82.3203H69.8398V95ZM66.2422 79.0391C66.2422 78.5312 66.4102 78.1133 66.7461 77.7852C67.0898 77.457 67.5547 77.293 68.1406 77.293C68.7188 77.293 69.1797 77.457 69.5234 77.7852C69.8672 78.1133 70.0391 78.5312 70.0391 79.0391C70.0391 79.5547 69.8633 79.9766 69.5117 80.3047C69.168 80.6328 68.7109 80.7969 68.1406 80.7969C67.5703 80.7969 67.1094 80.6328 66.7578 80.3047C66.4141 79.9766 66.2422 79.5547 66.2422 79.0391ZM72.1484 88.5664C72.1484 86.6211 72.6094 85.0547 73.5312 83.8672C74.4609 82.6797 75.7109 82.0859 77.2812 82.0859C78.6719 82.0859 79.7539 82.5625 80.5273 83.5156L80.668 82.3203H83.7383V94.5781C83.7383 95.6875 83.4844 96.6523 82.9766 97.4727C82.4766 98.293 81.7695 98.918 80.8555 99.3477C79.9414 99.7773 78.8711 99.9922 77.6445 99.9922C76.7148 99.9922 75.8086 99.8047 74.9258 99.4297C74.043 99.0625 73.375 98.5859 72.9219 98L74.4219 95.9375C75.2656 96.8828 76.2891 97.3555 77.4922 97.3555C78.3906 97.3555 79.0898 97.1133 79.5898 96.6289C80.0898 96.1523 80.3398 95.4727 80.3398 94.5898V93.9102C79.5586 94.793 78.5312 95.2344 77.2578 95.2344C75.7344 95.2344 74.5 94.6406 73.5547 93.4531C72.6172 92.2578 72.1484 90.6758 72.1484 88.707V88.5664ZM75.5352 88.8125C75.5352 89.9609 75.7656 90.8633 76.2266 91.5195C76.6875 92.168 77.3203 92.4922 78.125 92.4922C79.1562 92.4922 79.8945 92.1055 80.3398 91.332V86C79.8867 85.2266 79.1562 84.8398 78.1484 84.8398C77.3359 84.8398 76.6953 85.1719 76.2266 85.8359C75.7656 86.5 75.5352 87.4922 75.5352 88.8125ZM89.4688 82.3203L89.5742 83.7852C90.4805 82.6523 91.6953 82.0859 93.2188 82.0859C94.5625 82.0859 95.5625 82.4805 96.2188 83.2695C96.875 84.0586 97.2109 85.2383 97.2266 86.8086V95H93.8398V86.8906C93.8398 86.1719 93.6836 85.6523 93.3711 85.332C93.0586 85.0039 92.5391 84.8398 91.8125 84.8398C90.8594 84.8398 90.1445 85.2461 89.668 86.0586V95H86.2812V82.3203H89.4688ZM118.918 77.9375V89.1758C118.918 91.043 118.332 92.5195 117.16 93.6055C115.996 94.6914 114.402 95.2344 112.379 95.2344C110.387 95.2344 108.805 94.707 107.633 93.6523C106.461 92.5977 105.863 91.1484 105.84 89.3047V77.9375H109.355V89.1992C109.355 90.3164 109.621 91.1328 110.152 91.6484C110.691 92.1562 111.434 92.4102 112.379 92.4102C114.355 92.4102 115.359 91.3711 115.391 89.293V77.9375H118.918ZM132.992 88.7773C132.992 90.7305 132.547 92.2969 131.656 93.4766C130.773 94.6484 129.578 95.2344 128.07 95.2344C126.789 95.2344 125.754 94.7891 124.965 93.8984V99.875H121.578V82.3203H124.719L124.836 83.5625C125.656 82.5781 126.727 82.0859 128.047 82.0859C129.609 82.0859 130.824 82.6641 131.691 83.8203C132.559 84.9766 132.992 86.5703 132.992 88.6016V88.7773ZM129.605 88.5312C129.605 87.3516 129.395 86.4414 128.973 85.8008C128.559 85.1602 127.953 84.8398 127.156 84.8398C126.094 84.8398 125.363 85.2461 124.965 86.0586V91.25C125.379 92.0859 126.117 92.5039 127.18 92.5039C128.797 92.5039 129.605 91.1797 129.605 88.5312Z" fill="white"/>
<line x1="28.6278" y1="20.3674" x2="15.6278" y2="32.3674" stroke="white"/>
<line x1="38" y1="32.5" x2="15" y2="32.5" stroke="white"/>
<path d="M28.9321 44.2304L15.0856 32.4569" stroke="white"/>
<g filter="url(#filter0_d)">
<rect x="218" y="536" width="92" height="35" rx="10" fill="url(#paint1_linear)"/>
</g>
<path d="M257.32 559H255.624L249.182 549.139V559H247.485V546.203H249.182L255.642 556.108V546.203H257.32V559ZM264.009 559.176C262.72 559.176 261.671 558.754 260.862 557.91C260.054 557.061 259.649 555.927 259.649 554.509V554.21C259.649 553.267 259.828 552.426 260.186 551.688C260.549 550.943 261.053 550.363 261.697 549.947C262.348 549.525 263.051 549.314 263.807 549.314C265.043 549.314 266.004 549.722 266.689 550.536C267.375 551.351 267.718 552.517 267.718 554.034V554.711H261.275C261.299 555.648 261.571 556.407 262.093 556.987C262.62 557.562 263.288 557.849 264.097 557.849C264.671 557.849 265.157 557.731 265.556 557.497C265.954 557.263 266.303 556.952 266.602 556.565L267.595 557.339C266.798 558.563 265.603 559.176 264.009 559.176ZM263.807 550.65C263.15 550.65 262.6 550.891 262.154 551.371C261.709 551.846 261.434 552.514 261.328 553.375H266.092V553.252C266.045 552.426 265.822 551.787 265.424 551.336C265.025 550.879 264.486 550.65 263.807 550.65ZM272.798 552.962L274.907 549.49H276.806L273.694 554.192L276.902 559H275.021L272.824 555.44L270.627 559H268.737L271.945 554.192L268.834 549.49H270.715L272.798 552.962ZM280.743 547.188V549.49H282.519V550.747H280.743V556.645C280.743 557.025 280.822 557.312 280.98 557.506C281.139 557.693 281.408 557.787 281.789 557.787C281.977 557.787 282.234 557.752 282.562 557.682V559C282.135 559.117 281.719 559.176 281.314 559.176C280.588 559.176 280.04 558.956 279.671 558.517C279.302 558.077 279.117 557.453 279.117 556.645V550.747H277.386V549.49H279.117V547.188H280.743Z" fill="#8DC836"/>
<g filter="url(#filter1_d)">
<rect x="50" y="164" width="263" height="38" rx="10" fill="#C4C4C4"/>
<rect x="50" y="164" width="263" height="38" rx="10" fill="#F4F4F4"/>
<rect x="50.5" y="164.5" width="262" height="37" rx="9.5" stroke="#C4C4C4"/>
</g>
<path d="M172.98 187H171.85L167.555 180.426V187H166.424V178.469H167.555L171.861 185.072V178.469H172.98V187ZM178.723 187C178.66 186.875 178.609 186.652 178.57 186.332C178.066 186.855 177.465 187.117 176.766 187.117C176.141 187.117 175.627 186.941 175.225 186.59C174.826 186.234 174.627 185.785 174.627 185.242C174.627 184.582 174.877 184.07 175.377 183.707C175.881 183.34 176.588 183.156 177.498 183.156H178.553V182.658C178.553 182.279 178.439 181.979 178.213 181.756C177.986 181.529 177.652 181.416 177.211 181.416C176.824 181.416 176.5 181.514 176.238 181.709C175.977 181.904 175.846 182.141 175.846 182.418H174.756C174.756 182.102 174.867 181.797 175.09 181.504C175.316 181.207 175.621 180.973 176.004 180.801C176.391 180.629 176.814 180.543 177.275 180.543C178.006 180.543 178.578 180.727 178.992 181.094C179.406 181.457 179.621 181.959 179.637 182.6V185.518C179.637 186.1 179.711 186.562 179.859 186.906V187H178.723ZM176.924 186.174C177.264 186.174 177.586 186.086 177.891 185.91C178.195 185.734 178.416 185.506 178.553 185.225V183.924H177.703C176.375 183.924 175.711 184.312 175.711 185.09C175.711 185.43 175.824 185.695 176.051 185.887C176.277 186.078 176.568 186.174 176.924 186.174ZM182.355 180.66L182.385 181.363C182.85 180.816 183.477 180.543 184.266 180.543C185.152 180.543 185.756 180.883 186.076 181.562C186.287 181.258 186.561 181.012 186.896 180.824C187.236 180.637 187.637 180.543 188.098 180.543C189.488 180.543 190.195 181.279 190.219 182.752V187H189.135V182.816C189.135 182.363 189.031 182.025 188.824 181.803C188.617 181.576 188.27 181.463 187.781 181.463C187.379 181.463 187.045 181.584 186.779 181.826C186.514 182.064 186.359 182.387 186.316 182.793V187H185.227V182.846C185.227 181.924 184.775 181.463 183.873 181.463C183.162 181.463 182.676 181.766 182.414 182.371V187H181.33V180.66H182.355ZM195.773 187C195.711 186.875 195.66 186.652 195.621 186.332C195.117 186.855 194.516 187.117 193.816 187.117C193.191 187.117 192.678 186.941 192.275 186.59C191.877 186.234 191.678 185.785 191.678 185.242C191.678 184.582 191.928 184.07 192.428 183.707C192.932 183.34 193.639 183.156 194.549 183.156H195.604V182.658C195.604 182.279 195.49 181.979 195.264 181.756C195.037 181.529 194.703 181.416 194.262 181.416C193.875 181.416 193.551 181.514 193.289 181.709C193.027 181.904 192.896 182.141 192.896 182.418H191.807C191.807 182.102 191.918 181.797 192.141 181.504C192.367 181.207 192.672 180.973 193.055 180.801C193.441 180.629 193.865 180.543 194.326 180.543C195.057 180.543 195.629 180.727 196.043 181.094C196.457 181.457 196.672 181.959 196.688 182.6V185.518C196.688 186.1 196.762 186.562 196.91 186.906V187H195.773ZM193.975 186.174C194.314 186.174 194.637 186.086 194.941 185.91C195.246 185.734 195.467 185.506 195.604 185.225V183.924H194.754C193.426 183.924 192.762 184.312 192.762 185.09C192.762 185.43 192.875 185.695 193.102 185.887C193.328 186.078 193.619 186.174 193.975 186.174Z" fill="#BDBDBD"/>
<g filter="url(#filter2_d)">
<rect x="50" y="216" width="263" height="38" rx="10" fill="#C4C4C4"/>
<rect x="50" y="216" width="263" height="38" rx="10" fill="#F4F4F4"/>
<rect x="50.5" y="216.5" width="262" height="37" rx="9.5" stroke="#C4C4C4"/>
</g>
<path d="M177.896 239H176.766L172.471 232.426V239H171.34V230.469H172.471L176.777 237.072V230.469H177.896V239ZM181.102 239H179.977V230.469H181.102V239ZM184.617 230.469L187.406 237.43L190.195 230.469H191.654V239H190.529V235.678L190.635 232.092L187.834 239H186.973L184.178 232.109L184.289 235.678V239H183.164V230.469H184.617Z" fill="#BDBDBD"/>
<g filter="url(#filter3_d)">
<rect x="50" y="268" width="263" height="38" rx="10" fill="#C4C4C4"/>
<rect x="50" y="268" width="263" height="38" rx="10" fill="#F4F4F4"/>
<rect x="50.5" y="268.5" width="262" height="37" rx="9.5" stroke="#C4C4C4"/>
</g>
<path d="M164.584 287.232H161.004V291H159.879V282.469H165.164V283.395H161.004V286.312H164.584V287.232ZM170.057 291C169.994 290.875 169.943 290.652 169.904 290.332C169.4 290.855 168.799 291.117 168.1 291.117C167.475 291.117 166.961 290.941 166.559 290.59C166.16 290.234 165.961 289.785 165.961 289.242C165.961 288.582 166.211 288.07 166.711 287.707C167.215 287.34 167.922 287.156 168.832 287.156H169.887V286.658C169.887 286.279 169.773 285.979 169.547 285.756C169.32 285.529 168.986 285.416 168.545 285.416C168.158 285.416 167.834 285.514 167.572 285.709C167.311 285.904 167.18 286.141 167.18 286.418H166.09C166.09 286.102 166.201 285.797 166.424 285.504C166.65 285.207 166.955 284.973 167.338 284.801C167.725 284.629 168.148 284.543 168.609 284.543C169.34 284.543 169.912 284.727 170.326 285.094C170.74 285.457 170.955 285.959 170.971 286.6V289.518C170.971 290.1 171.045 290.562 171.193 290.906V291H170.057ZM168.258 290.174C168.598 290.174 168.92 290.086 169.225 289.91C169.529 289.734 169.75 289.506 169.887 289.225V287.924H169.037C167.709 287.924 167.045 288.312 167.045 289.09C167.045 289.43 167.158 289.695 167.385 289.887C167.611 290.078 167.902 290.174 168.258 290.174ZM174.439 288.064L173.76 288.773V291H172.676V282H173.76V287.443L174.34 286.746L176.314 284.66H177.633L175.166 287.309L177.92 291H176.648L174.439 288.064ZM182.666 290.373C182.244 290.869 181.625 291.117 180.809 291.117C180.133 291.117 179.617 290.922 179.262 290.531C178.91 290.137 178.732 289.555 178.729 288.785V284.66H179.812V288.756C179.812 289.717 180.203 290.197 180.984 290.197C181.812 290.197 182.363 289.889 182.637 289.271V284.66H183.721V291H182.689L182.666 290.373ZM186.551 291H185.467V282H186.551V291ZM189.762 283.125V284.66H190.945V285.498H189.762V289.43C189.762 289.684 189.814 289.875 189.92 290.004C190.025 290.129 190.205 290.191 190.459 290.191C190.584 290.191 190.756 290.168 190.975 290.121V291C190.689 291.078 190.412 291.117 190.143 291.117C189.658 291.117 189.293 290.971 189.047 290.678C188.801 290.385 188.678 289.969 188.678 289.43V285.498H187.523V284.66H188.678V283.125H189.762ZM196.131 291C196.068 290.875 196.018 290.652 195.979 290.332C195.475 290.855 194.873 291.117 194.174 291.117C193.549 291.117 193.035 290.941 192.633 290.59C192.234 290.234 192.035 289.785 192.035 289.242C192.035 288.582 192.285 288.07 192.785 287.707C193.289 287.34 193.996 287.156 194.906 287.156H195.961V286.658C195.961 286.279 195.848 285.979 195.621 285.756C195.395 285.529 195.061 285.416 194.619 285.416C194.232 285.416 193.908 285.514 193.646 285.709C193.385 285.904 193.254 286.141 193.254 286.418H192.164C192.164 286.102 192.275 285.797 192.498 285.504C192.725 285.207 193.029 284.973 193.412 284.801C193.799 284.629 194.223 284.543 194.684 284.543C195.414 284.543 195.986 284.727 196.4 285.094C196.814 285.457 197.029 285.959 197.045 286.6V289.518C197.045 290.1 197.119 290.562 197.268 290.906V291H196.131ZM194.332 290.174C194.672 290.174 194.994 290.086 195.299 289.91C195.604 289.734 195.824 289.506 195.961 289.225V287.924H195.111C193.783 287.924 193.119 288.312 193.119 289.09C193.119 289.43 193.232 289.695 193.459 289.887C193.686 290.078 193.977 290.174 194.332 290.174ZM202.436 289.318C202.436 289.025 202.324 288.799 202.102 288.639C201.883 288.475 201.498 288.334 200.947 288.217C200.4 288.1 199.965 287.959 199.641 287.795C199.32 287.631 199.082 287.436 198.926 287.209C198.773 286.982 198.697 286.713 198.697 286.4C198.697 285.881 198.916 285.441 199.354 285.082C199.795 284.723 200.357 284.543 201.041 284.543C201.76 284.543 202.342 284.729 202.787 285.1C203.236 285.471 203.461 285.945 203.461 286.523H202.371C202.371 286.227 202.244 285.971 201.99 285.756C201.74 285.541 201.424 285.434 201.041 285.434C200.646 285.434 200.338 285.52 200.115 285.691C199.893 285.863 199.781 286.088 199.781 286.365C199.781 286.627 199.885 286.824 200.092 286.957C200.299 287.09 200.672 287.217 201.211 287.338C201.754 287.459 202.193 287.604 202.529 287.771C202.865 287.939 203.113 288.143 203.273 288.381C203.438 288.615 203.52 288.902 203.52 289.242C203.52 289.809 203.293 290.264 202.84 290.607C202.387 290.947 201.799 291.117 201.076 291.117C200.568 291.117 200.119 291.027 199.729 290.848C199.338 290.668 199.031 290.418 198.809 290.098C198.59 289.773 198.48 289.424 198.48 289.049H199.564C199.584 289.412 199.729 289.701 199.998 289.916C200.271 290.127 200.631 290.232 201.076 290.232C201.486 290.232 201.814 290.15 202.061 289.986C202.311 289.818 202.436 289.596 202.436 289.318Z" fill="#BDBDBD"/>
<g filter="url(#filter4_d)">
<rect x="50" y="320" width="263" height="38" rx="10" fill="#C4C4C4"/>
<rect x="50" y="320" width="263" height="38" rx="10" fill="#F4F4F4"/>
<rect x="50.5" y="320.5" width="262" height="37" rx="9.5" stroke="#C4C4C4"/>
</g>
<path d="M164.432 334.469H165.562V340.51C165.562 341.326 165.316 341.965 164.824 342.426C164.336 342.887 163.684 343.117 162.867 343.117C162.02 343.117 161.359 342.9 160.887 342.467C160.414 342.033 160.178 341.426 160.178 340.645H161.303C161.303 341.133 161.436 341.514 161.701 341.787C161.971 342.061 162.359 342.197 162.867 342.197C163.332 342.197 163.707 342.051 163.992 341.758C164.281 341.465 164.428 341.055 164.432 340.527V334.469ZM171.223 342.373C170.801 342.869 170.182 343.117 169.365 343.117C168.689 343.117 168.174 342.922 167.818 342.531C167.467 342.137 167.289 341.555 167.285 340.785V336.66H168.369V340.756C168.369 341.717 168.76 342.197 169.541 342.197C170.369 342.197 170.92 341.889 171.193 341.271V336.66H172.277V343H171.246L171.223 342.373ZM176.994 337.633C176.83 337.605 176.652 337.592 176.461 337.592C175.75 337.592 175.268 337.895 175.014 338.5V343H173.93V336.66H174.984L175.002 337.393C175.357 336.826 175.861 336.543 176.514 336.543C176.725 336.543 176.885 336.57 176.994 336.625V337.633ZM181.91 342.373C181.488 342.869 180.869 343.117 180.053 343.117C179.377 343.117 178.861 342.922 178.506 342.531C178.154 342.137 177.977 341.555 177.973 340.785V336.66H179.057V340.756C179.057 341.717 179.447 342.197 180.229 342.197C181.057 342.197 181.607 341.889 181.881 341.271V336.66H182.965V343H181.934L181.91 342.373ZM188.309 341.318C188.309 341.025 188.197 340.799 187.975 340.639C187.756 340.475 187.371 340.334 186.82 340.217C186.273 340.1 185.838 339.959 185.514 339.795C185.193 339.631 184.955 339.436 184.799 339.209C184.646 338.982 184.57 338.713 184.57 338.4C184.57 337.881 184.789 337.441 185.227 337.082C185.668 336.723 186.23 336.543 186.914 336.543C187.633 336.543 188.215 336.729 188.66 337.1C189.109 337.471 189.334 337.945 189.334 338.523H188.244C188.244 338.227 188.117 337.971 187.863 337.756C187.613 337.541 187.297 337.434 186.914 337.434C186.52 337.434 186.211 337.52 185.988 337.691C185.766 337.863 185.654 338.088 185.654 338.365C185.654 338.627 185.758 338.824 185.965 338.957C186.172 339.09 186.545 339.217 187.084 339.338C187.627 339.459 188.066 339.604 188.402 339.771C188.738 339.939 188.986 340.143 189.146 340.381C189.311 340.615 189.393 340.902 189.393 341.242C189.393 341.809 189.166 342.264 188.713 342.607C188.26 342.947 187.672 343.117 186.949 343.117C186.441 343.117 185.992 343.027 185.602 342.848C185.211 342.668 184.904 342.418 184.682 342.098C184.463 341.773 184.354 341.424 184.354 341.049H185.438C185.457 341.412 185.602 341.701 185.871 341.916C186.145 342.127 186.504 342.232 186.949 342.232C187.359 342.232 187.688 342.15 187.934 341.986C188.184 341.818 188.309 341.596 188.309 341.318ZM194.719 343C194.656 342.875 194.605 342.652 194.566 342.332C194.062 342.855 193.461 343.117 192.762 343.117C192.137 343.117 191.623 342.941 191.221 342.59C190.822 342.234 190.623 341.785 190.623 341.242C190.623 340.582 190.873 340.07 191.373 339.707C191.877 339.34 192.584 339.156 193.494 339.156H194.549V338.658C194.549 338.279 194.436 337.979 194.209 337.756C193.982 337.529 193.648 337.416 193.207 337.416C192.82 337.416 192.496 337.514 192.234 337.709C191.973 337.904 191.842 338.141 191.842 338.418H190.752C190.752 338.102 190.863 337.797 191.086 337.504C191.312 337.207 191.617 336.973 192 336.801C192.387 336.629 192.811 336.543 193.271 336.543C194.002 336.543 194.574 336.727 194.988 337.094C195.402 337.457 195.617 337.959 195.633 338.6V341.518C195.633 342.1 195.707 342.562 195.855 342.906V343H194.719ZM192.92 342.174C193.26 342.174 193.582 342.086 193.887 341.91C194.191 341.734 194.412 341.506 194.549 341.225V339.924H193.699C192.371 339.924 191.707 340.312 191.707 341.09C191.707 341.43 191.82 341.695 192.047 341.887C192.273 342.078 192.564 342.174 192.92 342.174ZM198.357 336.66L198.393 337.457C198.877 336.848 199.51 336.543 200.291 336.543C201.631 336.543 202.307 337.299 202.318 338.811V343H201.234V338.805C201.23 338.348 201.125 338.01 200.918 337.791C200.715 337.572 200.396 337.463 199.963 337.463C199.611 337.463 199.303 337.557 199.037 337.744C198.771 337.932 198.564 338.178 198.416 338.482V343H197.332V336.66H198.357Z" fill="#BDBDBD"/>
<g filter="url(#filter5_d)">
<rect x="50" y="372" width="263" height="38" rx="10" fill="#C4C4C4"/>
<rect x="50" y="372" width="263" height="38" rx="10" fill="#F4F4F4"/>
<rect x="50.5" y="372.5" width="262" height="37" rx="9.5" stroke="#C4C4C4"/>
</g>
<path d="M170.215 395H169.084L164.789 388.426V395H163.658V386.469H164.789L169.096 393.072V386.469H170.215V395ZM171.756 391.771C171.756 391.15 171.877 390.592 172.119 390.096C172.365 389.6 172.705 389.217 173.139 388.947C173.576 388.678 174.074 388.543 174.633 388.543C175.496 388.543 176.193 388.842 176.725 389.439C177.26 390.037 177.527 390.832 177.527 391.824V391.9C177.527 392.518 177.408 393.072 177.17 393.564C176.936 394.053 176.598 394.434 176.156 394.707C175.719 394.98 175.215 395.117 174.645 395.117C173.785 395.117 173.088 394.818 172.553 394.221C172.021 393.623 171.756 392.832 171.756 391.848V391.771ZM172.846 391.9C172.846 392.604 173.008 393.168 173.332 393.594C173.66 394.02 174.098 394.232 174.645 394.232C175.195 394.232 175.633 394.018 175.957 393.588C176.281 393.154 176.443 392.549 176.443 391.771C176.443 391.076 176.277 390.514 175.945 390.084C175.617 389.65 175.18 389.434 174.633 389.434C174.098 389.434 173.666 389.646 173.338 390.072C173.01 390.498 172.846 391.107 172.846 391.9ZM178.91 394.432C178.91 394.244 178.965 394.088 179.074 393.963C179.188 393.838 179.355 393.775 179.578 393.775C179.801 393.775 179.969 393.838 180.082 393.963C180.199 394.088 180.258 394.244 180.258 394.432C180.258 394.611 180.199 394.762 180.082 394.883C179.969 395.004 179.801 395.064 179.578 395.064C179.355 395.064 179.188 395.004 179.074 394.883C178.965 394.762 178.91 394.611 178.91 394.432ZM191.754 395H190.623V391.057H186.322V395H185.197V386.469H186.322V390.137H190.623V386.469H191.754V395ZM194.877 391.66V395H193.752V386.469H196.898C197.832 386.469 198.562 386.707 199.09 387.184C199.621 387.66 199.887 388.291 199.887 389.076C199.887 389.904 199.627 390.543 199.107 390.992C198.592 391.438 197.852 391.66 196.887 391.66H194.877ZM194.877 390.74H196.898C197.5 390.74 197.961 390.6 198.281 390.318C198.602 390.033 198.762 389.623 198.762 389.088C198.762 388.58 198.602 388.174 198.281 387.869C197.961 387.564 197.521 387.406 196.963 387.395H194.877V390.74Z" fill="#BDBDBD"/>
<g filter="url(#filter6_d)">
<rect x="50" y="424" width="263" height="38" rx="10" fill="#C4C4C4"/>
<rect x="50" y="424" width="263" height="38" rx="10" fill="#F4F4F4"/>
<rect x="50.5" y="424.5" width="262" height="37" rx="9.5" stroke="#C4C4C4"/>
</g>
<path d="M168.076 444.773H164.502L163.699 447H162.539L165.797 438.469H166.781L170.045 447H168.891L168.076 444.773ZM164.842 443.848H167.742L166.289 439.857L164.842 443.848ZM172.201 447H171.117V438H172.201V447ZM177.855 447C177.793 446.875 177.742 446.652 177.703 446.332C177.199 446.855 176.598 447.117 175.898 447.117C175.273 447.117 174.76 446.941 174.357 446.59C173.959 446.234 173.76 445.785 173.76 445.242C173.76 444.582 174.01 444.07 174.51 443.707C175.014 443.34 175.721 443.156 176.631 443.156H177.686V442.658C177.686 442.279 177.572 441.979 177.346 441.756C177.119 441.529 176.785 441.416 176.344 441.416C175.957 441.416 175.633 441.514 175.371 441.709C175.109 441.904 174.979 442.141 174.979 442.418H173.889C173.889 442.102 174 441.797 174.223 441.504C174.449 441.207 174.754 440.973 175.137 440.801C175.523 440.629 175.947 440.543 176.408 440.543C177.139 440.543 177.711 440.727 178.125 441.094C178.539 441.457 178.754 441.959 178.77 442.6V445.518C178.77 446.1 178.844 446.562 178.992 446.906V447H177.855ZM176.057 446.174C176.396 446.174 176.719 446.086 177.023 445.91C177.328 445.734 177.549 445.506 177.686 445.225V443.924H176.836C175.508 443.924 174.844 444.312 174.844 445.09C174.844 445.43 174.957 445.695 175.184 445.887C175.41 446.078 175.701 446.174 176.057 446.174ZM181.488 440.66L181.518 441.363C181.982 440.816 182.609 440.543 183.398 440.543C184.285 440.543 184.889 440.883 185.209 441.562C185.42 441.258 185.693 441.012 186.029 440.824C186.369 440.637 186.77 440.543 187.23 440.543C188.621 440.543 189.328 441.279 189.352 442.752V447H188.268V442.816C188.268 442.363 188.164 442.025 187.957 441.803C187.75 441.576 187.402 441.463 186.914 441.463C186.512 441.463 186.178 441.584 185.912 441.826C185.646 442.064 185.492 442.387 185.449 442.793V447H184.359V442.846C184.359 441.924 183.908 441.463 183.006 441.463C182.295 441.463 181.809 441.766 181.547 442.371V447H180.463V440.66H181.488ZM194.906 447C194.844 446.875 194.793 446.652 194.754 446.332C194.25 446.855 193.648 447.117 192.949 447.117C192.324 447.117 191.811 446.941 191.408 446.59C191.01 446.234 190.811 445.785 190.811 445.242C190.811 444.582 191.061 444.07 191.561 443.707C192.064 443.34 192.771 443.156 193.682 443.156H194.736V442.658C194.736 442.279 194.623 441.979 194.396 441.756C194.17 441.529 193.836 441.416 193.395 441.416C193.008 441.416 192.684 441.514 192.422 441.709C192.16 441.904 192.029 442.141 192.029 442.418H190.939C190.939 442.102 191.051 441.797 191.273 441.504C191.5 441.207 191.805 440.973 192.188 440.801C192.574 440.629 192.998 440.543 193.459 440.543C194.189 440.543 194.762 440.727 195.176 441.094C195.59 441.457 195.805 441.959 195.82 442.6V445.518C195.82 446.1 195.895 446.562 196.043 446.906V447H194.906ZM193.107 446.174C193.447 446.174 193.77 446.086 194.074 445.91C194.379 445.734 194.6 445.506 194.736 445.225V443.924H193.887C192.559 443.924 191.895 444.312 191.895 445.09C191.895 445.43 192.008 445.695 192.234 445.887C192.461 446.078 192.752 446.174 193.107 446.174ZM198.99 439.125V440.66H200.174V441.498H198.99V445.43C198.99 445.684 199.043 445.875 199.148 446.004C199.254 446.129 199.434 446.191 199.688 446.191C199.812 446.191 199.984 446.168 200.203 446.121V447C199.918 447.078 199.641 447.117 199.371 447.117C198.887 447.117 198.521 446.971 198.275 446.678C198.029 446.385 197.906 445.969 197.906 445.43V441.498H196.752V440.66H197.906V439.125H198.99Z" fill="#BDBDBD"/>
<g filter="url(#filter7_d)">
<rect x="50" y="476" width="263" height="38" rx="10" fill="#C4C4C4"/>
<rect x="50" y="476" width="263" height="38" rx="10" fill="#F4F4F4"/>
<rect x="50.5" y="476.5" width="262" height="37" rx="9.5" stroke="#C4C4C4"/>
</g>
<path d="M177.949 491.395H175.207V499H174.088V491.395H171.352V490.469H177.949V491.395ZM185.203 491.395H182.461V499H181.342V491.395H178.605V490.469H185.203V491.395ZM187.6 498.08H191.643V499H186.469V490.469H187.6V498.08Z" fill="#BDBDBD"/>
<path d="M313.174 69.0224C312.93 68.9044 312.646 68.9069 312.404 69.0293L308.669 70.9236L305.746 65.9027C304.746 64.0273 302.789 62.8598 300.664 62.8697H286.22C284.063 62.8749 282.065 64.0041 280.949 65.849L278.262 70.2148C278.014 70.6182 278.135 71.1461 278.535 71.4003L288.067 77.4663C288.206 77.5545 288.367 77.6013 288.532 77.6014C288.604 77.6016 288.675 77.5925 288.745 77.5746C288.976 77.516 289.173 77.3645 289.289 77.156L292.929 70.6073L296.915 78.1465L293.286 80.3242C292.967 80.5153 292.806 80.8884 292.885 81.2515C292.963 81.6144 293.264 81.887 293.633 81.9291L306.531 83.3954C306.563 83.3988 306.596 83.4006 306.629 83.4006C306.961 83.4006 307.264 83.2108 307.408 82.9118L313.576 70.1801C313.784 69.7493 313.605 69.231 313.174 69.0224ZM288.221 75.5094L280.185 70.3967L282.429 66.7501C283.231 65.4213 284.668 64.6073 286.22 64.6027H289.738L291.886 68.9139L288.221 75.5094ZM306.116 81.604L296.369 80.4957L298.51 79.2106C298.905 78.9736 299.045 78.47 298.83 78.0632L291.713 64.6027H300.664C302.169 64.6006 303.55 65.4355 304.248 66.7692L307.583 72.4998C307.814 72.8958 308.314 73.0428 308.723 72.8352L310.895 71.7346L306.116 81.604Z" fill="white"/>
<path d="M317.241 87.1371L314.441 81.5425C314.227 81.1143 313.706 80.9407 313.278 81.1545C313.261 81.1631 313.244 81.1723 313.227 81.182L302.829 87.248C302.421 87.4857 302.279 88.0056 302.508 88.4179L306.123 94.9328H298.064V91.4665C298.064 90.988 297.676 90.5998 297.198 90.5996C296.954 90.5995 296.721 90.7025 296.556 90.8833L287.891 100.416C287.608 100.726 287.589 101.195 287.846 101.527L296.511 112.793C296.803 113.172 297.348 113.242 297.727 112.95C297.939 112.786 298.064 112.533 298.064 112.264V109.665H304.13C306.267 109.717 308.244 108.537 309.212 106.632L315.278 96.2379L317.08 93.3262C318.246 91.4432 318.308 89.0782 317.241 87.1371ZM307.705 105.779C307.037 107.134 305.64 107.975 304.13 107.931H297.198C296.719 107.931 296.331 108.319 296.331 108.798V109.717L289.658 101.046L296.331 93.7075V95.7994C296.331 96.2779 296.719 96.666 297.198 96.666H313.02L307.705 105.779ZM315.603 92.418L314.043 94.9311H308.106L304.433 88.3217L313.301 83.1474L315.706 87.9482C316.482 89.3472 316.443 91.0563 315.603 92.418Z" fill="white"/>
<path d="M286.719 88.5037L281.52 77.2382C281.37 76.9126 281.036 76.7125 280.678 76.7348L266.813 77.6013C266.335 77.631 265.972 78.0422 266.002 78.5199C266.019 78.8002 266.171 79.0548 266.41 79.2028L266.411 79.2045L270.695 81.8614L267.836 87.5877C266.799 89.4709 266.805 91.7551 267.851 93.6329L272.674 101.961L275.311 106.528C276.443 108.452 278.5 109.642 280.733 109.665H284.199C284.678 109.665 285.066 109.277 285.066 108.798V96.6659C285.066 96.1874 284.678 95.7994 284.199 95.7994H277.725L282.047 88.2992L285.621 89.6753C286.068 89.847 286.569 89.6241 286.741 89.1773C286.825 88.9591 286.817 88.7161 286.719 88.5037ZM283.332 97.5325V107.931H280.733C279.118 107.916 277.629 107.055 276.81 105.664L274.431 101.542L276.885 97.5325H283.332ZM281.978 86.4153C281.58 86.2623 281.13 86.4218 280.916 86.7913L273.421 99.7969L269.351 92.7664C268.603 91.3996 268.614 89.7433 269.381 88.3867L272.603 81.9273C272.805 81.5258 272.667 81.0368 272.285 80.8007L269.634 79.1612L280.195 78.5034L284.25 87.2905L281.978 86.4153Z" fill="white"/>
<path d="M192.758 76V63.168L193.689 62.7285H198.031C199.789 62.7285 200.668 63.6074 200.668 65.3652V66.8066C200.668 67.4512 200.498 67.9639 200.158 68.3447C201.025 68.8369 201.459 69.7012 201.459 70.9375V72.9238C201.459 74.9746 200.434 76 198.383 76H192.758ZM194.516 74.418H198.383C199.262 74.418 199.701 73.9199 199.701 72.9238V70.9375C199.701 69.9414 199.262 69.4434 198.383 69.4434H194.516V74.418ZM194.516 67.8613H198.031C198.617 67.8613 198.91 67.5098 198.91 66.8066V65.3652C198.91 64.6621 198.617 64.3105 198.031 64.3105H194.516V67.8613ZM206.557 74.418H208.402C208.988 74.418 209.281 74.0664 209.281 73.3633V72.1592C209.281 71.4561 208.988 71.1045 208.402 71.1045H206.557C205.971 71.1045 205.678 71.4561 205.678 72.1592V73.3633C205.678 74.0664 205.971 74.418 206.557 74.418ZM206.557 76C204.799 76 203.92 75.1211 203.92 73.3633V72.1592C203.92 70.4014 204.799 69.5225 206.557 69.5225H208.402C208.707 69.5225 209 69.6104 209.281 69.7861V68.9688C209.281 68.2656 208.988 67.9141 208.402 67.9141H205.256V67.8262L205.959 66.332H208.402C210.16 66.332 211.039 67.2109 211.039 68.9688V75.5605L209.369 76.3516H209.281V75.7363C209.059 75.9121 208.766 76 208.402 76H206.557ZM213.676 76.3516V68.9688C213.676 67.2109 214.555 66.332 216.312 66.332H218.334C220.092 66.332 220.971 67.2109 220.971 68.9688V75.5605L219.301 76.3516H219.213V68.9688C219.213 68.2656 218.92 67.9141 218.334 67.9141H216.312C215.727 67.9141 215.434 68.2656 215.434 68.9688V75.5605L213.764 76.3516H213.676ZM224.047 76.3516V63.168L225.717 62.377H225.805V69.4961C225.881 69.4785 225.963 69.4639 226.051 69.4521L229.479 65.9805H229.566L231.113 66.71L228.178 69.4082H228.705C230.463 69.4082 231.342 70.2871 231.342 72.0449V75.5605L229.672 76.3516H229.584V72.0449C229.584 71.3418 229.291 70.9902 228.705 70.9902H226.684C226.098 70.9902 225.805 71.3418 225.805 72.0449V75.5605L224.135 76.3516H224.047ZM195.482 92C193.432 92 192.406 90.9746 192.406 88.9238V87.957L194.076 87.166H194.164V88.9238C194.164 89.9199 194.604 90.418 195.482 90.418H198.207C199.086 90.418 199.525 89.9199 199.525 88.9238V87.0781C199.525 86.082 199.086 85.584 198.207 85.584H195.834C194.076 85.584 193.197 84.7051 193.197 82.9473V81.3652C193.197 79.6074 194.076 78.7285 195.834 78.7285H197.855C199.613 78.7285 200.492 79.6074 200.492 81.3652V81.8311L198.822 82.6221H198.734V81.3652C198.734 80.6621 198.441 80.3105 197.855 80.3105H195.834C195.248 80.3105 194.955 80.6621 194.955 81.3652V82.9473C194.955 83.6504 195.248 84.002 195.834 84.002H198.207C200.258 84.002 201.283 85.0273 201.283 87.0781V88.9238C201.283 90.9746 200.258 92 198.207 92H195.482ZM206.205 90.418H208.051C208.637 90.418 208.93 90.0664 208.93 89.3633V88.1592C208.93 87.4561 208.637 87.1045 208.051 87.1045H206.205C205.619 87.1045 205.326 87.4561 205.326 88.1592V89.3633C205.326 90.0664 205.619 90.418 206.205 90.418ZM206.205 92C204.447 92 203.568 91.1211 203.568 89.3633V88.1592C203.568 86.4014 204.447 85.5225 206.205 85.5225H208.051C208.355 85.5225 208.648 85.6104 208.93 85.7861V84.9688C208.93 84.2656 208.637 83.9141 208.051 83.9141H204.904V83.8262L205.607 82.332H208.051C209.809 82.332 210.688 83.2109 210.688 84.9688V91.5605L209.018 92.3516H208.93V91.7363C208.707 91.9121 208.414 92 208.051 92H206.205ZM213.324 92.3516V84.9688C213.324 83.2109 214.203 82.332 215.961 82.332H217.982C218.791 82.332 219.377 82.5488 219.74 82.9824C220.127 82.5488 220.713 82.332 221.498 82.332H223.52C225.277 82.332 226.156 83.2109 226.156 84.9688V91.5605L224.486 92.3516H224.398V84.9688C224.398 84.2656 224.105 83.9141 223.52 83.9141H221.498C220.912 83.9141 220.619 84.2656 220.619 84.9688V91.5605L218.949 92.3516H218.861V84.9688C218.861 84.2656 218.568 83.9141 217.982 83.9141H215.961C215.375 83.9141 215.082 84.2656 215.082 84.9688V91.5605L213.412 92.3516H213.324ZM231.869 92C231.471 92 231.178 91.9092 230.99 91.7275V95.1641L229.32 95.9551H229.232V84.9688C229.232 83.2109 230.111 82.332 231.869 82.332H233.891C235.648 82.332 236.527 83.2109 236.527 84.9688V89.3633C236.527 91.1211 235.648 92 233.891 92H231.869ZM231.869 90.418H233.891C234.477 90.418 234.77 90.0664 234.77 89.3633V84.9688C234.77 84.2656 234.477 83.9141 233.891 83.9141H231.869C231.283 83.9141 230.99 84.2656 230.99 84.9688V89.3633C230.99 90.0664 231.283 90.418 231.869 90.418ZM241.361 90.418H243.207C243.793 90.418 244.086 90.0664 244.086 89.3633V88.1592C244.086 87.4561 243.793 87.1045 243.207 87.1045H241.361C240.775 87.1045 240.482 87.4561 240.482 88.1592V89.3633C240.482 90.0664 240.775 90.418 241.361 90.418ZM241.361 92C239.604 92 238.725 91.1211 238.725 89.3633V88.1592C238.725 86.4014 239.604 85.5225 241.361 85.5225H243.207C243.512 85.5225 243.805 85.6104 244.086 85.7861V84.9688C244.086 84.2656 243.793 83.9141 243.207 83.9141H240.061V83.8262L240.764 82.332H243.207C244.965 82.332 245.844 83.2109 245.844 84.9688V91.5605L244.174 92.3516H244.086V91.7363C243.863 91.9121 243.57 92 243.207 92H241.361ZM248.92 92.3516V79.168L250.59 78.377H250.678V82.6045C250.936 82.4229 251.229 82.332 251.557 82.332H253.578C255.336 82.332 256.215 83.2109 256.215 84.9688V91.5605L254.545 92.3516H254.457V84.9688C254.457 84.2656 254.164 83.9141 253.578 83.9141H251.557C250.971 83.9141 250.678 84.2656 250.678 84.9688V91.5605L249.008 92.3516H248.92ZM195.482 108C193.432 108 192.406 106.975 192.406 104.924V103.957L194.076 103.166H194.164V104.924C194.164 105.92 194.604 106.418 195.482 106.418H198.207C199.086 106.418 199.525 105.92 199.525 104.924V103.078C199.525 102.082 199.086 101.584 198.207 101.584H195.834C194.076 101.584 193.197 100.705 193.197 98.9473V97.3652C193.197 95.6074 194.076 94.7285 195.834 94.7285H197.855C199.613 94.7285 200.492 95.6074 200.492 97.3652V97.8311L198.822 98.6221H198.734V97.3652C198.734 96.6621 198.441 96.3105 197.855 96.3105H195.834C195.248 96.3105 194.955 96.6621 194.955 97.3652V98.9473C194.955 99.6504 195.248 100.002 195.834 100.002H198.207C200.258 100.002 201.283 101.027 201.283 103.078V104.924C201.283 106.975 200.258 108 198.207 108H195.482ZM206.205 106.418H208.051C208.637 106.418 208.93 106.066 208.93 105.363V104.159C208.93 103.456 208.637 103.104 208.051 103.104H206.205C205.619 103.104 205.326 103.456 205.326 104.159V105.363C205.326 106.066 205.619 106.418 206.205 106.418ZM206.205 108C204.447 108 203.568 107.121 203.568 105.363V104.159C203.568 102.401 204.447 101.522 206.205 101.522H208.051C208.355 101.522 208.648 101.61 208.93 101.786V100.969C208.93 100.266 208.637 99.9141 208.051 99.9141H204.904V99.8262L205.607 98.332H208.051C209.809 98.332 210.688 99.2109 210.688 100.969V107.561L209.018 108.352H208.93V107.736C208.707 107.912 208.414 108 208.051 108H206.205ZM213.764 108.352V95.168L215.434 94.377H215.521V98.6045C215.779 98.4229 216.072 98.332 216.4 98.332H218.422C220.18 98.332 221.059 99.2109 221.059 100.969V107.561L219.389 108.352H219.301V100.969C219.301 100.266 219.008 99.9141 218.422 99.9141H216.4C215.814 99.9141 215.521 100.266 215.521 100.969V107.561L213.852 108.352H213.764ZM224.267 96.3896C224.062 96.1787 223.959 95.9268 223.959 95.6338C223.959 95.335 224.062 95.0801 224.267 94.8691C224.472 94.6582 224.721 94.5527 225.014 94.5527C225.307 94.5527 225.556 94.6582 225.761 94.8691C225.966 95.0801 226.068 95.335 226.068 95.6338C226.068 95.9268 225.966 96.1787 225.761 96.3896C225.556 96.6006 225.307 96.7061 225.014 96.7061C224.721 96.7061 224.472 96.6006 224.267 96.3896ZM224.135 108.352V98.7715L225.805 97.9805H225.893V107.561L224.223 108.352H224.135ZM230.129 108.352V99.9316H227.87V99.8438L228.582 98.332H230.129V95.168L231.799 94.377H231.887V98.332H234.146V98.4199L233.434 99.9316H231.887V107.561L230.217 108.352H230.129ZM238.32 108C236.562 108 235.684 107.121 235.684 105.363V98.7715L237.354 97.9805H237.441V105.363C237.441 106.066 237.734 106.418 238.32 106.418H240.342C240.928 106.418 241.221 106.066 241.221 105.363V98.7715L242.891 97.9805H242.979V108.967C242.979 110.725 242.1 111.604 240.342 111.604H236.598V111.516L237.301 110.021H240.342C240.928 110.021 241.221 109.67 241.221 108.967V107.736C240.992 107.912 240.699 108 240.342 108H238.32ZM248.252 106.418H250.098C250.684 106.418 250.977 106.066 250.977 105.363V104.159C250.977 103.456 250.684 103.104 250.098 103.104H248.252C247.666 103.104 247.373 103.456 247.373 104.159V105.363C247.373 106.066 247.666 106.418 248.252 106.418ZM248.252 108C246.494 108 245.615 107.121 245.615 105.363V104.159C245.615 102.401 246.494 101.522 248.252 101.522H250.098C250.402 101.522 250.695 101.61 250.977 101.786V100.969C250.977 100.266 250.684 99.9141 250.098 99.9141H246.951V99.8262L247.654 98.332H250.098C251.855 98.332 252.734 99.2109 252.734 100.969V107.561L251.064 108.352H250.977V107.736C250.754 107.912 250.461 108 250.098 108H248.252Z" fill="white"/>
<defs>
<filter id="filter0_d" x="214" y="536" width="100" height="43" filterUnits="userSpaceOnUse" color-interpolation-filters="sRGB">
<feFlood flood-opacity="0" result="BackgroundImageFix"/>
<feColorMatrix in="SourceAlpha" type="matrix" values="0 0 0 0 0 0 0 0 0 0 0 0 0 0 0 0 0 0 127 0"/>
<feOffset dy="4"/>
<feGaussianBlur stdDeviation="2"/>
<feColorMatrix type="matrix" values="0 0 0 0 0 0 0 0 0 0 0 0 0 0 0 0 0 0 0.25 0"/>
<feBlend mode="normal" in2="BackgroundImageFix" result="effect1_dropShadow"/>
<feBlend mode="normal" in="SourceGraphic" in2="effect1_dropShadow" result="shape"/>
</filter>
<filter id="filter1_d" x="46" y="164" width="271" height="46" filterUnits="userSpaceOnUse" color-interpolation-filters="sRGB">
<feFlood flood-opacity="0" result="BackgroundImageFix"/>
<feColorMatrix in="SourceAlpha" type="matrix" values="0 0 0 0 0 0 0 0 0 0 0 0 0 0 0 0 0 0 127 0"/>
<feOffset dy="4"/>
<feGaussianBlur stdDeviation="2"/>
<feColorMatrix type="matrix" values="0 0 0 0 0 0 0 0 0 0 0 0 0 0 0 0 0 0 0.1 0"/>
<feBlend mode="normal" in2="BackgroundImageFix" result="effect1_dropShadow"/>
<feBlend mode="normal" in="SourceGraphic" in2="effect1_dropShadow" result="shape"/>
</filter>
<filter id="filter2_d" x="46" y="216" width="271" height="46" filterUnits="userSpaceOnUse" color-interpolation-filters="sRGB">
<feFlood flood-opacity="0" result="BackgroundImageFix"/>
<feColorMatrix in="SourceAlpha" type="matrix" values="0 0 0 0 0 0 0 0 0 0 0 0 0 0 0 0 0 0 127 0"/>
<feOffset dy="4"/>
<feGaussianBlur stdDeviation="2"/>
<feColorMatrix type="matrix" values="0 0 0 0 0 0 0 0 0 0 0 0 0 0 0 0 0 0 0.1 0"/>
<feBlend mode="normal" in2="BackgroundImageFix" result="effect1_dropShadow"/>
<feBlend mode="normal" in="SourceGraphic" in2="effect1_dropShadow" result="shape"/>
</filter>
<filter id="filter3_d" x="46" y="268" width="271" height="46" filterUnits="userSpaceOnUse" color-interpolation-filters="sRGB">
<feFlood flood-opacity="0" result="BackgroundImageFix"/>
<feColorMatrix in="SourceAlpha" type="matrix" values="0 0 0 0 0 0 0 0 0 0 0 0 0 0 0 0 0 0 127 0"/>
<feOffset dy="4"/>
<feGaussianBlur stdDeviation="2"/>
<feColorMatrix type="matrix" values="0 0 0 0 0 0 0 0 0 0 0 0 0 0 0 0 0 0 0.1 0"/>
<feBlend mode="normal" in2="BackgroundImageFix" result="effect1_dropShadow"/>
<feBlend mode="normal" in="SourceGraphic" in2="effect1_dropShadow" result="shape"/>
</filter>
<filter id="filter4_d" x="46" y="320" width="271" height="46" filterUnits="userSpaceOnUse" color-interpolation-filters="sRGB">
<feFlood flood-opacity="0" result="BackgroundImageFix"/>
<feColorMatrix in="SourceAlpha" type="matrix" values="0 0 0 0 0 0 0 0 0 0 0 0 0 0 0 0 0 0 127 0"/>
<feOffset dy="4"/>
<feGaussianBlur stdDeviation="2"/>
<feColorMatrix type="matrix" values="0 0 0 0 0 0 0 0 0 0 0 0 0 0 0 0 0 0 0.1 0"/>
<feBlend mode="normal" in2="BackgroundImageFix" result="effect1_dropShadow"/>
<feBlend mode="normal" in="SourceGraphic" in2="effect1_dropShadow" result="shape"/>
</filter>
<filter id="filter5_d" x="46" y="372" width="271" height="46" filterUnits="userSpaceOnUse" color-interpolation-filters="sRGB">
<feFlood flood-opacity="0" result="BackgroundImageFix"/>
<feColorMatrix in="SourceAlpha" type="matrix" values="0 0 0 0 0 0 0 0 0 0 0 0 0 0 0 0 0 0 127 0"/>
<feOffset dy="4"/>
<feGaussianBlur stdDeviation="2"/>
<feColorMatrix type="matrix" values="0 0 0 0 0 0 0 0 0 0 0 0 0 0 0 0 0 0 0.1 0"/>
<feBlend mode="normal" in2="BackgroundImageFix" result="effect1_dropShadow"/>
<feBlend mode="normal" in="SourceGraphic" in2="effect1_dropShadow" result="shape"/>
</filter>
<filter id="filter6_d" x="46" y="424" width="271" height="46" filterUnits="userSpaceOnUse" color-interpolation-filters="sRGB">
<feFlood flood-opacity="0" result="BackgroundImageFix"/>
<feColorMatrix in="SourceAlpha" type="matrix" values="0 0 0 0 0 0 0 0 0 0 0 0 0 0 0 0 0 0 127 0"/>
<feOffset dy="4"/>
<feGaussianBlur stdDeviation="2"/>
<feColorMatrix type="matrix" values="0 0 0 0 0 0 0 0 0 0 0 0 0 0 0 0 0 0 0.1 0"/>
<feBlend mode="normal" in2="BackgroundImageFix" result="effect1_dropShadow"/>
<feBlend mode="normal" in="SourceGraphic" in2="effect1_dropShadow" result="shape"/>
</filter>
<filter id="filter7_d" x="46" y="476" width="271" height="46" filterUnits="userSpaceOnUse" color-interpolation-filters="sRGB">
<feFlood flood-opacity="0" result="BackgroundImageFix"/>
<feColorMatrix in="SourceAlpha" type="matrix" values="0 0 0 0 0 0 0 0 0 0 0 0 0 0 0 0 0 0 127 0"/>
<feOffset dy="4"/>
<feGaussianBlur stdDeviation="2"/>
<feColorMatrix type="matrix" values="0 0 0 0 0 0 0 0 0 0 0 0 0 0 0 0 0 0 0.1 0"/>
<feBlend mode="normal" in2="BackgroundImageFix" result="effect1_dropShadow"/>
<feBlend mode="normal" in="SourceGraphic" in2="effect1_dropShadow" result="shape"/>
</filter>
<linearGradient id="paint0_linear" x1="180" y1="0" x2="180" y2="640" gradientUnits="userSpaceOnUse">
<stop stop-color="#8BC639"/>
<stop offset="1" stop-color="#CBFF00"/>
</linearGradient>
<linearGradient id="paint1_linear" x1="264" y1="536" x2="264" y2="571" gradientUnits="userSpaceOnUse">
<stop stop-color="white"/>
<stop offset="1" stop-color="#DFDFDF"/>
</linearGradient>
</defs>
</svg>
