<svg width="360" height="640" viewBox="0 0 360 640" fill="none" xmlns="http://www.w3.org/2000/svg">
<rect width="360" height="640" fill="url(#paint0_linear)"/>
<line x1="28.6278" y1="20.3674" x2="15.6278" y2="32.3674" stroke="white"/>
<line x1="38" y1="32.5" x2="15" y2="32.5" stroke="white"/>
<path d="M28.9321 44.2304L15.0856 32.4569" stroke="white"/>
<g filter="url(#filter0_d)">
<rect x="50" y="334" width="257" height="44" rx="10" fill="url(#paint1_linear)"/>
</g>
<path d="M154.582 355.296C153.135 354.88 152.08 354.37 151.418 353.767C150.762 353.157 150.434 352.407 150.434 351.517C150.434 350.509 150.835 349.677 151.638 349.021C152.446 348.358 153.495 348.027 154.784 348.027C155.663 348.027 156.445 348.197 157.131 348.537C157.822 348.877 158.355 349.346 158.73 349.943C159.111 350.541 159.302 351.194 159.302 351.903H157.605C157.605 351.13 157.359 350.523 156.867 350.084C156.375 349.639 155.681 349.416 154.784 349.416C153.952 349.416 153.302 349.601 152.833 349.97C152.37 350.333 152.139 350.84 152.139 351.49C152.139 352.012 152.358 352.454 152.798 352.817C153.243 353.175 153.996 353.503 155.057 353.802C156.123 354.101 156.955 354.432 157.553 354.795C158.156 355.152 158.602 355.571 158.889 356.052C159.182 356.532 159.328 357.098 159.328 357.748C159.328 358.785 158.924 359.617 158.115 360.244C157.307 360.865 156.226 361.176 154.872 361.176C153.993 361.176 153.173 361.009 152.411 360.675C151.649 360.335 151.061 359.872 150.645 359.286C150.234 358.7 150.029 358.035 150.029 357.291H151.726C151.726 358.064 152.01 358.677 152.578 359.128C153.152 359.573 153.917 359.796 154.872 359.796C155.763 359.796 156.445 359.614 156.92 359.251C157.395 358.888 157.632 358.393 157.632 357.766C157.632 357.139 157.412 356.655 156.973 356.315C156.533 355.97 155.736 355.63 154.582 355.296ZM163.011 361H161.385V351.49H163.011V361ZM161.253 348.968C161.253 348.704 161.332 348.481 161.49 348.3C161.654 348.118 161.895 348.027 162.211 348.027C162.527 348.027 162.768 348.118 162.932 348.3C163.096 348.481 163.178 348.704 163.178 348.968C163.178 349.231 163.096 349.451 162.932 349.627C162.768 349.803 162.527 349.891 162.211 349.891C161.895 349.891 161.654 349.803 161.49 349.627C161.332 349.451 161.253 349.231 161.253 348.968ZM165.234 356.166C165.234 354.684 165.577 353.506 166.263 352.633C166.948 351.754 167.856 351.314 168.987 351.314C170.147 351.314 171.053 351.725 171.703 352.545L171.782 351.49H173.268V360.771C173.268 362.002 172.901 362.972 172.169 363.681C171.442 364.39 170.464 364.744 169.233 364.744C168.548 364.744 167.877 364.598 167.221 364.305C166.564 364.012 166.063 363.61 165.718 363.101L166.562 362.125C167.259 362.986 168.111 363.417 169.119 363.417C169.91 363.417 170.525 363.194 170.965 362.749C171.41 362.304 171.633 361.677 171.633 360.868V360.051C170.982 360.801 170.095 361.176 168.97 361.176C167.856 361.176 166.954 360.728 166.263 359.831C165.577 358.935 165.234 357.713 165.234 356.166ZM166.869 356.351C166.869 357.423 167.089 358.267 167.528 358.882C167.968 359.491 168.583 359.796 169.374 359.796C170.399 359.796 171.152 359.33 171.633 358.398V354.057C171.135 353.148 170.388 352.694 169.392 352.694C168.601 352.694 167.982 353.002 167.537 353.617C167.092 354.232 166.869 355.144 166.869 356.351ZM177.267 351.49L177.319 352.686C178.046 351.771 178.995 351.314 180.167 351.314C182.177 351.314 183.19 352.448 183.208 354.716V361H181.582V354.707C181.576 354.021 181.418 353.515 181.107 353.187C180.803 352.858 180.325 352.694 179.675 352.694C179.147 352.694 178.685 352.835 178.286 353.116C177.888 353.397 177.577 353.767 177.354 354.224V361H175.729V351.49H177.267ZM199.389 348.203V356.904C199.383 358.111 199.002 359.099 198.246 359.866C197.496 360.634 196.477 361.064 195.188 361.158L194.739 361.176C193.339 361.176 192.223 360.798 191.391 360.042C190.559 359.286 190.137 358.246 190.125 356.922V348.203H191.795V356.869C191.795 357.795 192.05 358.516 192.56 359.031C193.069 359.541 193.796 359.796 194.739 359.796C195.694 359.796 196.424 359.541 196.928 359.031C197.438 358.521 197.692 357.804 197.692 356.878V348.203H199.389ZM209.83 356.351C209.83 357.798 209.499 358.964 208.837 359.849C208.175 360.733 207.278 361.176 206.147 361.176C204.993 361.176 204.085 360.81 203.423 360.077V364.656H201.797V351.49H203.282L203.361 352.545C204.023 351.725 204.943 351.314 206.121 351.314C207.264 351.314 208.166 351.745 208.828 352.606C209.496 353.468 209.83 354.666 209.83 356.201V356.351ZM208.204 356.166C208.204 355.094 207.976 354.247 207.519 353.626C207.062 353.005 206.435 352.694 205.638 352.694C204.653 352.694 203.915 353.131 203.423 354.004V358.548C203.909 359.415 204.653 359.849 205.655 359.849C206.435 359.849 207.053 359.541 207.51 358.926C207.973 358.305 208.204 357.385 208.204 356.166Z" fill="#8DC836"/>
<g filter="url(#filter1_d)">
<rect x="50" y="164" width="263" height="38" rx="10" fill="#C4C4C4"/>
<rect x="50" y="164" width="263" height="38" rx="10" fill="#F4F4F4"/>
<rect x="50.5" y="164.5" width="262" height="37" rx="9.5" stroke="#C4C4C4"/>
</g>
<path d="M172.459 183.057H168.762V186.08H173.057V187H167.637V178.469H172.998V179.395H168.762V182.137H172.459V183.057ZM175.307 180.66L175.336 181.363C175.801 180.816 176.428 180.543 177.217 180.543C178.104 180.543 178.707 180.883 179.027 181.562C179.238 181.258 179.512 181.012 179.848 180.824C180.188 180.637 180.588 180.543 181.049 180.543C182.439 180.543 183.146 181.279 183.17 182.752V187H182.086V182.816C182.086 182.363 181.982 182.025 181.775 181.803C181.568 181.576 181.221 181.463 180.732 181.463C180.33 181.463 179.996 181.584 179.73 181.826C179.465 182.064 179.311 182.387 179.268 182.793V187H178.178V182.846C178.178 181.924 177.727 181.463 176.824 181.463C176.113 181.463 175.627 181.766 175.365 182.371V187H174.281V180.66H175.307ZM188.725 187C188.662 186.875 188.611 186.652 188.572 186.332C188.068 186.855 187.467 187.117 186.768 187.117C186.143 187.117 185.629 186.941 185.227 186.59C184.828 186.234 184.629 185.785 184.629 185.242C184.629 184.582 184.879 184.07 185.379 183.707C185.883 183.34 186.59 183.156 187.5 183.156H188.555V182.658C188.555 182.279 188.441 181.979 188.215 181.756C187.988 181.529 187.654 181.416 187.213 181.416C186.826 181.416 186.502 181.514 186.24 181.709C185.979 181.904 185.848 182.141 185.848 182.418H184.758C184.758 182.102 184.869 181.797 185.092 181.504C185.318 181.207 185.623 180.973 186.006 180.801C186.393 180.629 186.816 180.543 187.277 180.543C188.008 180.543 188.58 180.727 188.994 181.094C189.408 181.457 189.623 181.959 189.639 182.6V185.518C189.639 186.1 189.713 186.562 189.861 186.906V187H188.725ZM186.926 186.174C187.266 186.174 187.588 186.086 187.893 185.91C188.197 185.734 188.418 185.506 188.555 185.225V183.924H187.705C186.377 183.924 185.713 184.312 185.713 185.09C185.713 185.43 185.826 185.695 186.053 185.887C186.279 186.078 186.57 186.174 186.926 186.174ZM192.516 187H191.432V180.66H192.516V187ZM191.344 178.979C191.344 178.803 191.396 178.654 191.502 178.533C191.611 178.412 191.771 178.352 191.982 178.352C192.193 178.352 192.354 178.412 192.463 178.533C192.572 178.654 192.627 178.803 192.627 178.979C192.627 179.154 192.572 179.301 192.463 179.418C192.354 179.535 192.193 179.594 191.982 179.594C191.771 179.594 191.611 179.535 191.502 179.418C191.396 179.301 191.344 179.154 191.344 178.979ZM195.434 187H194.35V178H195.434V187Z" fill="#BDBDBD"/>
<g filter="url(#filter2_d)">
<rect x="50" y="216" width="263" height="38" rx="10" fill="#C4C4C4"/>
<rect x="50" y="216" width="263" height="38" rx="10" fill="#F4F4F4"/>
<rect x="50.5" y="216.5" width="262" height="37" rx="9.5" stroke="#C4C4C4"/>
</g>
<path d="M157.119 235.66V239H155.994V230.469H159.141C160.074 230.469 160.805 230.707 161.332 231.184C161.863 231.66 162.129 232.291 162.129 233.076C162.129 233.904 161.869 234.543 161.35 234.992C160.834 235.438 160.094 235.66 159.129 235.66H157.119ZM157.119 234.74H159.141C159.742 234.74 160.203 234.6 160.523 234.318C160.844 234.033 161.004 233.623 161.004 233.088C161.004 232.58 160.844 232.174 160.523 231.869C160.203 231.564 159.764 231.406 159.205 231.395H157.119V234.74ZM167.238 239C167.176 238.875 167.125 238.652 167.086 238.332C166.582 238.855 165.98 239.117 165.281 239.117C164.656 239.117 164.143 238.941 163.74 238.59C163.342 238.234 163.143 237.785 163.143 237.242C163.143 236.582 163.393 236.07 163.893 235.707C164.396 235.34 165.104 235.156 166.014 235.156H167.068V234.658C167.068 234.279 166.955 233.979 166.729 233.756C166.502 233.529 166.168 233.416 165.727 233.416C165.34 233.416 165.016 233.514 164.754 233.709C164.492 233.904 164.361 234.141 164.361 234.418H163.271C163.271 234.102 163.383 233.797 163.605 233.504C163.832 233.207 164.137 232.973 164.52 232.801C164.906 232.629 165.33 232.543 165.791 232.543C166.521 232.543 167.094 232.727 167.508 233.094C167.922 233.457 168.137 233.959 168.152 234.6V237.518C168.152 238.1 168.227 238.562 168.375 238.906V239H167.238ZM165.439 238.174C165.779 238.174 166.102 238.086 166.406 237.91C166.711 237.734 166.932 237.506 167.068 237.225V235.924H166.219C164.891 235.924 164.227 236.312 164.227 237.09C164.227 237.43 164.34 237.695 164.566 237.887C164.793 238.078 165.084 238.174 165.439 238.174ZM173.543 237.318C173.543 237.025 173.432 236.799 173.209 236.639C172.99 236.475 172.605 236.334 172.055 236.217C171.508 236.1 171.072 235.959 170.748 235.795C170.428 235.631 170.189 235.436 170.033 235.209C169.881 234.982 169.805 234.713 169.805 234.4C169.805 233.881 170.023 233.441 170.461 233.082C170.902 232.723 171.465 232.543 172.148 232.543C172.867 232.543 173.449 232.729 173.895 233.1C174.344 233.471 174.568 233.945 174.568 234.523H173.479C173.479 234.227 173.352 233.971 173.098 233.756C172.848 233.541 172.531 233.434 172.148 233.434C171.754 233.434 171.445 233.52 171.223 233.691C171 233.863 170.889 234.088 170.889 234.365C170.889 234.627 170.992 234.824 171.199 234.957C171.406 235.09 171.779 235.217 172.318 235.338C172.861 235.459 173.301 235.604 173.637 235.771C173.973 235.939 174.221 236.143 174.381 236.381C174.545 236.615 174.627 236.902 174.627 237.242C174.627 237.809 174.4 238.264 173.947 238.607C173.494 238.947 172.906 239.117 172.184 239.117C171.676 239.117 171.227 239.027 170.836 238.848C170.445 238.668 170.139 238.418 169.916 238.098C169.697 237.773 169.588 237.424 169.588 237.049H170.672C170.691 237.412 170.836 237.701 171.105 237.916C171.379 238.127 171.738 238.232 172.184 238.232C172.594 238.232 172.922 238.15 173.168 237.986C173.418 237.818 173.543 237.596 173.543 237.318ZM179.73 237.318C179.73 237.025 179.619 236.799 179.396 236.639C179.178 236.475 178.793 236.334 178.242 236.217C177.695 236.1 177.26 235.959 176.936 235.795C176.615 235.631 176.377 235.436 176.221 235.209C176.068 234.982 175.992 234.713 175.992 234.4C175.992 233.881 176.211 233.441 176.648 233.082C177.09 232.723 177.652 232.543 178.336 232.543C179.055 232.543 179.637 232.729 180.082 233.1C180.531 233.471 180.756 233.945 180.756 234.523H179.666C179.666 234.227 179.539 233.971 179.285 233.756C179.035 233.541 178.719 233.434 178.336 233.434C177.941 233.434 177.633 233.52 177.41 233.691C177.188 233.863 177.076 234.088 177.076 234.365C177.076 234.627 177.18 234.824 177.387 234.957C177.594 235.09 177.967 235.217 178.506 235.338C179.049 235.459 179.488 235.604 179.824 235.771C180.16 235.939 180.408 236.143 180.568 236.381C180.732 236.615 180.814 236.902 180.814 237.242C180.814 237.809 180.588 238.264 180.135 238.607C179.682 238.947 179.094 239.117 178.371 239.117C177.863 239.117 177.414 239.027 177.023 238.848C176.633 238.668 176.326 238.418 176.104 238.098C175.885 237.773 175.775 237.424 175.775 237.049H176.859C176.879 237.412 177.023 237.701 177.293 237.916C177.566 238.127 177.926 238.232 178.371 238.232C178.781 238.232 179.109 238.15 179.355 237.986C179.605 237.818 179.73 237.596 179.73 237.318ZM187.84 237.506L189.059 232.66H190.143L188.297 239H187.418L185.877 234.195L184.377 239H183.498L181.658 232.66H182.736L183.984 237.406L185.461 232.66H186.334L187.84 237.506ZM190.963 235.771C190.963 235.15 191.084 234.592 191.326 234.096C191.572 233.6 191.912 233.217 192.346 232.947C192.783 232.678 193.281 232.543 193.84 232.543C194.703 232.543 195.4 232.842 195.932 233.439C196.467 234.037 196.734 234.832 196.734 235.824V235.9C196.734 236.518 196.615 237.072 196.377 237.564C196.143 238.053 195.805 238.434 195.363 238.707C194.926 238.98 194.422 239.117 193.852 239.117C192.992 239.117 192.295 238.818 191.76 238.221C191.229 237.623 190.963 236.832 190.963 235.848V235.771ZM192.053 235.9C192.053 236.604 192.215 237.168 192.539 237.594C192.867 238.02 193.305 238.232 193.852 238.232C194.402 238.232 194.84 238.018 195.164 237.588C195.488 237.154 195.65 236.549 195.65 235.771C195.65 235.076 195.484 234.514 195.152 234.084C194.824 233.65 194.387 233.434 193.84 233.434C193.305 233.434 192.873 233.646 192.545 234.072C192.217 234.498 192.053 235.107 192.053 235.9ZM201.158 233.633C200.994 233.605 200.816 233.592 200.625 233.592C199.914 233.592 199.432 233.895 199.178 234.5V239H198.094V232.66H199.148L199.166 233.393C199.521 232.826 200.025 232.543 200.678 232.543C200.889 232.543 201.049 232.57 201.158 232.625V233.633ZM201.779 235.777C201.779 234.805 202.01 234.023 202.471 233.434C202.932 232.84 203.535 232.543 204.281 232.543C205.023 232.543 205.611 232.797 206.045 233.305V230H207.129V239H206.133L206.08 238.32C205.646 238.852 205.043 239.117 204.27 239.117C203.535 239.117 202.936 238.816 202.471 238.215C202.01 237.613 201.779 236.828 201.779 235.859V235.777ZM202.863 235.9C202.863 236.619 203.012 237.182 203.309 237.588C203.605 237.994 204.016 238.197 204.539 238.197C205.227 238.197 205.729 237.889 206.045 237.271V234.359C205.721 233.762 205.223 233.463 204.551 233.463C204.02 233.463 203.605 233.668 203.309 234.078C203.012 234.488 202.863 235.096 202.863 235.9Z" fill="#BDBDBD"/>
<g filter="url(#filter3_d)">
<rect x="50" y="268" width="263" height="38" rx="10" fill="#C4C4C4"/>
<rect x="50" y="268" width="263" height="38" rx="10" fill="#F4F4F4"/>
<rect x="50.5" y="268.5" width="262" height="37" rx="9.5" stroke="#C4C4C4"/>
</g>
<path d="M139.523 288.293C139.418 289.195 139.084 289.893 138.521 290.385C137.963 290.873 137.219 291.117 136.289 291.117C135.281 291.117 134.473 290.756 133.863 290.033C133.258 289.311 132.955 288.344 132.955 287.133V286.312C132.955 285.52 133.096 284.822 133.377 284.221C133.662 283.619 134.064 283.158 134.584 282.838C135.104 282.514 135.705 282.352 136.389 282.352C137.295 282.352 138.021 282.605 138.568 283.113C139.115 283.617 139.434 284.316 139.523 285.211H138.393C138.295 284.531 138.082 284.039 137.754 283.734C137.43 283.43 136.975 283.277 136.389 283.277C135.67 283.277 135.105 283.543 134.695 284.074C134.289 284.605 134.086 285.361 134.086 286.342V287.168C134.086 288.094 134.279 288.83 134.666 289.377C135.053 289.924 135.594 290.197 136.289 290.197C136.914 290.197 137.393 290.057 137.725 289.775C138.061 289.49 138.283 288.996 138.393 288.293H139.523ZM140.607 287.771C140.607 287.15 140.729 286.592 140.971 286.096C141.217 285.6 141.557 285.217 141.99 284.947C142.428 284.678 142.926 284.543 143.484 284.543C144.348 284.543 145.045 284.842 145.576 285.439C146.111 286.037 146.379 286.832 146.379 287.824V287.9C146.379 288.518 146.26 289.072 146.021 289.564C145.787 290.053 145.449 290.434 145.008 290.707C144.57 290.98 144.066 291.117 143.496 291.117C142.637 291.117 141.939 290.818 141.404 290.221C140.873 289.623 140.607 288.832 140.607 287.848V287.771ZM141.697 287.9C141.697 288.604 141.859 289.168 142.184 289.594C142.512 290.02 142.949 290.232 143.496 290.232C144.047 290.232 144.484 290.018 144.809 289.588C145.133 289.154 145.295 288.549 145.295 287.771C145.295 287.076 145.129 286.514 144.797 286.084C144.469 285.65 144.031 285.434 143.484 285.434C142.949 285.434 142.518 285.646 142.189 286.072C141.861 286.498 141.697 287.107 141.697 287.9ZM148.764 284.66L148.799 285.457C149.283 284.848 149.916 284.543 150.697 284.543C152.037 284.543 152.713 285.299 152.725 286.811V291H151.641V286.805C151.637 286.348 151.531 286.01 151.324 285.791C151.121 285.572 150.803 285.463 150.369 285.463C150.018 285.463 149.709 285.557 149.443 285.744C149.178 285.932 148.971 286.178 148.822 286.482V291H147.738V284.66H148.764ZM154.723 291V285.498H153.721V284.66H154.723V284.121C154.723 283.414 154.924 282.863 155.326 282.469C155.732 282.074 156.305 281.877 157.043 281.877C157.48 281.877 158.033 281.996 158.701 282.234L158.52 283.148C158.031 282.953 157.566 282.855 157.125 282.855C156.66 282.855 156.324 282.961 156.117 283.172C155.914 283.379 155.812 283.691 155.812 284.109V284.66H157.107V285.498H155.812V291H154.723ZM159.24 291H158.15V284.66H159.24V291ZM164.068 285.633C163.904 285.605 163.727 285.592 163.535 285.592C162.824 285.592 162.342 285.895 162.088 286.5V291H161.004V284.66H162.059L162.076 285.393C162.432 284.826 162.936 284.543 163.588 284.543C163.799 284.543 163.959 284.57 164.068 284.625V285.633ZM166.09 284.66L166.119 285.363C166.584 284.816 167.211 284.543 168 284.543C168.887 284.543 169.49 284.883 169.811 285.562C170.021 285.258 170.295 285.012 170.631 284.824C170.971 284.637 171.371 284.543 171.832 284.543C173.223 284.543 173.93 285.279 173.953 286.752V291H172.869V286.816C172.869 286.363 172.766 286.025 172.559 285.803C172.352 285.576 172.004 285.463 171.516 285.463C171.113 285.463 170.779 285.584 170.514 285.826C170.248 286.064 170.094 286.387 170.051 286.793V291H168.961V286.846C168.961 285.924 168.51 285.463 167.607 285.463C166.896 285.463 166.41 285.766 166.148 286.371V291H165.064V284.66H166.09ZM179.865 287.66V291H178.74V282.469H181.887C182.82 282.469 183.551 282.707 184.078 283.184C184.609 283.66 184.875 284.291 184.875 285.076C184.875 285.904 184.615 286.543 184.096 286.992C183.58 287.438 182.84 287.66 181.875 287.66H179.865ZM179.865 286.74H181.887C182.488 286.74 182.949 286.6 183.27 286.318C183.59 286.033 183.75 285.623 183.75 285.088C183.75 284.58 183.59 284.174 183.27 283.869C182.949 283.564 182.51 283.406 181.951 283.395H179.865V286.74ZM189.984 291C189.922 290.875 189.871 290.652 189.832 290.332C189.328 290.855 188.727 291.117 188.027 291.117C187.402 291.117 186.889 290.941 186.486 290.59C186.088 290.234 185.889 289.785 185.889 289.242C185.889 288.582 186.139 288.07 186.639 287.707C187.143 287.34 187.85 287.156 188.76 287.156H189.814V286.658C189.814 286.279 189.701 285.979 189.475 285.756C189.248 285.529 188.914 285.416 188.473 285.416C188.086 285.416 187.762 285.514 187.5 285.709C187.238 285.904 187.107 286.141 187.107 286.418H186.018C186.018 286.102 186.129 285.797 186.352 285.504C186.578 285.207 186.883 284.973 187.266 284.801C187.652 284.629 188.076 284.543 188.537 284.543C189.268 284.543 189.84 284.727 190.254 285.094C190.668 285.457 190.883 285.959 190.898 286.6V289.518C190.898 290.1 190.973 290.562 191.121 290.906V291H189.984ZM188.186 290.174C188.525 290.174 188.848 290.086 189.152 289.91C189.457 289.734 189.678 289.506 189.814 289.225V287.924H188.965C187.637 287.924 186.973 288.312 186.973 289.09C186.973 289.43 187.086 289.695 187.312 289.887C187.539 290.078 187.83 290.174 188.186 290.174ZM196.289 289.318C196.289 289.025 196.178 288.799 195.955 288.639C195.736 288.475 195.352 288.334 194.801 288.217C194.254 288.1 193.818 287.959 193.494 287.795C193.174 287.631 192.936 287.436 192.779 287.209C192.627 286.982 192.551 286.713 192.551 286.4C192.551 285.881 192.77 285.441 193.207 285.082C193.648 284.723 194.211 284.543 194.895 284.543C195.613 284.543 196.195 284.729 196.641 285.1C197.09 285.471 197.314 285.945 197.314 286.523H196.225C196.225 286.227 196.098 285.971 195.844 285.756C195.594 285.541 195.277 285.434 194.895 285.434C194.5 285.434 194.191 285.52 193.969 285.691C193.746 285.863 193.635 286.088 193.635 286.365C193.635 286.627 193.738 286.824 193.945 286.957C194.152 287.09 194.525 287.217 195.064 287.338C195.607 287.459 196.047 287.604 196.383 287.771C196.719 287.939 196.967 288.143 197.127 288.381C197.291 288.615 197.373 288.902 197.373 289.242C197.373 289.809 197.146 290.264 196.693 290.607C196.24 290.947 195.652 291.117 194.93 291.117C194.422 291.117 193.973 291.027 193.582 290.848C193.191 290.668 192.885 290.418 192.662 290.098C192.443 289.773 192.334 289.424 192.334 289.049H193.418C193.438 289.412 193.582 289.701 193.852 289.916C194.125 290.127 194.484 290.232 194.93 290.232C195.34 290.232 195.668 290.15 195.914 289.986C196.164 289.818 196.289 289.596 196.289 289.318ZM202.477 289.318C202.477 289.025 202.365 288.799 202.143 288.639C201.924 288.475 201.539 288.334 200.988 288.217C200.441 288.1 200.006 287.959 199.682 287.795C199.361 287.631 199.123 287.436 198.967 287.209C198.814 286.982 198.738 286.713 198.738 286.4C198.738 285.881 198.957 285.441 199.395 285.082C199.836 284.723 200.398 284.543 201.082 284.543C201.801 284.543 202.383 284.729 202.828 285.1C203.277 285.471 203.502 285.945 203.502 286.523H202.412C202.412 286.227 202.285 285.971 202.031 285.756C201.781 285.541 201.465 285.434 201.082 285.434C200.688 285.434 200.379 285.52 200.156 285.691C199.934 285.863 199.822 286.088 199.822 286.365C199.822 286.627 199.926 286.824 200.133 286.957C200.34 287.09 200.713 287.217 201.252 287.338C201.795 287.459 202.234 287.604 202.57 287.771C202.906 287.939 203.154 288.143 203.314 288.381C203.479 288.615 203.561 288.902 203.561 289.242C203.561 289.809 203.334 290.264 202.881 290.607C202.428 290.947 201.84 291.117 201.117 291.117C200.609 291.117 200.16 291.027 199.77 290.848C199.379 290.668 199.072 290.418 198.85 290.098C198.631 289.773 198.521 289.424 198.521 289.049H199.605C199.625 289.412 199.77 289.701 200.039 289.916C200.312 290.127 200.672 290.232 201.117 290.232C201.527 290.232 201.855 290.15 202.102 289.986C202.352 289.818 202.477 289.596 202.477 289.318ZM210.586 289.506L211.805 284.66H212.889L211.043 291H210.164L208.623 286.195L207.123 291H206.244L204.404 284.66H205.482L206.73 289.406L208.207 284.66H209.08L210.586 289.506ZM213.709 287.771C213.709 287.15 213.83 286.592 214.072 286.096C214.318 285.6 214.658 285.217 215.092 284.947C215.529 284.678 216.027 284.543 216.586 284.543C217.449 284.543 218.146 284.842 218.678 285.439C219.213 286.037 219.48 286.832 219.48 287.824V287.9C219.48 288.518 219.361 289.072 219.123 289.564C218.889 290.053 218.551 290.434 218.109 290.707C217.672 290.98 217.168 291.117 216.598 291.117C215.738 291.117 215.041 290.818 214.506 290.221C213.975 289.623 213.709 288.832 213.709 287.848V287.771ZM214.799 287.9C214.799 288.604 214.961 289.168 215.285 289.594C215.613 290.02 216.051 290.232 216.598 290.232C217.148 290.232 217.586 290.018 217.91 289.588C218.234 289.154 218.396 288.549 218.396 287.771C218.396 287.076 218.23 286.514 217.898 286.084C217.57 285.65 217.133 285.434 216.586 285.434C216.051 285.434 215.619 285.646 215.291 286.072C214.963 286.498 214.799 287.107 214.799 287.9ZM223.904 285.633C223.74 285.605 223.562 285.592 223.371 285.592C222.66 285.592 222.178 285.895 221.924 286.5V291H220.84V284.66H221.895L221.912 285.393C222.268 284.826 222.771 284.543 223.424 284.543C223.635 284.543 223.795 284.57 223.904 284.625V285.633ZM224.525 287.777C224.525 286.805 224.756 286.023 225.217 285.434C225.678 284.84 226.281 284.543 227.027 284.543C227.77 284.543 228.357 284.797 228.791 285.305V282H229.875V291H228.879L228.826 290.32C228.393 290.852 227.789 291.117 227.016 291.117C226.281 291.117 225.682 290.816 225.217 290.215C224.756 289.613 224.525 288.828 224.525 287.859V287.777ZM225.609 287.9C225.609 288.619 225.758 289.182 226.055 289.588C226.352 289.994 226.762 290.197 227.285 290.197C227.973 290.197 228.475 289.889 228.791 289.271V286.359C228.467 285.762 227.969 285.463 227.297 285.463C226.766 285.463 226.352 285.668 226.055 286.078C225.758 286.488 225.609 287.096 225.609 287.9Z" fill="#BDBDBD"/>
<path d="M60.5703 90.5234C60.5703 89.8594 60.3359 89.3516 59.8672 89C59.3984 88.6406 58.5547 88.2656 57.3359 87.875C56.1172 87.4766 55.1523 87.0859 54.4414 86.7031C52.5039 85.6562 51.5352 84.2461 51.5352 82.4727C51.5352 81.5508 51.793 80.7305 52.3086 80.0117C52.832 79.2852 53.5781 78.7188 54.5469 78.3125C55.5234 77.9062 56.6172 77.7031 57.8281 77.7031C59.0469 77.7031 60.1328 77.9258 61.0859 78.3711C62.0391 78.8086 62.7773 79.4297 63.3008 80.2344C63.832 81.0391 64.0977 81.9531 64.0977 82.9766H60.582C60.582 82.1953 60.3359 81.5898 59.8438 81.1602C59.3516 80.7227 58.6602 80.5039 57.7695 80.5039C56.9102 80.5039 56.2422 80.6875 55.7656 81.0547C55.2891 81.4141 55.0508 81.8906 55.0508 82.4844C55.0508 83.0391 55.3281 83.5039 55.8828 83.8789C56.4453 84.2539 57.2695 84.6055 58.3555 84.9336C60.3555 85.5352 61.8125 86.2812 62.7266 87.1719C63.6406 88.0625 64.0977 89.1719 64.0977 90.5C64.0977 91.9766 63.5391 93.1367 62.4219 93.9805C61.3047 94.8164 59.8008 95.2344 57.9102 95.2344C56.5977 95.2344 55.4023 94.9961 54.3242 94.5195C53.2461 94.0352 52.4219 93.375 51.8516 92.5391C51.2891 91.7031 51.0078 90.7344 51.0078 89.6328H54.5352C54.5352 91.5156 55.6602 92.457 57.9102 92.457C58.7461 92.457 59.3984 92.2891 59.8672 91.9531C60.3359 91.6094 60.5703 91.1328 60.5703 90.5234ZM69.8398 95H66.4414V82.3203H69.8398V95ZM66.2422 79.0391C66.2422 78.5312 66.4102 78.1133 66.7461 77.7852C67.0898 77.457 67.5547 77.293 68.1406 77.293C68.7188 77.293 69.1797 77.457 69.5234 77.7852C69.8672 78.1133 70.0391 78.5312 70.0391 79.0391C70.0391 79.5547 69.8633 79.9766 69.5117 80.3047C69.168 80.6328 68.7109 80.7969 68.1406 80.7969C67.5703 80.7969 67.1094 80.6328 66.7578 80.3047C66.4141 79.9766 66.2422 79.5547 66.2422 79.0391ZM72.1484 88.5664C72.1484 86.6211 72.6094 85.0547 73.5312 83.8672C74.4609 82.6797 75.7109 82.0859 77.2812 82.0859C78.6719 82.0859 79.7539 82.5625 80.5273 83.5156L80.668 82.3203H83.7383V94.5781C83.7383 95.6875 83.4844 96.6523 82.9766 97.4727C82.4766 98.293 81.7695 98.918 80.8555 99.3477C79.9414 99.7773 78.8711 99.9922 77.6445 99.9922C76.7148 99.9922 75.8086 99.8047 74.9258 99.4297C74.043 99.0625 73.375 98.5859 72.9219 98L74.4219 95.9375C75.2656 96.8828 76.2891 97.3555 77.4922 97.3555C78.3906 97.3555 79.0898 97.1133 79.5898 96.6289C80.0898 96.1523 80.3398 95.4727 80.3398 94.5898V93.9102C79.5586 94.793 78.5312 95.2344 77.2578 95.2344C75.7344 95.2344 74.5 94.6406 73.5547 93.4531C72.6172 92.2578 72.1484 90.6758 72.1484 88.707V88.5664ZM75.5352 88.8125C75.5352 89.9609 75.7656 90.8633 76.2266 91.5195C76.6875 92.168 77.3203 92.4922 78.125 92.4922C79.1562 92.4922 79.8945 92.1055 80.3398 91.332V86C79.8867 85.2266 79.1562 84.8398 78.1484 84.8398C77.3359 84.8398 76.6953 85.1719 76.2266 85.8359C75.7656 86.5 75.5352 87.4922 75.5352 88.8125ZM89.4688 82.3203L89.5742 83.7852C90.4805 82.6523 91.6953 82.0859 93.2188 82.0859C94.5625 82.0859 95.5625 82.4805 96.2188 83.2695C96.875 84.0586 97.2109 85.2383 97.2266 86.8086V95H93.8398V86.8906C93.8398 86.1719 93.6836 85.6523 93.3711 85.332C93.0586 85.0039 92.5391 84.8398 91.8125 84.8398C90.8594 84.8398 90.1445 85.2461 89.668 86.0586V95H86.2812V82.3203H89.4688ZM118.918 77.9375V89.1758C118.918 91.043 118.332 92.5195 117.16 93.6055C115.996 94.6914 114.402 95.2344 112.379 95.2344C110.387 95.2344 108.805 94.707 107.633 93.6523C106.461 92.5977 105.863 91.1484 105.84 89.3047V77.9375H109.355V89.1992C109.355 90.3164 109.621 91.1328 110.152 91.6484C110.691 92.1562 111.434 92.4102 112.379 92.4102C114.355 92.4102 115.359 91.3711 115.391 89.293V77.9375H118.918ZM132.992 88.7773C132.992 90.7305 132.547 92.2969 131.656 93.4766C130.773 94.6484 129.578 95.2344 128.07 95.2344C126.789 95.2344 125.754 94.7891 124.965 93.8984V99.875H121.578V82.3203H124.719L124.836 83.5625C125.656 82.5781 126.727 82.0859 128.047 82.0859C129.609 82.0859 130.824 82.6641 131.691 83.8203C132.559 84.9766 132.992 86.5703 132.992 88.6016V88.7773ZM129.605 88.5312C129.605 87.3516 129.395 86.4414 128.973 85.8008C128.559 85.1602 127.953 84.8398 127.156 84.8398C126.094 84.8398 125.363 85.2461 124.965 86.0586V91.25C125.379 92.0859 126.117 92.5039 127.18 92.5039C128.797 92.5039 129.605 91.1797 129.605 88.5312Z" fill="white"/>
<path d="M313.174 68.0224C312.93 67.9044 312.646 67.9069 312.404 68.0293L308.669 69.9236L305.746 64.9027C304.746 63.0273 302.789 61.8598 300.664 61.8697H286.22C284.063 61.8749 282.065 63.0041 280.949 64.849L278.262 69.2148C278.014 69.6182 278.135 70.1461 278.535 70.4003L288.067 76.4663C288.206 76.5545 288.367 76.6013 288.532 76.6014C288.604 76.6016 288.675 76.5925 288.745 76.5746C288.976 76.516 289.173 76.3645 289.289 76.156L292.929 69.6073L296.915 77.1465L293.286 79.3242C292.967 79.5153 292.806 79.8884 292.885 80.2515C292.963 80.6144 293.264 80.887 293.633 80.9291L306.531 82.3954C306.563 82.3988 306.596 82.4006 306.629 82.4006C306.961 82.4006 307.264 82.2108 307.408 81.9118L313.576 69.1801C313.784 68.7493 313.605 68.231 313.174 68.0224ZM288.221 74.5094L280.185 69.3967L282.429 65.7501C283.231 64.4213 284.668 63.6073 286.22 63.6027H289.738L291.886 67.9139L288.221 74.5094ZM306.116 80.604L296.369 79.4957L298.51 78.2106C298.905 77.9736 299.045 77.47 298.83 77.0632L291.713 63.6027H300.664C302.169 63.6006 303.55 64.4355 304.248 65.7692L307.583 71.4998C307.814 71.8958 308.314 72.0428 308.723 71.8352L310.895 70.7346L306.116 80.604Z" fill="white"/>
<path d="M317.241 86.1371L314.441 80.5425C314.227 80.1143 313.706 79.9407 313.278 80.1545C313.261 80.1631 313.244 80.1723 313.228 80.182L302.829 86.248C302.421 86.4857 302.279 87.0056 302.508 87.4179L306.123 93.9328H298.064V90.4665C298.064 89.988 297.677 89.5998 297.198 89.5996C296.954 89.5995 296.721 89.7025 296.556 89.8833L287.891 99.4156C287.608 99.7264 287.589 100.195 287.846 100.527L296.511 111.793C296.803 112.172 297.348 112.242 297.727 111.95C297.939 111.786 298.064 111.533 298.064 111.264V108.665H304.13C306.267 108.717 308.244 107.537 309.212 105.632L315.278 95.2379L317.08 92.3262C318.246 90.4432 318.308 88.0782 317.241 86.1371ZM307.705 104.779C307.037 106.134 305.64 106.975 304.13 106.931H297.198C296.719 106.931 296.331 107.319 296.331 107.798V108.717L289.658 100.046L296.331 92.7075V94.7994C296.331 95.2779 296.719 95.666 297.198 95.666H313.02L307.705 104.779ZM315.603 91.418L314.043 93.9311H308.106L304.434 87.3217L313.301 82.1474L315.706 86.9482C316.482 88.3472 316.443 90.0563 315.603 91.418Z" fill="white"/>
<path d="M286.719 87.5037L281.52 76.2382C281.37 75.9126 281.036 75.7125 280.678 75.7348L266.813 76.6013C266.335 76.631 265.972 77.0422 266.002 77.5199C266.019 77.8002 266.171 78.0548 266.41 78.2028L266.411 78.2045L270.695 80.8614L267.835 86.5877C266.799 88.4709 266.805 90.7551 267.851 92.6329L272.674 100.961L275.311 105.528C276.443 107.452 278.5 108.642 280.733 108.665H284.199C284.678 108.665 285.066 108.277 285.066 107.798V95.6659C285.066 95.1874 284.678 94.7994 284.199 94.7994H277.725L282.047 87.2992L285.621 88.6753C286.068 88.847 286.569 88.6241 286.741 88.1773C286.825 87.9591 286.817 87.7161 286.719 87.5037ZM283.332 96.5325V106.931H280.733C279.118 106.916 277.629 106.055 276.81 104.664L274.431 100.542L276.885 96.5325H283.332ZM281.978 85.4153C281.58 85.2623 281.129 85.4218 280.916 85.7913L273.421 98.7969L269.351 91.7664C268.603 90.3996 268.614 88.7433 269.381 87.3867L272.603 80.9273C272.805 80.5258 272.667 80.0368 272.284 79.8007L269.634 78.1612L280.195 77.5034L284.25 86.2905L281.978 85.4153Z" fill="white"/>
<path d="M192.758 75V62.168L193.689 61.7285H198.031C199.789 61.7285 200.668 62.6074 200.668 64.3652V65.8066C200.668 66.4512 200.498 66.9639 200.158 67.3447C201.025 67.8369 201.459 68.7012 201.459 69.9375V71.9238C201.459 73.9746 200.434 75 198.383 75H192.758ZM194.516 73.418H198.383C199.262 73.418 199.701 72.9199 199.701 71.9238V69.9375C199.701 68.9414 199.262 68.4434 198.383 68.4434H194.516V73.418ZM194.516 66.8613H198.031C198.617 66.8613 198.91 66.5098 198.91 65.8066V64.3652C198.91 63.6621 198.617 63.3105 198.031 63.3105H194.516V66.8613ZM206.557 73.418H208.402C208.988 73.418 209.281 73.0664 209.281 72.3633V71.1592C209.281 70.4561 208.988 70.1045 208.402 70.1045H206.557C205.971 70.1045 205.678 70.4561 205.678 71.1592V72.3633C205.678 73.0664 205.971 73.418 206.557 73.418ZM206.557 75C204.799 75 203.92 74.1211 203.92 72.3633V71.1592C203.92 69.4014 204.799 68.5225 206.557 68.5225H208.402C208.707 68.5225 209 68.6104 209.281 68.7861V67.9688C209.281 67.2656 208.988 66.9141 208.402 66.9141H205.256V66.8262L205.959 65.332H208.402C210.16 65.332 211.039 66.2109 211.039 67.9688V74.5605L209.369 75.3516H209.281V74.7363C209.059 74.9121 208.766 75 208.402 75H206.557ZM213.676 75.3516V67.9688C213.676 66.2109 214.555 65.332 216.312 65.332H218.334C220.092 65.332 220.971 66.2109 220.971 67.9688V74.5605L219.301 75.3516H219.213V67.9688C219.213 67.2656 218.92 66.9141 218.334 66.9141H216.312C215.727 66.9141 215.434 67.2656 215.434 67.9688V74.5605L213.764 75.3516H213.676ZM224.047 75.3516V62.168L225.717 61.377H225.805V68.4961C225.881 68.4785 225.963 68.4639 226.051 68.4521L229.479 64.9805H229.566L231.113 65.71L228.178 68.4082H228.705C230.463 68.4082 231.342 69.2871 231.342 71.0449V74.5605L229.672 75.3516H229.584V71.0449C229.584 70.3418 229.291 69.9902 228.705 69.9902H226.684C226.098 69.9902 225.805 70.3418 225.805 71.0449V74.5605L224.135 75.3516H224.047ZM195.482 91C193.432 91 192.406 89.9746 192.406 87.9238V86.957L194.076 86.166H194.164V87.9238C194.164 88.9199 194.604 89.418 195.482 89.418H198.207C199.086 89.418 199.525 88.9199 199.525 87.9238V86.0781C199.525 85.082 199.086 84.584 198.207 84.584H195.834C194.076 84.584 193.197 83.7051 193.197 81.9473V80.3652C193.197 78.6074 194.076 77.7285 195.834 77.7285H197.855C199.613 77.7285 200.492 78.6074 200.492 80.3652V80.8311L198.822 81.6221H198.734V80.3652C198.734 79.6621 198.441 79.3105 197.855 79.3105H195.834C195.248 79.3105 194.955 79.6621 194.955 80.3652V81.9473C194.955 82.6504 195.248 83.002 195.834 83.002H198.207C200.258 83.002 201.283 84.0273 201.283 86.0781V87.9238C201.283 89.9746 200.258 91 198.207 91H195.482ZM206.205 89.418H208.051C208.637 89.418 208.93 89.0664 208.93 88.3633V87.1592C208.93 86.4561 208.637 86.1045 208.051 86.1045H206.205C205.619 86.1045 205.326 86.4561 205.326 87.1592V88.3633C205.326 89.0664 205.619 89.418 206.205 89.418ZM206.205 91C204.447 91 203.568 90.1211 203.568 88.3633V87.1592C203.568 85.4014 204.447 84.5225 206.205 84.5225H208.051C208.355 84.5225 208.648 84.6104 208.93 84.7861V83.9688C208.93 83.2656 208.637 82.9141 208.051 82.9141H204.904V82.8262L205.607 81.332H208.051C209.809 81.332 210.688 82.2109 210.688 83.9688V90.5605L209.018 91.3516H208.93V90.7363C208.707 90.9121 208.414 91 208.051 91H206.205ZM213.324 91.3516V83.9688C213.324 82.2109 214.203 81.332 215.961 81.332H217.982C218.791 81.332 219.377 81.5488 219.74 81.9824C220.127 81.5488 220.713 81.332 221.498 81.332H223.52C225.277 81.332 226.156 82.2109 226.156 83.9688V90.5605L224.486 91.3516H224.398V83.9688C224.398 83.2656 224.105 82.9141 223.52 82.9141H221.498C220.912 82.9141 220.619 83.2656 220.619 83.9688V90.5605L218.949 91.3516H218.861V83.9688C218.861 83.2656 218.568 82.9141 217.982 82.9141H215.961C215.375 82.9141 215.082 83.2656 215.082 83.9688V90.5605L213.412 91.3516H213.324ZM231.869 91C231.471 91 231.178 90.9092 230.99 90.7275V94.1641L229.32 94.9551H229.232V83.9688C229.232 82.2109 230.111 81.332 231.869 81.332H233.891C235.648 81.332 236.527 82.2109 236.527 83.9688V88.3633C236.527 90.1211 235.648 91 233.891 91H231.869ZM231.869 89.418H233.891C234.477 89.418 234.77 89.0664 234.77 88.3633V83.9688C234.77 83.2656 234.477 82.9141 233.891 82.9141H231.869C231.283 82.9141 230.99 83.2656 230.99 83.9688V88.3633C230.99 89.0664 231.283 89.418 231.869 89.418ZM241.361 89.418H243.207C243.793 89.418 244.086 89.0664 244.086 88.3633V87.1592C244.086 86.4561 243.793 86.1045 243.207 86.1045H241.361C240.775 86.1045 240.482 86.4561 240.482 87.1592V88.3633C240.482 89.0664 240.775 89.418 241.361 89.418ZM241.361 91C239.604 91 238.725 90.1211 238.725 88.3633V87.1592C238.725 85.4014 239.604 84.5225 241.361 84.5225H243.207C243.512 84.5225 243.805 84.6104 244.086 84.7861V83.9688C244.086 83.2656 243.793 82.9141 243.207 82.9141H240.061V82.8262L240.764 81.332H243.207C244.965 81.332 245.844 82.2109 245.844 83.9688V90.5605L244.174 91.3516H244.086V90.7363C243.863 90.9121 243.57 91 243.207 91H241.361ZM248.92 91.3516V78.168L250.59 77.377H250.678V81.6045C250.936 81.4229 251.229 81.332 251.557 81.332H253.578C255.336 81.332 256.215 82.2109 256.215 83.9688V90.5605L254.545 91.3516H254.457V83.9688C254.457 83.2656 254.164 82.9141 253.578 82.9141H251.557C250.971 82.9141 250.678 83.2656 250.678 83.9688V90.5605L249.008 91.3516H248.92ZM195.482 107C193.432 107 192.406 105.975 192.406 103.924V102.957L194.076 102.166H194.164V103.924C194.164 104.92 194.604 105.418 195.482 105.418H198.207C199.086 105.418 199.525 104.92 199.525 103.924V102.078C199.525 101.082 199.086 100.584 198.207 100.584H195.834C194.076 100.584 193.197 99.7051 193.197 97.9473V96.3652C193.197 94.6074 194.076 93.7285 195.834 93.7285H197.855C199.613 93.7285 200.492 94.6074 200.492 96.3652V96.8311L198.822 97.6221H198.734V96.3652C198.734 95.6621 198.441 95.3105 197.855 95.3105H195.834C195.248 95.3105 194.955 95.6621 194.955 96.3652V97.9473C194.955 98.6504 195.248 99.002 195.834 99.002H198.207C200.258 99.002 201.283 100.027 201.283 102.078V103.924C201.283 105.975 200.258 107 198.207 107H195.482ZM206.205 105.418H208.051C208.637 105.418 208.93 105.066 208.93 104.363V103.159C208.93 102.456 208.637 102.104 208.051 102.104H206.205C205.619 102.104 205.326 102.456 205.326 103.159V104.363C205.326 105.066 205.619 105.418 206.205 105.418ZM206.205 107C204.447 107 203.568 106.121 203.568 104.363V103.159C203.568 101.401 204.447 100.522 206.205 100.522H208.051C208.355 100.522 208.648 100.61 208.93 100.786V99.9688C208.93 99.2656 208.637 98.9141 208.051 98.9141H204.904V98.8262L205.607 97.332H208.051C209.809 97.332 210.688 98.2109 210.688 99.9688V106.561L209.018 107.352H208.93V106.736C208.707 106.912 208.414 107 208.051 107H206.205ZM213.764 107.352V94.168L215.434 93.377H215.521V97.6045C215.779 97.4229 216.072 97.332 216.4 97.332H218.422C220.18 97.332 221.059 98.2109 221.059 99.9688V106.561L219.389 107.352H219.301V99.9688C219.301 99.2656 219.008 98.9141 218.422 98.9141H216.4C215.814 98.9141 215.521 99.2656 215.521 99.9688V106.561L213.852 107.352H213.764ZM224.267 95.3896C224.062 95.1787 223.959 94.9268 223.959 94.6338C223.959 94.335 224.062 94.0801 224.267 93.8691C224.472 93.6582 224.721 93.5527 225.014 93.5527C225.307 93.5527 225.556 93.6582 225.761 93.8691C225.966 94.0801 226.068 94.335 226.068 94.6338C226.068 94.9268 225.966 95.1787 225.761 95.3896C225.556 95.6006 225.307 95.7061 225.014 95.7061C224.721 95.7061 224.472 95.6006 224.267 95.3896ZM224.135 107.352V97.7715L225.805 96.9805H225.893V106.561L224.223 107.352H224.135ZM230.129 107.352V98.9316H227.87V98.8438L228.582 97.332H230.129V94.168L231.799 93.377H231.887V97.332H234.146V97.4199L233.434 98.9316H231.887V106.561L230.217 107.352H230.129ZM238.32 107C236.562 107 235.684 106.121 235.684 104.363V97.7715L237.354 96.9805H237.441V104.363C237.441 105.066 237.734 105.418 238.32 105.418H240.342C240.928 105.418 241.221 105.066 241.221 104.363V97.7715L242.891 96.9805H242.979V107.967C242.979 109.725 242.1 110.604 240.342 110.604H236.598V110.516L237.301 109.021H240.342C240.928 109.021 241.221 108.67 241.221 107.967V106.736C240.992 106.912 240.699 107 240.342 107H238.32ZM248.252 105.418H250.098C250.684 105.418 250.977 105.066 250.977 104.363V103.159C250.977 102.456 250.684 102.104 250.098 102.104H248.252C247.666 102.104 247.373 102.456 247.373 103.159V104.363C247.373 105.066 247.666 105.418 248.252 105.418ZM248.252 107C246.494 107 245.615 106.121 245.615 104.363V103.159C245.615 101.401 246.494 100.522 248.252 100.522H250.098C250.402 100.522 250.695 100.61 250.977 100.786V99.9688C250.977 99.2656 250.684 98.9141 250.098 98.9141H246.951V98.8262L247.654 97.332H250.098C251.855 97.332 252.734 98.2109 252.734 99.9688V106.561L251.064 107.352H250.977V106.736C250.754 106.912 250.461 107 250.098 107H248.252Z" fill="white"/>
<defs>
<filter id="filter0_d" x="46" y="334" width="265" height="52" filterUnits="userSpaceOnUse" color-interpolation-filters="sRGB">
<feFlood flood-opacity="0" result="BackgroundImageFix"/>
<feColorMatrix in="SourceAlpha" type="matrix" values="0 0 0 0 0 0 0 0 0 0 0 0 0 0 0 0 0 0 127 0"/>
<feOffset dy="4"/>
<feGaussianBlur stdDeviation="2"/>
<feColorMatrix type="matrix" values="0 0 0 0 0 0 0 0 0 0 0 0 0 0 0 0 0 0 0.25 0"/>
<feBlend mode="normal" in2="BackgroundImageFix" result="effect1_dropShadow"/>
<feBlend mode="normal" in="SourceGraphic" in2="effect1_dropShadow" result="shape"/>
</filter>
<filter id="filter1_d" x="46" y="164" width="271" height="46" filterUnits="userSpaceOnUse" color-interpolation-filters="sRGB">
<feFlood flood-opacity="0" result="BackgroundImageFix"/>
<feColorMatrix in="SourceAlpha" type="matrix" values="0 0 0 0 0 0 0 0 0 0 0 0 0 0 0 0 0 0 127 0"/>
<feOffset dy="4"/>
<feGaussianBlur stdDeviation="2"/>
<feColorMatrix type="matrix" values="0 0 0 0 0 0 0 0 0 0 0 0 0 0 0 0 0 0 0.1 0"/>
<feBlend mode="normal" in2="BackgroundImageFix" result="effect1_dropShadow"/>
<feBlend mode="normal" in="SourceGraphic" in2="effect1_dropShadow" result="shape"/>
</filter>
<filter id="filter2_d" x="46" y="216" width="271" height="46" filterUnits="userSpaceOnUse" color-interpolation-filters="sRGB">
<feFlood flood-opacity="0" result="BackgroundImageFix"/>
<feColorMatrix in="SourceAlpha" type="matrix" values="0 0 0 0 0 0 0 0 0 0 0 0 0 0 0 0 0 0 127 0"/>
<feOffset dy="4"/>
<feGaussianBlur stdDeviation="2"/>
<feColorMatrix type="matrix" values="0 0 0 0 0 0 0 0 0 0 0 0 0 0 0 0 0 0 0.1 0"/>
<feBlend mode="normal" in2="BackgroundImageFix" result="effect1_dropShadow"/>
<feBlend mode="normal" in="SourceGraphic" in2="effect1_dropShadow" result="shape"/>
</filter>
<filter id="filter3_d" x="46" y="268" width="271" height="46" filterUnits="userSpaceOnUse" color-interpolation-filters="sRGB">
<feFlood flood-opacity="0" result="BackgroundImageFix"/>
<feColorMatrix in="SourceAlpha" type="matrix" values="0 0 0 0 0 0 0 0 0 0 0 0 0 0 0 0 0 0 127 0"/>
<feOffset dy="4"/>
<feGaussianBlur stdDeviation="2"/>
<feColorMatrix type="matrix" values="0 0 0 0 0 0 0 0 0 0 0 0 0 0 0 0 0 0 0.1 0"/>
<feBlend mode="normal" in2="BackgroundImageFix" result="effect1_dropShadow"/>
<feBlend mode="normal" in="SourceGraphic" in2="effect1_dropShadow" result="shape"/>
</filter>
<linearGradient id="paint0_linear" x1="180" y1="0" x2="180" y2="640" gradientUnits="userSpaceOnUse">
<stop stop-color="#8BC639"/>
<stop offset="1" stop-color="#CAFE00"/>
</linearGradient>
<linearGradient id="paint1_linear" x1="178.5" y1="334" x2="178.5" y2="378" gradientUnits="userSpaceOnUse">
<stop stop-color="white"/>
<stop offset="1" stop-color="#DFDFDF"/>
</linearGradient>
</defs>
</svg>
